<?xml version="1.0" encoding="UTF-8"?>
<svg id="uuid-7365f6e3-a816-4fd7-bf14-1705a8fecfff" data-name="Ebene 2" xmlns="http://www.w3.org/2000/svg" viewBox="0 0 279.2102 803.0751">
  <g id="uuid-af25ef82-aaf1-4372-8188-305b8408f585" data-name="ŕđ 1">
    <g>
      <circle cx="139.6051" cy="663.47" r="139.6051" transform="translate(-428.2547 293.0416) rotate(-45)" style="fill: #bdb296;"/>
      <polygon points="120.9006 732.4887 160.5077 732.4887 149.9196 788.9582 128.7435 788.9582 120.9006 732.4887" style="fill: #3a3d39;"/>
      <path d="M144.2447,122.1037l14.614-31.4694c1.6702-3.5962-1.0647-7.6866-5.0314-7.5113-3.4939.1544-6.0531-3.3224-5.281-6.7336l4.7218-20.8607c.6756-2.9853,2.012-5.8237,4.1106-8.0517,6.9603-7.3897,6.1209-19.126-1.7858-25.4533L128.0725,0l-25.6841,24.1393c-7.3334,6.8923-7.2981,18.5643.1005,25.3865,2.241,2.0664,3.8982,4.6862,4.8052,7.5962l6.4333,20.6459c1.0409,3.3409-1.234,7.0121-4.7308,7.1377-3.9667.1424-6.3663,4.4358-4.4167,7.8872l16.4711,29.1546,23.1937.1563Z" style="fill: #473e37;"/>
      <polygon points="144.2447 122.1037 121.051 121.9474 121.0436 121.9474 118.4292 551.7427 160.7813 551.7427 144.2447 122.1037" style="fill: #776f5a;"/>
      <path d="M193.0077,688.3429c-.7673.7673-1.8347,1.23-3.0052,1.2l-97.2031-2.4933c-2.2639-.0579-4.051-1.9401-3.9932-4.204.0548-2.2655,1.9383-4.0516,4.2039-3.9932l97.2032,2.4933c2.2638.0576,4.0511,1.94,3.9932,4.2038-.0271,1.0941-.4819,2.0765-1.1988,2.7934Z" style="fill: #777774;"/>
    </g>
  </g>
</svg>