<?xml version="1.0" encoding="UTF-8"?>
<svg id="uuid-13b67f1c-203d-4474-a3a8-175099c5200a" data-name="Ebene 2" xmlns="http://www.w3.org/2000/svg" viewBox="0 0 604.4874 574.1721">
  <g id="uuid-827a38bc-25e0-4045-a9ec-c33564ac673f" data-name="ŕđ 1">
    <g>
      <rect x="301.3599" y="-62.4083" width="50.6331" height="680.4387" transform="translate(292.1222 -149.6261) rotate(44.9998)" style="fill: #c6c1ac;"/>
      <path d="M103.0647,391.0967c-1.0215,0-2.0439-.3899-2.8228-1.1696-1.5596-1.5597-1.5596-4.0862,0-5.6458l219.8431-219.8423c1.5595-1.5597,4.0862-1.5597,5.6457,0,1.5596,1.5595,1.5596,4.0861,0,5.6456l-219.8431,219.8425c-.7791.7797-1.8013,1.1696-2.8229,1.1696Z" style="fill: #565654;"/>
      <path d="M526.7504,93.5613c-4.3698,4.3698-11.4545,4.3698-15.8243,0s-4.3698-11.4545,0-15.8241c4.3698-4.3698,11.4545-4.3698,15.8243,0s4.3696,11.4543,0,15.8241Z" style="fill: #565349;"/>
      <path d="M234.3422,374.1376c-1.0214,0-2.0439-.3898-2.8229-1.1697-1.5595-1.5595-1.5595-4.0861,0-5.6456L508.1036,90.7386c1.5597-1.5595,4.0862-1.5595,5.6459,0,1.5596,1.5596,1.5596,4.0861,0,5.6458L237.1651,372.9679c-.779.7799-1.8013,1.1697-2.8229,1.1697Z" style="fill: #565654;"/>
      <path d="M551.4554,16.5151h48.7537c5.3396,0,9.6747,4.3351,9.6747,9.6747v4.931c0,5.3395-4.335,9.6744-9.6744,9.6744h-48.7542c-5.3395,0-9.6744-4.335-9.6744-9.6744v-4.931c0-5.3396,4.3351-9.6747,9.6747-9.6747Z" transform="translate(188.9196 -398.782) rotate(45)" style="fill: #918a6d;"/>
      <path d="M373.3171,173.6094c-1.3506,0-2.6701-.6862-3.4202-1.9277-1.1401-1.8855-.5364-4.3372,1.3474-5.4788h0c.1763-.1076,17.7109-10.9173,29.386-31.2372,10.9125-18.9928-4.7941-41.1437-4.9532-41.3652-.0874-.1201-.1701-.2495-.2434-.3774-.0623-.1077-7.9133-13.163-31.8219-19.7882-26.953-7.4673-46.7068-30.7584-47.5334-31.7471-1.4161-1.689-1.1932-4.2046.4944-5.6209,1.6858-1.4175,4.2077-1.1962,5.6238.4898.1872.2246,19.0318,22.3895,43.5487,29.1831,25.9049,7.1788,35.2812,21.3104,36.5101,23.3316,1.7218,2.4346,18.4048,27.0621,5.2996,49.8712-12.7451,22.1806-31.3885,33.6157-32.1761,34.0913-.6457.39-1.3585.5755-2.0618.5755Z" style="fill: #565654;"/>
      <path d="M325.7565,33.8429l-12.6879,10.7916-20.8373-35.2929c-1.2797-2.1675,1.498-4.4352,3.3655-2.7478l30.1597,27.2491Z" style="fill: #565654;"/>
      <path d="M211.1712,101.746h22.1937v449.7026h-42.1147V121.6669c0-10.9947,8.9263-19.921,19.921-19.921Z" transform="translate(293.1226 -54.466) rotate(45)" style="fill: #f4eac3;"/>
      <path d="M103.859,536.1364l-65.8234-65.8234c-2.4183-2.4185-6.3395-2.4185-8.7579,0l-27.4639,27.4638c-2.4184,2.4185-2.4184,6.3395,0,8.7581l65.8234,65.8234c2.4185,2.4183,6.3395,2.4183,8.7581,0l27.4637-27.4639c2.4186-2.4184,2.4186-6.3396,0-8.758Z" style="fill: #918a6d;"/>
      <circle cx="308.7508" cy="230.1541" r="9.7713" style="fill: #565349;"/>
      <path d="M286.1028,266.6206c-3.8159,3.816-10.0026,3.816-13.8186,0s-3.8159-10.0026,0-13.8186c3.816-3.8159,10.0027-3.8159,13.8186,0s3.816,10.0027,0,13.8186Z" style="fill: #565349;"/>
      <circle cx="249.6363" cy="289.2685" r="9.7713" style="fill: #565349;"/>
      <circle cx="220.0792" cy="318.8257" r="9.7713" style="fill: #565349;"/>
      <circle cx="149.0335" cy="389.8713" r="9.7713" style="fill: #565349;"/>
      <path d="M213.1699,315.9085c-1.0216,0-2.0438-.3898-2.8229-1.1696l-17.4588-17.4582c-1.5597-1.5579-1.5597-4.086,0-5.6457,1.558-1.5596,4.0876-1.5596,5.6456,0l17.459,17.4581c1.5595,1.558,1.5595,4.0861,0,5.6458-.779.7798-1.8014,1.1696-2.8229,1.1696Z" style="fill: #565654;"/>
      <path d="M242.7266,286.3511c-1.0215,0-2.0439-.3898-2.8229-1.1697l-17.4581-17.4582c-1.5596-1.5595-1.5596-4.0861,0-5.6456,1.5581-1.5597,4.0878-1.5597,5.6457,0l17.4582,17.458c1.5595,1.5597,1.5595,4.0862,0,5.6458-.779.7799-1.8013,1.1697-2.8229,1.1697Z" style="fill: #565654;"/>
      <path d="M272.2841,256.7951c-1.0215,0-2.0439-.39-2.8229-1.1698l-17.4589-17.4597c-1.5597-1.5595-1.5597-4.0875,0-5.6456,1.5581-1.5597,4.0877-1.5597,5.6458,0l17.4589,17.4597c1.5596,1.5595,1.5596,4.0877,0,5.6456-.7791.7798-1.8013,1.1698-2.8229,1.1698Z" style="fill: #565654;"/>
      <path d="M301.8407,227.2378c-1.0214,0-2.0437-.39-2.8235-1.1699l-17.4582-17.4596c-1.5587-1.5597-1.5587-4.0878.0008-5.6457,1.558-1.5596,4.0869-1.5596,5.6466,0l17.4572,17.4597c1.5597,1.5595,1.5597,4.0876,0,5.6456-.7798.7799-1.8013,1.1699-2.8229,1.1699Z" style="fill: #565654;"/>
      <path d="M142.1241,386.9543c-1.0216,0-2.0439-.3899-2.8229-1.1697l-17.4582-17.458c-1.5595-1.5597-1.5595-4.0862,0-5.6459,1.558-1.5595,4.0877-1.5595,5.6458,0l17.4581,17.4583c1.5596,1.5595,1.5596,4.0861,0,5.6456-.7791.7798-1.8013,1.1697-2.8228,1.1697Z" style="fill: #565654;"/>
      <path d="M153.7953,349.8437h92.8685c3.3652,0,6.0974,2.7321,6.0974,6.0974v39.7709c0,3.3652-2.7321,6.0973-6.0973,6.0973h-92.8685v-51.9656h0Z" transform="translate(325.2883 -33.6624) rotate(45)" style="fill: #918a6d;"/>
    </g>
  </g>
</svg>