<?xml version="1.0" encoding="UTF-8"?>
<svg id="uuid-a6916832-cb7c-4942-9ae8-ee9585a1d030" data-name="Ebene 2" xmlns="http://www.w3.org/2000/svg" viewBox="0 0 343.1496 366.2736">
  <g id="uuid-8eb8a009-33f6-4f28-b5fb-2d0ba626c0ac" data-name="ŕđ 1">
    <g>
      <path d="M308.9845,147.9997l31.096-58.7886c6.0827-11.4993,1.1172-25.744-10.7957-30.9705l-53.4241-23.4385c-11.9129-5.2265-25.7569.7659-30.0992,13.0287l-22.0856,62.3667c-48.4792-1.3228-95.1989,26.3156-115.8839,73.4636-27.2564,62.1262,1.0109,134.5848,63.1372,161.8411,62.1261,27.2565,134.5847-1.011,161.8412-63.1372,20.5559-46.8535,9.5256-99.5795-23.7859-134.3653Z" style="fill: #998668;"/>
      <path d="M279.7154,61.6186c-2.3485,5.353-8.5917,7.7886-13.9448,5.4401-5.353-2.3485-7.7886-8.5917-5.4401-13.9447,2.3485-5.3531,8.5917-7.7886,13.9448-5.4402,5.353,2.3485,7.7886,8.5919,5.4401,13.9448Z" style="fill: #cecdcc;"/>
      <path d="M322.0477,80.1909c-2.3485,5.353-8.5919,7.7886-13.9447,5.4401-5.3531-2.3485-7.7886-8.5917-5.4402-13.9447,2.3485-5.3531,8.5917-7.7886,13.9448-5.4402,5.353,2.3485,7.7886,8.5919,5.4401,13.9448Z" style="fill: #cecdcc;"/>
      <path d="M270.0202,60.5216c-.6392,0-1.2848-.1942-1.8424-.5963-.2974-.2141-30.0717-21.5894-63.6328-37.2076-30.1503-14.0299-69.5964-26.2404-86.3084-4.7018-3.8006,4.8959-5.2887,9.8272-4.4246,14.6554,1.7486,9.761,12.3707,16.4701,12.4786,16.5364,1.4774.9197,1.9335,2.8622,1.0168,4.3428-.9152,1.4789-2.8593,1.9395-4.3351,1.0244-.5346-.3297-13.0932-8.2065-15.3641-20.7513-1.2077-6.6752.6918-13.295,5.6432-19.6776,36.2847-46.7576,153.6399,37.0705,158.6175,40.6616,1.4127,1.0199,1.7331,2.9918.7134,4.4045-.6164.855-1.5823,1.3095-2.5621,1.3095Z" style="fill: #777774;"/>
      <circle cx="220.6866" cy="231.5931" r="83.0922" transform="translate(-99.1234 223.881) rotate(-45)" style="fill: #ad9b80;"/>
      <path d="M199.3008,147.2053l22.8849-62.4448c4.4766-12.2145-2.3642-25.6595-14.8731-29.2318l-56.0964-16.0208c-12.5089-3.5725-25.4185,4.2319-28.0677,16.9682l-13.4745,64.7751c-48.2148,5.2263-90.781,38.912-104.9197,88.4184-18.6305,65.234,19.1491,133.2194,84.3831,151.8498,65.2341,18.6303,133.2194-19.1492,151.8497-84.3832,14.0505-49.1975-3.9885-99.9546-41.6863-129.9309Z" style="fill: #7f715d;"/>
      <path d="M158.6515,65.5596c-1.6053,5.6209-7.4631,8.876-13.0839,7.2708-5.6207-1.6053-8.876-7.4631-7.2708-13.0839,1.6053-5.6207,7.4631-8.876,13.0839-7.2707,5.6207,1.6052,8.876,7.463,7.2708,13.0838Z" style="fill: #cecdcc;"/>
      <path d="M203.1014,78.2543c-1.6052,5.6208-7.463,8.876-13.0839,7.2707-5.6208-1.6053-8.876-7.4631-7.2707-13.0839s7.4631-8.876,13.0839-7.2707c5.6207,1.6053,8.876,7.4632,7.2707,13.0839Z" style="fill: #cecdcc;"/>
      <path d="M192.926,78.5045c-.2865,0-.5777-.0401-.8674-.1234l-44.4496-12.6941c-1.6762-.4776-2.6468-2.2246-2.1677-3.8991.4791-1.6746,2.223-2.6467,3.8992-2.1676l44.4498,12.6941c1.6761.4777,2.6466,2.2247,2.1675,3.8992-.3959,1.3865-1.6592,2.2909-3.0318,2.2909Z" style="fill: #777774;"/>
      <path d="M312.3565,79.0929c-1.2248,0-2.3895-.7163-2.901-1.9118-.2789-.6501-28.294-64.9931-66.9049-68.484-15.6644-1.4143-28.2585,5.2718-37.4618,19.8747-7.0944,11.2615-9.4252,23.2071-9.4484,23.3257-.3265,1.7099-1.9671,2.8423-3.6865,2.5111-1.7115-.3235-2.8361-1.9705-2.5141-3.6819.0986-.5224,10.3601-52.2096,53.6776-48.3151,17.9476,1.6237,35.5792,14.3703,52.4068,37.8885,12.3167,17.2126,19.4342,33.7029,19.7314,34.3961.6856,1.6007-.0569,3.4554-1.659,4.141-.4037.1742-.8259.2557-1.2401.2557Z" style="fill: #777774;"/>
    </g>
  </g>
</svg>