<?xml version="1.0" encoding="UTF-8"?>
<svg id="uuid-ba431df9-af8c-4551-b278-c408392fef5b" data-name="Ebene 2" xmlns="http://www.w3.org/2000/svg" viewBox="0 0 575.3733 587.0315">
  <g id="uuid-e4fc3a4c-6718-4f57-9f03-8cd1d7b71e48" data-name="ŕđ 1">
    <g>
      <path d="M0,538.8775l1.7355-.7422c17.6066-7.5299,33.5046-18.5498,46.7344-32.3939l3.345-3.5007c1.2738-.9005,3.0112-.7526,4.1141.3504l23.9204,23.9204c1.0195,1.0193,1.2321,2.5944.5196,3.8478l-5.7442,7.0826c-9.4619,11.6668-17.0089,24.7635-22.3586,38.8l-4.1122,10.7896h0c-22.5821-7.8245-40.3293-25.5719-48.154-48.1538v-.0002Z" style="fill: #a8a594;"/>
      <path d="M112.9422,416.6458c-.9683,0-1.9373-.3695-2.6756-1.1087-1.4784-1.4775-1.4784-3.8738,0-5.3514l14.9142-14.9141c1.4767-1.4783,3.8744-1.4783,5.3512,0,1.4783,1.4775,1.4783,3.8739,0,5.3513l-14.9141,14.9142c-.7384.7392-1.7075,1.1087-2.6757,1.1087Z" style="fill: #7a7c72;"/>
      <path d="M147.923,381.6642c-.9683,0-1.9372-.3695-2.6756-1.1087-1.4784-1.4775-1.4784-3.8738,0-5.3513l14.9148-14.9141c1.4768-1.4783,3.8746-1.4783,5.3514,0,1.4781,1.4775,1.4781,3.8738,0,5.3513l-14.9149,14.9141c-.7384.7392-1.7075,1.1087-2.6757,1.1087Z" style="fill: #7a7c72;"/>
      <path d="M182.9046,346.6834c-.9683,0-1.9373-.3695-2.6757-1.1087-1.4783-1.4775-1.4783-3.8738,0-5.3512l14.9141-14.915c1.4768-1.4782,3.8746-1.4782,5.3514,0,1.4782,1.4776,1.4782,3.8738,0,5.3514l-14.9143,14.9148c-.7384.7392-1.7073,1.1087-2.6755,1.1087Z" style="fill: #7a7c72;"/>
      <path d="M137.2426,426.032c-.9682,0-1.9373-.3696-2.6757-1.1087l-16.8432-16.8433c-1.4783-1.4776-1.4783-3.8738,0-5.3514,1.4768-1.4781,3.8745-1.4781,5.3512,0l16.8433,16.8434c1.4784,1.4775,1.4784,3.8738,0,5.3513-.7384.7391-1.7073,1.1087-2.6756,1.1087Z" style="fill: #7a7c72;"/>
      <path d="M171.5486,390.3756c-.9682,0-1.9373-.3695-2.6757-1.1086l-16.1684-16.1686c-1.4783-1.4774-1.4783-3.8738,0-5.3512,1.4768-1.4783,3.8744-1.4783,5.3512,0l16.1685,16.1684c1.4782,1.4775,1.4782,3.8738,0,5.3514-.7384.7391-1.7075,1.1086-2.6756,1.1086Z" style="fill: #7a7c72;"/>
      <path d="M205.8376,354.7015c-.9684,0-1.9373-.3695-2.6757-1.1087l-15.476-15.4752c-1.4782-1.4774-1.4782-3.8737,0-5.3512,1.4768-1.4783,3.8746-1.4783,5.3514,0l15.4758,15.4751c1.4783,1.4775,1.4783,3.8738,0,5.3513-.7384.7392-1.7073,1.1087-2.6755,1.1087Z" style="fill: #7a7c72;"/>
      <path d="M368.3788,313.5919c-.9683,0-1.9373-.3697-2.6757-1.1087-1.4781-1.4775-1.4781-3.8738,0-5.3514l14.9143-14.9141c1.4766-1.4783,3.8744-1.4783,5.3512,0,1.4783,1.4775,1.4783,3.8739,0,5.3513l-14.9141,14.9142c-.7384.739-1.7075,1.1087-2.6757,1.1087Z" style="fill: #7a7c72;"/>
      <path d="M385.1571,315.4559c-.9684,0-1.9373-.3695-2.6757-1.1087l-9.3212-9.3211c-1.4783-1.4776-1.4783-3.8738,0-5.3514,1.4768-1.4781,3.8746-1.4781,5.3513,0l9.3213,9.3213c1.4781,1.4774,1.4781,3.8737,0,5.3512-.7384.7392-1.7075,1.1087-2.6757,1.1087Z" style="fill: #7a7c72;"/>
      <path d="M200.6981,542.3977l.0002.0003c8.2131,8.213,21.5293,8.213,29.7422,0l215.1703-215.1702c8.213-8.2131,8.213-21.5293,0-29.7422l-.0002-.0003c-8.2131-8.213-21.5293-8.213-29.7422,0l-215.1703,215.1702c-8.213,8.2131-8.213,21.5293,0,29.7422ZM210.6392,532.4567c-2.7183-2.7182-2.7183-7.1418,0-9.8602l215.1702-215.1701c2.7182-2.7183,7.1418-2.7183,9.8602,0,2.7182,2.7182,2.7182,7.1418,0,9.8601l-215.1703,215.1702c-2.7183,2.7182-7.1419,2.7182-9.8601,0Z" style="fill: #7a7c72;"/>
      <rect x="377.1857" y="309.9422" width="24.1901" height="11.7064" transform="translate(887.8451 263.835) rotate(135.0002)" style="fill: #a8a594;"/>
      <polygon points="226.1579 524.9891 153.3997 452.2312 165.176 440.5706 168.4312 437.4344 241.0718 510.0752 226.1579 524.9891" style="fill: #a8a594;"/>
      <polygon points="261.1384 490.0086 188.8724 417.7426 204.0659 403.1057 276.0537 475.0935 261.1384 490.0086" style="fill: #a8a594;"/>
      <polygon points="296.1202 455.0269 224.5068 383.4135 238.777 369.6662 239.6996 368.7775 311.0346 440.1125 296.1202 455.0269" style="fill: #a8a594;"/>
      <path d="M129.1209,538.9357c22.9074,22.9073,60.1832,22.9073,83.0906,0l13.9464-13.9466,14.9139-14.9139,20.0666-20.0666,14.9153-14.9151,20.0665-20.0666,14.9144-14.9144,13.9461-13.9461c22.9074-22.9074,22.9074-60.183,0-83.0904-11.2764-11.2764-26.032-16.9413-40.8435-17.1081l10.7157-10.3232,7.0014-6.7445c13.4444,3.255,26.1944,10.1124,36.6918,20.6095,30.4367,30.4368,30.4358,79.786-.0002,110.2219l-112.7692,112.7693c-30.4369,30.4367-79.7846,30.4367-110.2216-.0003-11.7212-11.7212-18.8955-26.2517-21.5862-41.4223l18.2163-18.0375c-1.2232,16.4616,4.3756,33.3346,16.9357,45.8949Z" style="fill: #a0a58e;"/>
      <path d="M391.0561,69.0224c1.1559,39.7848-12.2115,78.6301-37.6059,109.2784l-103.4625,122.1809c-17.7068,20.9103-36.1119,41.2192-55.1839,60.8922L56.9299,503.5921l22.1895,22.1899,134.7755-131.6552c24.2018-23.6415,49.3748-46.2675,75.4542-67.8203l123.6839-102.2147c27.9881-21.6313,62.2254-33.6224,97.5937-34.1805l15.4987-.2444L390.6244,54.1655l.4317,14.8569Z" style="fill: #a0a58e;"/>
      <path d="M567.8681,158.9319L416.4415,7.5053c-10.0072-10.0071-26.2317-10.0071-36.2387,0h-.0002c-10.007,10.007-10.007,26.2316,0,36.2389l10.4218,10.4213,135.501,135.5014,5.5038,5.5039c10.007,10.0069,26.2317,10.0069,36.2389,0,10.007-10.0073,10.007-26.232,0-36.2389Z" style="fill: #a8a594;"/>
    </g>
  </g>
</svg>