<?xml version="1.0" encoding="UTF-8"?>
<svg id="uuid-03852c6e-0602-4d89-8294-b47f829522bb" data-name="Ebene 2" xmlns="http://www.w3.org/2000/svg" viewBox="0 0 1324.398 857.697">
  <g id="uuid-0d97bd94-1d37-42e9-a536-9b2e7e87fac2" data-name="ŕđ 1">
    <g>
      <rect x="669.6325" y="753.4511" width="28.118" height="94.6055" transform="translate(-324.7229 497.8656) rotate(-32.7908)" style="fill: #a8a7a7;"/>
      <rect x="496.1043" y="753.4511" width="28.118" height="94.6055" transform="translate(505.3622 1750.2013) rotate(-147.2089)" style="fill: #a8a7a7;"/>
      <path d="M514.787,857.697h-63.4663c0-16.4163,13.3081-29.7248,29.7244-29.7248h4.0171c16.4164,0,29.7248,13.3085,29.7248,29.7248h0Z" style="fill: #685d4a;"/>
      <path d="M742.5344,857.697h-63.4663c0-16.4163,13.3081-29.7248,29.7247-29.7248h4.0168c16.4166,0,29.7248,13.3085,29.7248,29.7248h0Z" style="fill: #685d4a;"/>
      <polygon points="1119.9376 235.3778 1119.9376 463.5025 932.1717 463.5025 931.9819 358.4082 931.9819 358.2939 931.9819 358.2939 931.9819 358.2743 891.8135 358.2743 891.8135 358.2939 703.8578 358.2939 703.8578 130.1692 663.6885 130.1692 663.6885 358.2939 663.6885 398.4623 703.8578 398.4623 891.8135 398.4623 891.8135 463.5025 891.8135 503.6712 891.8135 668.6085 790.4742 825.9126 820.7788 845.4355 912.9108 706.3609 1003.7464 845.4355 1034.051 825.9126 932.54 668.3432 932.2431 503.6712 1119.9376 503.6712 1160.1072 503.6712 1160.1072 463.5025 1160.1072 235.3778 1119.9376 235.3778" style="fill: #a8a7a7;"/>
      <path d="M844.3974,857.697h-81.3671c0-21.0469,17.0616-38.1085,38.1084-38.1085h5.1499c21.0469,0,38.1088,17.0616,38.1088,38.1085h0Z" style="fill: #685d4a;"/>
      <path d="M1061.4947,857.697h-81.3671c0-21.0469,17.0619-38.1085,38.1087-38.1085h5.1499c21.0466,0,38.1085,17.0616,38.1085,38.1085h0Z" style="fill: #685d4a;"/>
      <rect x="507.1224" y="14.1573" width="355.3371" height="180.7585" rx="24.9901" ry="24.9901" style="fill: #827e79;"/>
      <rect x="969.0607" y="101.8984" width="355.3373" height="242.1866" rx="28.9262" ry="28.9262" style="fill: #827e79;"/>
      <path d="M718.22,239.2606h14.377c10.221,0,18.5191,8.2981,18.5191,18.5191v5.8733h-51.4161v-5.8724c0-10.2215,8.2985-18.52,18.52-18.52Z" transform="translate(182.3827 -291.287) rotate(25.8667)" style="fill: #a5957c;"/>
      <path d="M441.8936,255.9778h14.3754c10.2216,0,18.5203,8.2986,18.5203,18.5203v5.8721h-51.4157v-5.8724c0-10.2215,8.2985-18.52,18.52-18.52Z" transform="translate(-73.6764 285.941) rotate(-32.7906)" style="fill: #a5957c;"/>
      <path d="M312.4394,500.676h14.3739c10.2219,0,18.5209,8.2989,18.5209,18.5209v5.8717h-51.4153v-5.872c0-10.2217,8.2988-18.5205,18.5205-18.5205Z" transform="translate(-185.0048 845.3572) rotate(-91.448)" style="fill: #a5957c;"/>
      <path d="M454.0925,738.5205h14.3753c10.2213,0,18.5196,8.2984,18.5196,18.5196v5.8727h-51.4158v-5.8715c0-10.2219,8.2989-18.5208,18.5208-18.5208Z" transform="translate(487.0218 1631.4504) rotate(-150.1054)" style="fill: #a5957c;"/>
      <path d="M730.9108,741.2549h14.3745c10.2216,0,18.5203,8.2987,18.5203,18.5203v5.8721h-51.4154v-5.8718c0-10.2218,8.2988-18.5205,18.5205-18.5205Z" transform="translate(1747.6768 1058.7829) rotate(151.2374)" style="fill: #a5957c;"/>
      <path d="M877.2337,506.2544h14.3756c10.2215,0,18.5201,8.2986,18.5201,18.5201v5.8723h-51.416v-5.8721c0-10.2217,8.2987-18.5204,18.5204-18.5204Z" transform="translate(1442.1557 -341.7381) rotate(92.5798)" style="fill: #a5957c;"/>
      <circle cx="602.1221" cy="505.7309" r="274.7531" transform="translate(-181.2482 573.8898) rotate(-45)" style="fill: #c6bdb0;"/>
      <polygon points="113.0747 344.735 329.1287 128.681 303.8676 103.4199 77.5602 329.7273 77.3506 329.7273 77.3506 329.9369 77.3506 329.9372 77.3506 329.9375 77.3506 696.5945 26.2199 775.9618 49.8567 791.1898 95.2565 720.7184 140.6558 791.1898 164.2934 775.9618 113.0747 696.4581 113.0747 344.735" style="fill: #a8a7a7;"/>
      <path d="M191.6296,800.7537h-81.3671c0-21.0468,17.0619-38.1084,38.1088-38.1084h5.1499c21.0468,0,38.1084,17.0616,38.1084,38.1084h0Z" style="fill: #685d4a;"/>
      <path d="M81.3671,800.7537H0c0-21.0468,17.0617-38.1084,38.1085-38.1084h5.1499c21.0468,0,38.1087,17.0616,38.1087,38.1084h0Z" style="fill: #685d4a;"/>
      <path d="M463.4838,217.3716L105.6566,43.8777l53.7053,3.9841c51.7781,3.841,102.3616,17.4466,149.0803,40.0984h.0003c53.8945,26.131,101.4347,63.7125,139.3005,110.1197l15.7408,19.2917Z" style="fill: #c6bdb0;"/>
      <path d="M1059.9653,352.3766h0c-7.9552,0-14.4044-6.4489-14.4044-14.4043V108.8988c0-7.9552,6.4492-14.4043,14.4044-14.4043h0c7.9554,0,14.4043,6.4491,14.4043,14.4043v229.0735c0,7.9554-6.4489,14.4043-14.4043,14.4043Z" style="fill: #a5957c;"/>
      <path d="M1233.4935,352.3766h0c-7.9552,0-14.4044-6.4489-14.4044-14.4043V108.8988c0-7.9552,6.4492-14.4043,14.4044-14.4043h0c7.9551,0,14.4043,6.4491,14.4043,14.4043v229.0735c0,7.9554-6.4492,14.4043-14.4043,14.4043Z" style="fill: #a5957c;"/>
      <path d="M783.2276,205.3597h0c-7.9552,0-14.4041-6.4489-14.4041-14.4043V14.4041c0-7.9552,6.4489-14.4041,14.4041-14.4041h0c7.9555,0,14.4044,6.4489,14.4044,14.4041v176.5513c0,7.9554-6.4489,14.4043-14.4044,14.4043Z" style="fill: #a5957c;"/>
      <path d="M596.4439,205.3597h0c-7.9552,0-14.4044-6.4489-14.4044-14.4043V14.4041c0-7.9552,6.4492-14.4041,14.4044-14.4041h0c7.9554,0,14.4044,6.4489,14.4044,14.4041v176.5513c0,7.9554-6.449,14.4043-14.4044,14.4043Z" style="fill: #a5957c;"/>
    </g>
  </g>
</svg>