<?xml version="1.0" encoding="UTF-8"?>
<svg id="uuid-bc1421ac-b1ee-4bbe-9bc1-b7116a3ab6f9" data-name="Ebene 2" xmlns="http://www.w3.org/2000/svg" viewBox="0 0 361.4226 1137.7512">
  <g id="uuid-8a2dcbc2-a703-4838-84ed-63c78d98a5db" data-name="ŕđ 1">
    <g>
      <path d="M336.0041,932.6082c-17.2517-52.4083-20.001-108.5077-7.9569-162.3516l12.5343-43.8587c7.5449-26.7277-4.8044-43.6363-17.6464-53.5025-8.731-6.7079-21.3135-.7283-21.7211,10.2747-1.6543,44.6634-16.6735,71.0231-45.0034,72.4114-32.6863,1.602-61.4818-43.9906-64.3165-101.8337-1.3528-27.6003-49.9367-38.1455-49.0064-19.1627,2.1081,43.0136-15.887,78.8488-40.1934,80.0402-24.3062,1.1912-45.719-32.7127-47.827-75.7263-.0077-.1566-.0151-.3127-.0223-.4691-.7979-17.4703-22.7982-24.4503-33.3852-10.5303-19.8213,26.0623-27.4885,61.2198-16.2692,95.7475l20.3306,62.5666c16.8055,51.7184,19.5141,106.9828,7.8464,160.0965l-14.115,64.2549c-14.8045,67.3937,38.484,130.434,107.4018,127.0562l135.1111-6.6217c69.0839-3.3857,115.9648-71.6314,94.3384-137.3303l-20.0998-61.0611Z" style="fill: #72586b;"/>
      <path d="M128.8532,270.5085l6.4374,493.9595c.081,6.2156,5.3029,11.1233,11.5117,10.8191l61.4194-3.0101c6.1089-.2996,10.7943-5.5346,10.4173-11.6389l-30.4604-493.0371-59.3254,2.9075Z" style="fill: #4f4d4c;"/>
      <path d="M128.8532,270.5085l-10.7503-17.8753c-1.871-3.111-4.5422-5.6632-7.7353-7.3907h0c-8.3952-4.5417-12.4912-14.3198-9.8394-23.4889L158.6568,20.7641S168.2315-4.1361,199.1439.5988c30.9124,4.7347,35.9079,25.5117,35.9079,25.5117,0,0,6.2122,22.4217-7.4298,33.8851-5.1678,4.3426-9.7821,8.3318-13.5209,11.6125-6.0915,5.3449-8.6029,13.6793-6.4891,21.5029l23.3202,86.3158c1.8861,6.9813-.551,14.4161-6.2041,18.926h0c-17.9737,14.3391-30.1684,34.6835-34.3426,57.2941l-2.2069,11.9541-59.3254,2.9075Z" style="fill: #b5b499;"/>
      <path d="M101.086,203.9709l-19.8982,4.6167c-4.0796.9463-7.6538-2.8784-6.4336-6.8846l5.9511-19.5407c1.2201-4.0062,6.3194-5.1891,9.179-2.1294l13.947,14.9242c2.8595,3.0597,1.3342,8.0675-2.7453,9.0138Z" style="fill: #898877;"/>
      <path d="M120.5734,136.3127l-19.8982,4.6163c-4.0795.9467-7.6537-2.8781-6.4336-6.8842l5.9511-19.5407c1.2202-4.0062,6.3195-5.1891,9.1788-2.1296l13.9472,14.9244c2.8594,3.0595,1.3341,8.0674-2.7453,9.0138Z" style="fill: #898877;"/>
      <path d="M140.0607,68.6543l-19.8981,4.6165c-4.0796.9465-7.6539-2.8782-6.4337-6.8844l5.9511-19.5407c1.2201-4.0062,6.3194-5.1891,9.179-2.1294l13.9469,14.9242c2.8596,3.0597,1.3343,8.0675-2.7452,9.0138Z" style="fill: #898877;"/>
      <path d="M230.7333,1000.2939l-89.589,4.3909c-8.4419.4137-15.6211-6.0945-16.0349-14.5365h0c-.4137-8.4423,6.0947-15.6212,14.5365-16.0349l89.5892-4.3908c8.4419-.4136,15.6211,6.0945,16.0346,14.5366h0c.4138,8.4421-6.0943,15.6212-14.5364,16.0347Z" style="fill: #493e47;"/>
    </g>
  </g>
</svg>