<?xml version="1.0" encoding="UTF-8"?>
<svg id="uuid-a7a4e26d-bb02-4856-bdc5-d92f37724c3a" data-name="Ebene 2" xmlns="http://www.w3.org/2000/svg" viewBox="0 0 552.2916 593.2955">
  <g id="uuid-118c0581-0ab2-4096-a121-fd9c3bc8a56d" data-name="ŕđ 1">
    <g>
      <path d="M28.0035,584.0186l11.9624-15.0025c1.4343-1.7988,1.2887-4.3879-.338-6.0146l-11.5927-11.5927c-1.6723-1.6723-4.3511-1.7728-6.1442-.2305l-14.3683,12.3594,20.4808,20.4809Z" style="fill: #a8a594;"/>
      <path d="M27.5554,589.9708h0c1.7674-1.7674,1.7674-4.6329,0-6.4003l-19.8296-19.8296c-1.7674-1.7674-4.6329-1.7674-6.4003,0h0c-1.7674,1.7674-1.7674,4.6328,0,6.4002l19.8297,19.8297c1.7674,1.7674,4.6328,1.7674,6.4002,0Z" style="fill: #a8a594;"/>
      <path d="M395.3256,5.4283l118.1595,113.0415c7.8088,7.4704,8.0829,19.8564.6124,27.6651h0c-7.4702,7.8086-19.8564,8.0828-27.665.6124l-8.1319-7.78-105.733-101.153-4.2947-4.1086c-7.8086-7.4704-8.0827-19.8565-.6125-27.665,7.4706-7.8087,19.8567-8.0828,27.6652-.6124Z" style="fill: #a8a594;"/>
      <path d="M205.2916,264.2579c-.9655,0-1.9312-.3686-2.6683-1.1056l-11.761-11.7604c-1.4741-1.4733-1.4741-3.863,0-5.3365,1.4727-1.4742,3.8624-1.4742,5.3366,0l11.761,11.7603c1.4742,1.4735,1.4742,3.8631,0,5.3366-.7364.737-1.7026,1.1056-2.6683,1.1056Z" style="fill: #b29f79;"/>
      <path d="M185.5302,260.4981c-.9657,0-1.9319-.3687-2.6683-1.1058-1.4741-1.4733-1.4741-3.863,0-5.3365l16.0008-16.0007c1.4727-1.4743,3.8639-1.4743,5.3366,0,1.4741,1.4734,1.4741,3.8631,0,5.3364l-16.0008,16.0008c-.7364.7371-1.7028,1.1058-2.6683,1.1058Z" style="fill: #b29f79;"/>
      <path d="M177.5239,292.0256c-.9656,0-1.9319-.3685-2.6683-1.1056l-11.7602-11.761c-1.4743-1.4735-1.4743-3.8631,0-5.3366,1.4727-1.4741,3.8637-1.4741,5.3364,0l11.7604,11.761c1.4741,1.4735,1.4741,3.8631,0,5.3366-.7363.7371-1.7028,1.1056-2.6683,1.1056Z" style="fill: #b29f79;"/>
      <path d="M157.7633,288.265c-.9657,0-1.932-.3685-2.6683-1.1056-1.4743-1.4735-1.4743-3.8632,0-5.3366l16.0008-16.0008c1.4727-1.4741,3.8638-1.4741,5.3364,0,1.4743,1.4735,1.4743,3.8631,0,5.3366l-16.0008,16.0008c-.7363.7371-1.7026,1.1056-2.6681,1.1056Z" style="fill: #b29f79;"/>
      <path d="M149.7569,319.7927c-.9656,0-1.9318-.3687-2.6682-1.1058l-11.7604-11.7603c-1.4741-1.4734-1.4741-3.8631,0-5.3364,1.4727-1.4742,3.8639-1.4742,5.3366,0l11.7603,11.7602c1.4742,1.4735,1.4742,3.8632,0,5.3365-.7364.7371-1.7027,1.1058-2.6683,1.1058Z" style="fill: #b29f79;"/>
      <path d="M129.9963,316.0326c-.9655,0-1.9319-.3684-2.6683-1.1056-1.4741-1.4734-1.4741-3.8631,0-5.3364l16.0008-16.0008c1.4727-1.4742,3.8639-1.4742,5.3366,0,1.4742,1.4733,1.4742,3.863,0,5.3365l-16.0008,16.0007c-.7363.7372-1.7026,1.1056-2.6683,1.1056Z" style="fill: #b29f79;"/>
      <path d="M342.4839,404.0298l-79.6837-79.6837c-12.668-12.6679-12.668-33.2801.0003-45.9484,12.6683-12.6683,33.2806-12.6683,45.9486-.0003l79.6836,79.6837c12.6686,12.6686,12.6686,33.2807.0003,45.949-12.6682,12.6683-33.2806,12.6683-45.9491-.0003ZM273.2273,313.9189l79.6836,79.6837c6.919,6.919,18.1763,6.919,25.0949.0003,6.9186-6.9184,6.9186-18.1759-.0003-25.0947l-79.6837-79.6836c-6.9183-6.9184-18.1756-6.9184-25.0942,0-6.9187,6.9186-6.9187,18.1761-.0003,25.0942Z" style="fill: #917e60;"/>
      <path d="M139.3037,517.712c-8.872-10.1154-15.098-21.9377-18.3931-34.7337l40.3478-40.0304c-20.8103,26.7567-20.1486,70.8923.0948,97.9459l-22.0495-23.1818Z" style="fill: #7f7462;"/>
      <path d="M308.0068,369.6182l6.4185-6.4185c3.5298-3.5296,3.5298-9.2526,0-12.7822l-93.1423-93.1424c-3.5297-3.5298-9.2526-3.5298-12.7824,0l-6.4185,6.4185c-3.5297,3.5297-3.5297,9.2526,0,12.7823l93.1423,93.1423c3.5298,3.5298,9.2526,3.5298,12.7824,0Z" style="fill: #897f6d;"/>
      <path d="M280.2396,397.3855l6.4185-6.4186c3.5298-3.5298,3.5298-9.2525,0-12.7823l-93.1424-93.1424c-3.5296-3.5297-9.2525-3.5297-12.7822,0l-6.4185,6.4185c-3.5298,3.5298-3.5298,9.2527,0,12.7824l93.1424,93.1424c3.5296,3.5298,9.2525,3.5298,12.7822,0Z" style="fill: #897f6d;"/>
      <path d="M198.1807,294.081h9.0771c4.9885,0,9.0385,4.05,9.0385,9.0385v131.7232c0,4.9884-4.05,9.0384-9.0384,9.0384h-9.0772c-4.9885,0-9.0385-4.05-9.0385-9.0385v-131.7232c0-4.9885,4.05-9.0384,9.0384-9.0384Z" transform="translate(606.9725 486.5459) rotate(135)" style="fill: #897f6d;"/>
      <path d="M95.1544,470.7042c-1.9551-23.2873,3.4948-46.1102,15.7594-66.0022h0c8.391-13.2763,18.0118-25.7343,28.7353-37.2094l82.1083-87.8632c17.6391-18.8755,34.4868-38.4751,50.4996-58.7485l75.9415-96.1489c16.0406-21.732,24.6161-48.0717,24.4445-75.0817l-.0753-11.836,105.733,101.1531-11.3492-.0786c-30.3917-.2101-59.8207,10.6512-82.7889,30.5555l-91.5254,81.049c-15.664,13.8709-30.857,28.2647-45.5532,43.1569l-93.1771,94.4197c-8.6848,8.8006-16.4136,18.496-23.0571,28.9239h0c-6.4582,10.4744-10.4939,21.9874-11.9923,33.9489l-23.0626,25.4248c-.2556-1.8772-.481-3.7623-.6405-5.6633Z" style="fill: #b29f79;"/>
      <path d="M142.1907,558.4914c-.0252-.0288-.0508-.0574-.0758-.0861l-4.5569-5.6349-15.8614-19.6146c-8.3443-9.5141-14.8437-20.2158-19.376-31.72l15.1198-15.0119,3.4703-3.4456c3.2951,12.796,9.5211,24.6183,18.3931,34.7337,0,0,21.231,22.2196,22.4495,23.6209,1.1529,1.3259,2.3557,2.6232,3.6166,3.884,29.424,29.424,77.3007,29.4243,106.7247.0003l232.1187-232.1187c29.4239-29.424,29.4236-77.3007-.0003-106.7247-29.424-29.4239-77.3007-29.4242-106.7247-.0003l-232.1187,232.1187c-1.4419,1.442-2.8105,2.9295-4.1111,4.4557l-18.8253-17.9952-.3164.3487c1.5468-1.7783,3.1604-3.5184,4.852-5.21l232.1187-232.1187c39.5702-39.5702,103.9561-39.5699,143.5263.0003,39.5702,39.5702,39.5705,103.9561.0003,143.5263l-232.1187,232.1187c-39.5702,39.5702-103.9561,39.5699-143.5263-.0003-1.6649-1.6649-3.2537-3.3773-4.7784-5.1263Z" style="fill: #b29f79;"/>
      <polygon points="27.7427 551.389 95.7949 476.3675 118.8574 450.9427 142.1167 425.3014 142.4331 424.9527 161.244 442.934 120.9106 482.9783 117.4403 486.4239 102.3206 501.4358 40.1049 563.2059 27.7427 551.389" style="fill: #897f6d;"/>
    </g>
  </g>
</svg>