<?xml version="1.0" encoding="UTF-8"?>
<svg id="uuid-b62406fa-1ff8-4df4-9a42-fc00d158b51d" data-name="Ebene 2" xmlns="http://www.w3.org/2000/svg" viewBox="0 0 832.073 893.5336">
  <g id="uuid-3888630f-8896-463a-b7d2-210929ccaabd" data-name="ŕđ 1">
    <g>
      <rect x="33.274" y="67.5587" width="60.7547" height="628.0169" style="fill: #8e7a6b;"/>
      <rect x="738.0443" y="67.5587" width="60.7547" height="628.0169" style="fill: #8e7a6b;"/>
      <path d="M308.0521,163.9009c-2.0786,0-4.0446-1.243-4.8663-3.2881l-36.6357-91.0981c-1.0802-2.6865.2202-5.7392,2.9077-6.8194,2.6855-1.0855,5.7392.2215,6.8194,2.908l36.636,91.0981c1.0802,2.6865-.2202,5.739-2.908,6.8192-.6399.2587-1.303.3803-1.9531.3803Z" style="fill: #777774;"/>
      <path d="M522.2791,163.9009c-.65,0-1.3132-.1216-1.9531-.3803-2.6878-1.0802-3.9882-4.1327-2.908-6.8192l36.6334-91.0981c1.0776-2.6865,4.129-3.9948,6.8194-2.908,2.6852,1.0802,3.9882,4.1329,2.9077,6.8194l-36.633,91.0981c-.8218,2.0451-2.7877,3.2881-4.8664,3.2881Z" style="fill: #777774;"/>
      <rect x="4.2176" y="695.5756" width="118.8675" height="47.5471" style="fill: #8e7a6b;"/>
      <rect x="708.9879" y="695.5756" width="118.8675" height="47.5471" style="fill: #8e7a6b;"/>
      <rect x="309.7452" y="710.0254" width="38.5692" height="95.8651" transform="translate(878.2188 140.5826) rotate(65.1205)" style="fill: #a0958b;"/>
      <polygon points="293.6586 795.6184 277.4324 760.6286 50.743 876.9161 58.4494 893.5336 293.6586 795.6184" style="fill: #ad9179;"/>
      <rect x="515.1222" y="775.1318" width="38.569" height="95.8651" transform="translate(1245.6243 146.9025) rotate(79.4426)" style="fill: #a0958b;"/>
      <polygon points="490.8188 850.8046 483.7522 812.8885 235.3422 869.4856 238.6984 887.4933 490.8188 850.8046" style="fill: #ad9179;"/>
      <path d="M415.3385,780.171c-28.2894,13.1187-61.8572.8209-74.9763-27.4685-13.119-28.2891-.8209-61.8572,27.4682-74.976,28.2892-13.119,61.8573-.8212,74.9763,27.4682,13.1187,28.2892.8209,61.8573-27.4682,74.9763Z" style="fill: #705c4b;"/>
      <circle cx="602.1932" cy="810.4307" r="56.462" transform="translate(-376.5266 562.3537) rotate(-39.1624)" style="fill: #705c4b;"/>
      <rect width="832.073" height="67.5587" style="fill: #8e7a6b;"/>
      <circle cx="416.0365" cy="381.5673" r="247.6407" style="fill: #d8b398;"/>
      <path d="M416.0368,548.2011c-91.8835,0-166.6354-74.7517-166.6354-166.6328s74.7519-166.6351,166.6354-166.6351,166.6351,74.7516,166.6351,166.6351-74.7516,166.6328-166.6351,166.6328Z" style="fill: #afa7a1;"/>
    </g>
  </g>
</svg>