<?xml version="1.0" encoding="UTF-8"?>
<svg id="uuid-c87113bb-21c8-4961-a321-5349148db974" data-name="Ebene 2" xmlns="http://www.w3.org/2000/svg" viewBox="0 0 335.8874 790.5635">
  <g id="uuid-d9f561a2-c4c1-4218-9ea3-72ebf846979d" data-name="ŕđ 1">
    <g>
      <path d="M252.4713,9.3777c-21.747,62.7851-57.2459,119.9189-103.9029,167.2267l-83.0292,79.115C27.2106,292.5851,0,339.9382,0,395.2825c0,49.6131,21.0974,94.2792,54.781,125.5863l-.0022.0426,94.551,95.6778c48.4213,48.9984,84.8361,108.5458,106.3896,173.9743h0c44.2756,0,80.168-35.8919,80.168-80.1668V80.1683C335.8874,35.8934,299.995-.0001,255.7195,0l-3.2482,9.3777Z" style="fill: #8c7c4f;"/>
      <path d="M51.2783,301.5848c3.6357,0,6.5831,2.9474,6.5831,6.5831.0001,3.6358-2.9473,6.5832-6.5832,6.5832s-6.5831-2.9474-6.5831-6.5831,2.9474-6.5833,6.5832-6.5832Z" style="fill: #474744;"/>
      <path d="M67.3451,280.7758c3.6358-.0001,6.5832,2.9473,6.5832,6.5832s-2.9474,6.5831-6.5831,6.5831-6.5833-2.9474-6.5832-6.5832c0-3.6357,2.9474-6.5831,6.5831-6.5831Z" style="fill: #474744;"/>
      <path d="M89.3849,262.4489c3.6356,0,6.583,2.9474,6.583,6.5831.0002,3.6358-2.9472,6.5832-6.5832,6.5832s-6.583-2.9474-6.583-6.5831,2.9473-6.5833,6.5832-6.5832Z" style="fill: #474744;"/>
      <path d="M112.0277,243.0637c3.5654.7114,5.8793,4.1784,5.168,7.744-.7115,3.5655-4.1784,5.8792-7.744,5.168-3.5655-.7115-5.8792-4.1784-5.168-7.744.7114-3.5654,4.1785-5.8792,7.744-5.168Z" style="fill: #474744;"/>
      <path d="M129.3041,223.7625c3.5655.7114,5.8793,4.1784,5.168,7.7439-.7115,3.5655-4.1784,5.8793-7.7439,5.168s-5.8793-4.1784-5.1681-7.7439c.7114-3.5654,4.1785-5.8793,7.744-5.168Z" style="fill: #474744;"/>
      <path d="M146.5805,204.4612c3.5655.7115,5.8793,4.1784,5.168,7.744s-4.1784,5.8792-7.7439,5.168c-3.5654-.7114-5.8793-4.1785-5.168-7.744.7113-3.5654,4.1784-5.8792,7.7439-5.168Z" style="fill: #474744;"/>
      <path d="M163.8569,185.1599c3.5655.7115,5.8793,4.1785,5.168,7.744-.7113,3.5656-4.1784,5.8793-7.7439,5.168-3.5654-.7114-5.8793-4.1784-5.168-7.7439s4.1784-5.8793,7.7439-5.1681Z" style="fill: #474744;"/>
      <path d="M181.1334,165.8588c3.5654.7114,5.8793,4.1784,5.1679,7.7438-.7113,3.5657-4.1784,5.8793-7.7439,5.168-3.5654-.7113-5.8793-4.1784-5.1679-7.7438.7112-3.5655,4.1783-5.8794,7.7439-5.168Z" style="fill: #474744;"/>
      <path d="M198.4098,146.5575c3.5655.7114,5.8793,4.1785,5.1679,7.7439-.7113,3.5656-4.1784,5.8792-7.7439,5.168-3.5654-.7114-5.8793-4.1784-5.1679-7.7438.7112-3.5656,4.1783-5.8794,7.7439-5.1681Z" style="fill: #474744;"/>
      <path d="M215.6863,127.2563c3.5654.7114,5.8792,4.1784,5.1678,7.7438-.7113,3.5657-4.1783,5.8794-7.7439,5.168-3.5654-.7113-5.8793-4.1784-5.1679-7.7438.7112-3.5655,4.1783-5.8794,7.744-5.168Z" style="fill: #474744;"/>
      <path d="M231.9793,105.5492c3.5863.5982,6.0086,3.9902,5.4104,7.5765-.5981,3.5863-3.9903,6.0085-7.5766,5.4103-3.5861-.5981-6.0085-3.9902-5.4104-7.5765.5983-3.5862,3.9905-6.0086,7.5766-5.4103Z" style="fill: #474744;"/>
      <path d="M247.0913,82.0171c3.586.5982,6.0084,3.9903,5.4102,7.5766-.5983,3.5862-3.9903,6.0085-7.5766,5.4103-3.5862-.5982-6.0084-3.9903-5.4102-7.5766.598-3.5862,3.9903-6.0085,7.5766-5.4103Z" style="fill: #474744;"/>
      <path d="M261.15,58.3774c3.5862.5982,6.0085,3.9902,5.4103,7.5765-.5981,3.5863-3.9903,6.0084-7.5765,5.4104-3.5862-.5982-6.0086-3.9904-5.4103-7.5765.5981-3.5863,3.9903-6.0087,7.5765-5.4104Z" style="fill: #474744;"/>
      <path d="M273.4933,32.0881c3.5863.5981,6.0087,3.9903,5.4104,7.5765-.5982,3.5862-3.9902,6.0085-7.5765,5.4103-3.5863-.5981-6.0084-3.9903-5.4104-7.5764.5982-3.5863,3.9903-6.0087,7.5765-5.4104Z" style="fill: #474744;"/>
      <path d="M312.9838,696.9961c-.9717.9717-2.4095,1.4332-3.8455,1.0935-2.6875-.6353-66.2568-16.1391-103.5849-66.5026-13.805-18.6262-25.7498-36.3966-36.2885-52.0759-17.4308-25.9337-32.4854-48.3319-48.0413-62.6248-21.8617-20.0871-41.2302-30.7283-53.6297-36.1186-13.4176-5.8331-21.7847-6.9407-21.8685-6.9521-2.2419-.2836-3.8364-2.329-3.5584-4.5731.2792-2.2429,2.3172-3.8369,4.5595-3.5652,1.4525.1761,36.1016,4.7941,80.0454,45.1715,16.2716,14.9498,31.5765,37.7205,49.2989,64.0874,10.4895,15.6063,22.3777,33.293,36.0693,51.7673,35.562,47.9801,98.2554,63.2567,98.885,63.4062,2.2039.521,3.5675,2.7295,3.0465,4.9334-.1812.7679-.568,1.4332-1.0878,1.953Z" style="fill: #565654;"/>
      <circle cx="168.8838" cy="388.8976" r="34.5846" style="fill: #514d41;"/>
    </g>
  </g>
</svg>