<?xml version="1.0" encoding="UTF-8"?>
<svg id="uuid-9f7e3f79-9cf1-4388-b9e6-f7d7c4bc68c0" data-name="Ebene 2" xmlns="http://www.w3.org/2000/svg" viewBox="0 0 608.2848 872.7975">
  <g id="uuid-f457a1bd-bdbd-4bb8-82fc-eddb09c88d18" data-name="ŕđ 1">
    <g>
      <g>
        <path d="M249.9907,439.556h-.0002c-99.8734,0-186.306-69.4634-207.7938-166.9981L.6394,83.9241h498.7024l-41.5573,188.6338c-21.4875,97.5347-107.9201,166.9981-207.7938,166.9981Z" style="fill: #bf9562;"/>
        <ellipse cx="249.9748" cy="78.3733" rx="249.9748" ry="78.3733" style="fill: #ddd39e;"/>
        <path d="M147.4615,740.8663l-23.0575,5.3172L.8745,210.5011c-1.4682-6.3672,2.503-12.7191,8.8703-14.1873h0c6.3672-1.4682,12.7188,2.5031,14.1873,8.8701l123.5294,535.6824Z" style="fill: #4c4b4a;"/>
        <path d="M351.8302,741.9557l23.0573,5.3172,123.7806-536.7718c1.4685-6.3672-2.503-12.7191-8.87-14.1873h0c-6.3672-1.4682-12.7191,2.5031-14.1873,8.8701l-123.7806,536.7718Z" style="fill: #4c4b4a;"/>
        <path d="M229.8329,740.7212h23.6625v-465.3578c0-6.5343-5.2972-11.8312-11.8313-11.8312h0c-6.5343,0-11.8312,5.2969-11.8312,11.8312v465.3578Z" style="fill: #4c4b4a;"/>
        <path d="M138.0644,869.629v-.0003c-15.7854-7.6267-22.3993-26.6061-14.7724-42.3915l13.8095-28.5822,57.1642,27.6192-13.8095,28.5821c-7.6269,15.7855-26.6064,22.3994-42.3918,14.7727Z" style="fill: #423f3c;"/>
        <path d="M402.1055,869.629l.0003-.0003c15.7854-7.6267,22.3991-26.6061,14.7724-42.3915l-13.8097-28.5822-57.164,27.6192,13.8095,28.5821c7.6269,15.7855,26.6061,22.3994,42.3915,14.7727Z" style="fill: #423f3c;"/>
        <path d="M114.243,726.1769h279.803l-13.8516,49.8661,46.3841,36.0142,54.2712-16.622-45.2487-59.1003,172.6838,75.7223-93.2677-5.5407-72.9519,36.9377h-241.406c-36.3248,0-67.6378-25.5519-74.9234-61.1387l-11.4928-56.1386Z" style="fill: #706d69;"/>
      </g>
      <path d="M435.601,736.3349h0c6.54-12.9552,22.0315-18.585,35.3632-12.8514l110.2055,47.396c16.4532,7.076,27.115,23.2673,27.115,41.1776h0s-172.6838-75.7222-172.6838-75.7222Z" style="fill: #ddd39e;"/>
    </g>
  </g>
</svg>