<?xml version="1.0" encoding="UTF-8"?>
<svg id="uuid-52f9db58-41c0-41a8-a829-e54563f0edb2" data-name="Ebene 2" xmlns="http://www.w3.org/2000/svg" viewBox="0 0 444.0715 591.3155">
  <g id="uuid-0524c218-5f45-4c2f-984d-42460de0c940" data-name="ŕđ 1">
    <g>
      <path d="M108.1245,0C48.4092,0,0,62.4142,0,139.4065c0,58.9529,28.3968,109.3212,68.5045,129.7056,12.2729,6.2369,25.6289,9.7012,39.62,9.7012s27.347-3.4643,39.6197-9.7012c40.1083-20.3844,68.5047-70.7527,68.5047-129.7056C216.2489,62.4142,167.8401,0,108.1245,0Z" style="fill: #726049;"/>
      <path d="M122.9168,298.7352c-4.5869,1.1607-9.5656,1.8197-14.7923,1.8197s-10.2055-.659-14.7923-1.8197l-19.7432,255.2704c-.8625,11.1467,3.7088,22.0245,12.2741,29.2096,12.8759,10.8004,31.647,10.8004,44.5228,0,8.5657-7.1851,13.1366-18.0629,12.2748-29.2096l-19.7439-255.2704Z" style="fill: #726049;"/>
      <path d="M147.7442,269.1121c-12.2727,6.2369-25.6287,9.7012-39.6197,9.7012s-27.3471-3.4643-39.62-9.7012c-.5669,1.7369-.8744,3.536-.8744,5.3825,0,11.0293,10.6627,20.4364,25.7021,24.2406,4.5868,1.1607,9.5657,1.8197,14.7923,1.8197s10.2054-.659,14.7923-1.8197c15.0395-3.8042,25.7024-13.2119,25.7024-24.2406,0-1.8465-.3075-3.6456-.875-5.3825Z" style="fill: #ddd39e;"/>
      <path d="M245.6756,13.0818c-57.0731,17.5664-84.9801,91.4594-62.3314,165.0451,17.3421,56.3445,59.2992,96.1306,103.6287,103.8145,13.5646,2.3509,27.3487,1.7329,40.7208-2.383,13.372-4.1157,25.118-11.3553,35.0129-20.9267,32.3372-31.2809,44.6604-87.774,27.3183-144.1184C367.3761,40.9275,302.7489-4.4847,245.6756,13.0818Z" style="fill: #9b805c;"/>
      <path d="M347.6918,294.2476c-4.0424,2.4586-8.6068,4.5532-13.6025,6.0906-4.9952,1.5375-9.9477,2.3722-14.673,2.6121l56.2228,249.7835c2.4548,10.9072,10.0237,19.959,20.3236,24.3065,15.4834,6.535,33.424,1.0132,42.5528-13.0971,6.0733-9.387,7.2418-21.1281,3.139-31.528l-93.9627-238.1676Z" style="fill: #9b805c;"/>
      <path d="M362.7066,258.6317c-9.8949,9.5714-21.6409,16.811-35.0129,20.9267-13.3721,4.1159-27.1562,4.7339-40.7208,2.383-.0307,1.8271.2046,3.637.7477,5.4017,3.2444,10.5413,16.2026,16.3955,31.6957,15.6072,4.7253-.2399,9.6778-1.0746,14.673-2.6121,4.9957-1.5374,9.5601-3.632,13.6025-6.0906,13.2552-8.0602,20.6786-20.1882,17.4344-30.7289-.5431-1.7647-1.3662-3.3938-2.4196-4.887Z" style="fill: #ddd39e;"/>
    </g>
  </g>
</svg>