<?xml version="1.0" encoding="UTF-8"?>
<svg id="uuid-b7156700-0eb2-40f2-a2f1-055a89a31262" data-name="Ebene 2" xmlns="http://www.w3.org/2000/svg" viewBox="0 0 516.1404 516.1518">
  <g id="uuid-655e5484-53cf-408b-99c6-e4fd90abb729" data-name="ŕđ 1">
    <g>
      <polygon points="453.2119 92.7849 423.3555 62.9286 463.9406 22.3434 493.8084 52.2112 453.2119 92.7849" style="fill: #5a6368;"/>
      <polygon points="516.1404 21.8668 494.2735 0 463.9406 22.3434 493.7969 52.1997 516.1404 21.8668" style="fill: #677984;"/>
      <polygon points="495.5528 1.2793 477.9315 25.2742 490.821 38.1637 514.8612 20.5877 495.5528 1.2793" style="fill: #5a6368;"/>
      <path d="M473.3414,171.1112L140.3536,504.0989c-16.0706,16.0705-42.1262,16.0705-58.1967,0L12.053,433.995c-16.0707-16.0706-16.0707-42.1261,0-58.1967L345.0407,42.8105c16.0705-16.0705,42.1261-16.0705,58.1968,0l70.1039,70.1039c16.0705,16.0705,16.0705,42.1261,0,58.1968Z" style="fill: #677984;"/>
      <g>
        <rect x="74.7909" y="360.3945" width="35.4036" height="126.5291" transform="translate(-272.4822 189.4898) rotate(-45.0001)" style="fill: #fff;"/>
        <path d="M124.7098,481.6891c-.1991,0-.3983-.0761-.5502-.228l-89.4693-89.4693c-.1458-.1458-.228-.3435-.228-.5502s.0822-.4044.228-.5502l25.035-25.0342c.304-.304.7965-.304,1.1005,0l89.4692,89.469c.146.146.228.3436.228.5504s-.082.4043-.228.5503l-25.035,25.0342c-.1519.1519-.3511.228-.5502.228ZM36.3412,391.4416l88.3686,88.3686,23.9345-23.9336-88.3687-88.3687-23.9344,23.9337Z" style="fill: #1d1d1b;"/>
      </g>
      <g>
        <rect x="99.825" y="335.3604" width="35.4036" height="126.5291" transform="translate(-247.4472 199.8578) rotate(-44.9999)" style="fill: #fff;"/>
        <path d="M149.7448,456.6549c-.2067,0-.4044-.0822-.5502-.228l-89.4693-89.4693c-.304-.304-.304-.7964,0-1.1004l25.0335-25.0342c.2918-.2919.8086-.2919,1.1004,0l89.4692,89.469c.304.3042.304.7967,0,1.1007l-25.0334,25.0342c-.1458.1458-.3435.228-.5502.228ZM61.3762,366.4074l88.3686,88.3686,23.933-23.9336-88.3688-88.3687-23.9328,23.9337Z" style="fill: #1d1d1b;"/>
      </g>
      <g>
        <rect x="124.8591" y="310.3263" width="35.4035" height="126.5292" transform="translate(-222.4136 210.228) rotate(-45)" style="fill: #fff;"/>
        <path d="M174.7782,431.6207c-.1991,0-.3983-.0761-.5502-.228l-89.4692-89.4693c-.304-.304-.304-.7964,0-1.1004l25.0334-25.0342c.2918-.2919.8087-.2919,1.1006,0l89.4706,89.4698c.1459.146.2281.3435.2281.5504,0,.2067-.0822.4042-.2281.5502l-25.035,25.0335c-.1519.1519-.3511.228-.5502.228ZM86.4096,341.3732l88.3686,88.3686,23.9345-23.9328-88.3703-88.3696-23.9328,23.9338Z" style="fill: #1d1d1b;"/>
      </g>
      <g>
        <rect x="149.8932" y="285.2923" width="35.4036" height="126.5291" transform="translate(-197.3795 220.5975) rotate(-45)" style="fill: #fff;"/>
        <path d="M199.8132,406.5873c-.2067,0-.4044-.0822-.5502-.2281l-89.4708-89.47c-.1459-.1458-.2281-.3435-.2281-.5502s.0822-.4044.2281-.5502l25.035-25.0342c.3039-.304.7964-.304,1.1004,0l89.4692,89.4698c.304.3042.304.7966,0,1.1006l-25.0334,25.0342c-.146.1459-.3435.2281-.5502.2281ZM111.443,316.339l88.3702,88.3694,23.933-23.9336-88.3688-88.3696-23.9344,23.9338Z" style="fill: #1d1d1b;"/>
      </g>
      <g>
        <rect x="174.9273" y="260.2583" width="35.4035" height="126.529" transform="translate(-172.3455 230.967) rotate(-45)" style="fill: #fff;"/>
        <path d="M224.8466,381.5531c-.1991,0-.3983-.0762-.5502-.2281l-89.4692-89.47c-.304-.304-.304-.7964,0-1.1004l25.0334-25.0335c.304-.3039.7964-.3039,1.1004,0l89.4708,89.4691c.1459.146.2281.3437.2281.5504s-.0822.4042-.2281.5502l-25.035,25.0342c-.1519.1519-.3511.2281-.5502.2281ZM136.478,291.3048l88.3686,88.3694,23.9344-23.9336-88.3702-88.3688-23.9328,23.933Z" style="fill: #1d1d1b;"/>
      </g>
      <g>
        <rect x="199.9613" y="235.2243" width="35.4035" height="126.529" transform="translate(-147.3113 241.3357) rotate(-44.9999)" style="fill: #fff;"/>
        <path d="M249.8816,356.5189c-.2067,0-.4044-.0822-.5502-.2281l-89.4708-89.4692c-.1459-.1459-.2281-.3435-.2281-.5502s.0822-.4044.2281-.5503l25.035-25.0342c.3039-.304.7964-.304,1.1004,0l89.4692,89.4693c.304.304.304.7964,0,1.1004l-25.0334,25.0342c-.146.1459-.3435.2281-.5502.2281ZM161.5114,266.2714l88.3702,88.3686,23.933-23.9336-88.3688-88.3688-23.9344,23.9338Z" style="fill: #1d1d1b;"/>
      </g>
      <g>
        <rect x="224.9954" y="210.1903" width="35.4035" height="126.529" transform="translate(-122.2774 251.7066) rotate(-45.0001)" style="fill: #fff;"/>
        <path d="M274.915,331.4847c-.2067,0-.4044-.0822-.5502-.2281l-89.4692-89.4692c-.304-.304-.304-.7965,0-1.1005l25.0334-25.0342c.2918-.2918.8086-.2918,1.1004,0l89.4693,89.4693c.304.304.304.7964,0,1.1004l-25.0335,25.0342c-.146.1459-.3435.2281-.5502.2281ZM186.5462,241.2372l88.3688,88.3686,23.933-23.9336-88.3688-88.3688-23.933,23.9338Z" style="fill: #1d1d1b;"/>
      </g>
      <g>
        <rect x="250.0294" y="185.1562" width="35.4035" height="126.5291" transform="translate(-97.2433 262.0745) rotate(-44.9999)" style="fill: #fff;"/>
        <path d="M299.9484,306.4505c-.199,0-.3983-.0762-.5502-.2281l-89.4692-89.4692c-.304-.304-.304-.7965,0-1.1005l25.0334-25.0342c.2919-.2918.8086-.2918,1.1005,0l89.4708,89.4699c.1458.146.228.3437.228.5504s-.0822.4042-.228.5502l-25.035,25.0334c-.1519.1519-.3512.2281-.5503.2281ZM211.5798,216.203l88.3686,88.3686,23.9344-23.9328-88.3702-88.3696-23.9328,23.9338Z" style="fill: #1d1d1b;"/>
      </g>
      <g>
        <rect x="275.0635" y="160.122" width="35.4036" height="126.5291" transform="translate(-72.209 272.4462) rotate(-45.0002)" style="fill: #fff;"/>
        <path d="M324.9834,281.417c-.2067,0-.4044-.0822-.5502-.228l-89.4708-89.47c-.1458-.1459-.228-.3435-.228-.5502s.0822-.4044.228-.5503l25.035-25.0342c.304-.304.7965-.304,1.1004,0l89.4693,89.47c.304.304.304.7965,0,1.1005l-25.0334,25.0342c-.146.1458-.3436.228-.5503.228ZM236.6132,191.1688l88.3702,88.3694,23.933-23.9336-88.3688-88.3696-23.9344,23.9338Z" style="fill: #1d1d1b;"/>
      </g>
      <g>
        <rect x="300.0976" y="135.0879" width="35.4035" height="126.5291" transform="translate(-47.1753 282.8135) rotate(-44.9999)" style="fill: #fff;"/>
        <path d="M350.0168,256.3828c-.199,0-.3983-.0761-.5502-.228l-89.4692-89.47c-.304-.304-.304-.7965,0-1.1005l25.0334-25.0342c.2919-.2918.8086-.2918,1.1005,0l89.4708,89.47c.1458.1459.228.3436.228.5503s-.0822.4042-.228.5502l-25.035,25.0342c-.1521.1519-.3512.228-.5503.228ZM261.6481,166.1346l88.3687,88.3694,23.9344-23.9336-88.3702-88.3696-23.9329,23.9338Z" style="fill: #1d1d1b;"/>
      </g>
      <g>
        <rect x="325.1317" y="110.0538" width="35.4035" height="126.5292" transform="translate(-22.1413 293.1829) rotate(-44.9999)" style="fill: #fff;"/>
        <path d="M375.0518,231.3486c-.2067,0-.4044-.0822-.5502-.228l-89.4708-89.47c-.1458-.1459-.228-.3435-.228-.5502s.0822-.4044.228-.5503l25.035-25.0334c.304-.304.7965-.304,1.1004,0l89.4693,89.4692c.304.304.304.7965,0,1.1005l-25.0334,25.0342c-.146.1458-.3436.228-.5503.228ZM286.6816,141.1004l88.3702,88.3694,23.9328-23.9336-88.3686-88.3688-23.9344,23.933Z" style="fill: #1d1d1b;"/>
      </g>
      <g>
        <rect x="350.1658" y="85.0198" width="35.4035" height="126.5291" transform="translate(2.8933 303.5538) rotate(-45.0001)" style="fill: #fff;"/>
        <path d="M400.0853,206.3144c-.2068,0-.4044-.0822-.5503-.228l-89.4692-89.4692c-.304-.304-.304-.7965,0-1.1005l25.0334-25.0342c.2919-.2918.8086-.2918,1.1005,0l89.4692,89.4692c.304.304.304.7965,0,1.1005l-25.0334,25.0342c-.146.1458-.3435.228-.5502.228ZM311.7165,116.0669l88.3688,88.3687,23.9329-23.9336-88.3688-88.3688-23.9329,23.9337Z" style="fill: #1d1d1b;"/>
      </g>
      <g>
        <rect x="375.1998" y="59.9858" width="35.4035" height="126.529" transform="translate(27.9271 313.9225) rotate(-45)" style="fill: #fff;"/>
        <path d="M425.1187,181.2802c-.1991,0-.3983-.0759-.5503-.228l-89.4692-89.4692c-.146-.1459-.228-.3436-.228-.5503s.082-.4044.228-.5502l25.035-25.0342c.304-.304.7965-.304,1.1004,0l89.4693,89.4692c.1458.1459.228.3436.228.5503s-.0822.4042-.228.5502l-25.035,25.0342c-.1521.1521-.3511.228-.5502.228ZM336.7499,91.0327l88.3688,88.3687,23.9343-23.9336-88.3686-88.3688-23.9345,23.9337Z" style="fill: #1d1d1b;"/>
      </g>
      <rect x="77.8051" y="355.1318" width="19.3213" height="76.8457" transform="translate(-252.6678 177.1184) rotate(-45.0002)" style="fill: #1d1d1b;"/>
      <rect x="102.8174" y="330.1194" width="19.3214" height="76.8457" transform="translate(-227.6547 187.4777) rotate(-45)" style="fill: #1d1d1b;"/>
      <rect x="152.8964" y="280.0404" width="19.3214" height="76.8457" transform="translate(-177.5757 208.2211) rotate(-45)" style="fill: #1d1d1b;"/>
      <rect x="177.9088" y="255.0281" width="19.3212" height="76.8457" transform="translate(-152.5633 218.5814) rotate(-45)" style="fill: #1d1d1b;"/>
      <rect x="202.9537" y="229.9832" width="19.3213" height="76.8457" transform="translate(-127.5184 228.9554) rotate(-45)" style="fill: #1d1d1b;"/>
      <rect x="253.0273" y="179.9096" width="19.3213" height="76.8457" transform="translate(-77.4446 249.6988) rotate(-45.0004)" style="fill: #1d1d1b;"/>
      <rect x="278.0396" y="154.8973" width="19.3213" height="76.8457" transform="translate(-52.433 260.0544) rotate(-44.9996)" style="fill: #1d1d1b;"/>
      <rect x="303.0845" y="129.8523" width="19.3214" height="76.8457" transform="translate(-27.3876 270.4309) rotate(-45)" style="fill: #1d1d1b;"/>
      <rect x="353.1581" y="79.7788" width="19.3213" height="76.8456" transform="translate(22.6847 291.1695) rotate(-44.9996)" style="fill: #1d1d1b;"/>
    </g>
  </g>
</svg>