<?xml version="1.0" encoding="UTF-8"?>
<svg id="uuid-55899be8-2bef-4605-9a01-d6bc4afce6bb" data-name="Ebene 2" xmlns="http://www.w3.org/2000/svg" viewBox="0 0 728.342 528.7461">
  <g id="uuid-b4e9042a-d8a3-4db8-a49d-f6e07a48e42a" data-name="ŕđ 1">
    <g>
      <path d="M396.4888,122.6031c-.3472-.2802-.6295-.6074-.9358-.918L138.85,412.8425c-4.657,5.2825-12.1019,7.1244-18.6856,4.6245-9.6284-3.656-13.7796-14.998-8.7844-24.0051l105.1445-189.6583-141.3056-53.6559L3.8713,400.5341c-14.3192,50.2518,12.2048,103.1018,61.0538,121.6505h0c42.2484,16.0424,90.0074,1.953,116.7831-34.4503l248.6421-338.0384c-.3214-.2085-.6576-.3831-.9631-.6287l-32.8984-26.4641Z" style="fill: #ccc893;"/>
      <path d="M443.6943,131.1498l-33.1195-26.2026c-4.9804-3.9402-12.2304-2.9993-16.0409,2.0813l-.0003.0008c-3.3847,4.5128-2.846,10.7274,1.0194,14.6558.3063.3106.5886.6378.9358.918l32.8984,26.4641c.3055.2456.6417.4202.9631.6287,4.7062,3.0537,11.0175,2.2474,14.724-2.1196l.2229-.2611c4.1356-4.8717,3.4091-12.2003-1.6029-16.1654Z" style="fill: #84806e;"/>
      <path d="M443.6943,131.1498l43.699-56.9224c30.1911-39.3266,84.3978-51.0458,128.1376-27.7023l60.2452,32.152,14.2055-19.518-80.0418-44.4345c-49.0838-27.2486-110.5997-15.8284-146.6329,27.2217l-52.7321,63.0009,33.1195,26.2026Z" style="fill: #ccc893;"/>
      <polygon points="640.0994 59.637 728.342 116.1889 704.9552 63.7125 684.8389 51.8276 640.0994 59.637" style="fill: #84806e;"/>
      <path d="M216.5248,203.8034l-141.3069-53.6562c-9.0783-3.4471-13.6431-13.6012-10.196-22.6795h0c3.4472-9.0782,13.6011-13.6433,22.6794-10.1959l141.3068,53.6562c9.0783,3.4471,13.6432,13.601,10.196,22.6795h0c-3.4472,9.0782-13.601,13.6431-22.6793,10.1959Z" style="fill: #84806e;"/>
      <path d="M284.1571,259.5342c-4.8109,5.6301-11.954,7.4231-15.9543,4.0048-4.0004-3.4184-3.3432-10.7536,1.4678-16.3838,4.8111-5.6299,11.9541-7.423,15.9543-4.0046,4.0005,3.4183,3.3433,10.7536-1.4678,16.3836Z" style="fill: #9b946f;"/>
      <path d="M382.3573,143.8949c-3.0998,3.6274-7.7022,4.7827-10.2797,2.5802-2.5774-2.2024-2.154-6.9287.9458-10.5562s7.7021-4.7827,10.2795-2.5803c2.5775,2.2025,2.1542,6.9286-.9456,10.5563Z" style="fill: #9b946f;"/>
      <path d="M365.0664,162.5807c-3.0998,3.6275-7.7022,4.7828-10.2796,2.5804-2.5775-2.2026-2.154-6.9287.9458-10.5563,3.0998-3.6275,7.702-4.7828,10.2795-2.5802,2.5774,2.2024,2.1541,6.9286-.9457,10.5561Z" style="fill: #9b946f;"/>
      <path d="M347.5397,180.9883c-3.0998,3.6275-7.702,4.7828-10.2796,2.5802-2.5775-2.2024-2.154-6.9286.9458-10.5561,3.0998-3.6277,7.7022-4.7828,10.2796-2.5804,2.5775,2.2026,2.154,6.9287-.9458,10.5563Z" style="fill: #9b946f;"/>
      <path d="M251.5146,295.6724c-4.8109,5.6301-11.9541,7.423-15.9543,4.0047-4.0003-3.4184-3.3431-10.7537,1.4678-16.3836,4.8111-5.6302,11.954-7.4232,15.9545-4.0048,4.0002,3.4183,3.3431,10.7536-1.468,16.3837Z" style="fill: #9b946f;"/>
      <path d="M217.3859,333.6103c-4.811,5.6302-11.954,7.423-15.9544,4.0047-4.0003-3.4184-3.3431-10.7536,1.468-16.3836,4.8109-5.6301,11.954-7.4232,15.9543-4.0048,4.0004,3.4183,3.3432,10.7536-1.4679,16.3837Z" style="fill: #9b946f;"/>
      <path d="M165.6503,273.7539c-4.1079,10.8185-16.2083,16.2586-27.0268,12.1507-10.8185-4.1081-16.2585-16.2085-12.1505-27.027,4.1079-10.8185,16.2082-16.2584,27.0268-12.1505,10.8185,4.1079,16.2586,16.2083,12.1505,27.0268Z" style="fill: #9b946f;"/>
      <circle cx="113.5525" cy="323.9348" r="20.7193" transform="translate(-226.0888 373.6515) rotate(-79.0101)" style="fill: #9b946f;"/>
      <path d="M102.8784,386.3146c-3.794,9.9917-14.9695,15.0159-24.9612,11.2219-9.9918-3.7941-15.0161-14.9695-11.222-24.9612,3.794-9.9917,14.9696-15.0159,24.9613-11.2221,9.9917,3.7941,15.016,14.9697,11.2219,24.9614Z" style="fill: #9b946f;"/>
    </g>
  </g>
</svg>