<?xml version="1.0" encoding="UTF-8"?>
<svg id="uuid-7ff5e5d5-48a9-4af2-95a2-6e4a20283de6" data-name="Ebene 2" xmlns="http://www.w3.org/2000/svg" viewBox="0 0 296.6106 921.0156">
  <g id="uuid-dcb9f8b9-5149-4a0a-86da-78bbb04a2037" data-name="ŕđ 1">
    <g>
      <polygon points="123.9679 136.1411 126.2883 15.4706 183.9162 0 171.1523 136.141 123.9679 136.1411" style="fill: #827c54;"/>
      <path d="M185.5878,682.7153l-37.2818,38.214-37.2456-38.5238C46.7751,699.4734-.0001,759.4244,0,816.3216c-.0001,67.2144,65.2686,104.694,147.5775,104.694s149.0331-38.5012,149.0331-105.7154c0-56.4855-47.1294-115.2559-111.0228-132.5849Z" style="fill: #a8a5a1;"/>
      <polygon points="171.1523 136.141 123.9679 136.1411 111.0537 682.398 111.0604 682.4055 148.306 720.9293 185.5878 682.7153 185.5958 682.7073 171.1523 136.141" style="fill: #4f4d48;"/>
      <path d="M178.9126,801.7105c-.0002,16.9038-13.7035,30.6072-30.6073,30.6072s-30.6072-13.7033-30.6072-30.6072,13.7034-30.6072,30.6072-30.6073c16.9039,0,30.6071,13.7034,30.6073,30.6073Z" style="fill: #4f4d48;"/>
      <path d="M108.6793,544.3964c-3.6955,1.4403-7.7668,2.5883-11.5688,3.6147-2.3411.4798-5.4965,1.2075-7.7126,2.0791-4.6815,1.2242-8.6524-1.8676-11.5687-5.6938-.2747-.3952-.2589-.907,0-1.2803,1.2851-1.8429,2.571-2.9489,3.8562-3.8815,2.4009-1.5949,4.9456-2.7211,7.7128-1.8123,1.2849.4091,2.5705.9613,3.8561,1.2156,1.9427.3912,5.8116,1.3557,7.7121,1.9197,2.5713.7837,5.1415,1.5477,7.7127,2.5588.5722.2038.5686,1.0794.0001,1.28h0Z" style="fill: #7f7e60;"/>
      <path d="M109.9529,496.4723c-3.696,1.4415-7.7665,2.5885-11.5689,3.6148-2.3407.4801-5.4964,1.2075-7.712,2.0793-4.6823,1.2239-8.6523-1.8675-11.5691-5.6942-.2755-.3944-.2588-.9066.0004-1.28,1.2849-1.8428,2.5709-2.9489,3.8562-3.8813,2.4009-1.5951,4.9451-2.7204,7.7124-1.8127,1.2853.4092,2.571.9616,3.8562,1.2155,1.9427.3914,5.8117,1.3561,7.7124,1.92,2.5712.7839,5.1413,1.5478,7.7127,2.5589.5721.2037.5681,1.0794-.0003,1.2797h0Z" style="fill: #7f7e60;"/>
      <path d="M111.301,450.1095c-3.695,1.4406-7.7664,2.5882-11.5682,3.6141-2.3412.4802-5.4971,1.2082-7.7132,2.0797-4.6812,1.2245-8.6525-1.8676-11.5687-5.6938-.2747-.3951-.2589-.907,0-1.2803,1.2853-1.8426,2.571-2.9489,3.8563-3.8814,2.4007-1.5951,4.946-2.7206,7.7127-1.8124,1.2849.4091,2.5705.9613,3.8561,1.2157,1.9427.3914,5.8115,1.3559,7.7121,1.9197,2.5713.7836,5.1426,1.5474,7.7128,2.5588.5721.2037.5685,1.0793,0,1.2799h0Z" style="fill: #7f7e60;"/>
      <path d="M112.0542,400.9593c-3.6951,1.4408-7.7662,2.589-11.5682,3.6141-2.3412.4813-5.496,1.2073-7.7128,2.0801-4.6818,1.224-8.6526-1.8679-11.569-5.694-.2747-.3952-.2587-.9068.0004-1.28,1.285-1.843,2.5706-2.9494,3.8563-3.8814,2.4001-1.5952,4.945-2.7214,7.7124-1.8127,1.2852.4093,2.5708.9615,3.8561,1.2156,1.9428.3913,5.8117,1.356,7.7124,1.92,2.5712.7837,5.1421,1.547,7.7127,2.5588.5719.2035.5681,1.0795-.0003,1.2795h0Z" style="fill: #7f7e60;"/>
      <path d="M112.8589,353.3389c-3.696,1.4413-7.7663,2.5894-11.5689,3.6147-2.3415.4806-5.4956,1.2073-7.713,2.0796-4.6815,1.2239-8.6527-1.8678-11.5687-5.6938-.2748-.395-.2587-.9065.0005-1.2799,1.2854-1.8435,2.5705-2.9492,3.8558-3.8816,2.4012-1.5954,4.9451-2.7211,7.7127-1.8125,1.2853.4093,2.5708.9617,3.8562,1.2156,1.9427.3916,5.8118,1.3559,7.7127,1.919,2.5705.7845,5.1418,1.5482,7.7123,2.5599.5726.2029.5683,1.0794.0004,1.279h0Z" style="fill: #7f7e60;"/>
      <path d="M114.6636,305.6277c-3.6958,1.4416-7.7661,2.5891-11.5685,3.6151-2.3417.4807-5.4959,1.207-7.713,2.0796-4.6819,1.2236-8.6521-1.868-11.5688-5.6938-.2752-.3954-.259-.9068.0002-1.2803,1.2855-1.8434,2.5708-2.9488,3.856-3.8814,2.4011-1.5952,4.9451-2.721,7.7126-1.8125,1.2853.4092,2.5707.9615,3.8564,1.2158,1.9427.3914,5.8118,1.3556,7.7127,1.9192,2.5706.7843,5.1415,1.5477,7.712,2.5593.5728.2032.5684,1.0796.0004,1.279h0Z" style="fill: #7f7e60;"/>
      <path d="M115.6544,258.7311c-3.6951,1.4407-7.7669,2.5882-11.5688,3.6147-2.3411.4798-5.4962,1.2078-7.7123,2.0791-4.6817,1.2247-8.6526-1.8677-11.5687-5.6938-.2749-.3951-.2592-.907.0004-1.28,1.2849-1.8428,2.5705-2.9492,3.8558-3.8817,2.4012-1.5951,4.9453-2.7203,7.7126-1.8124,1.2855.4094,2.5709.9617,3.8564,1.2156,1.9425.3916,5.8113,1.3559,7.712,1.9196,2.5712.7839,5.1417,1.5482,7.7126,2.559.5724.204.5684,1.0792,0,1.2799h0Z" style="fill: #7f7e60;"/>
      <path d="M116.5746,210.5356c-3.6949,1.4407-7.766,2.5888-11.5682,3.6141-2.3413.4811-5.4958,1.2071-7.7127,2.08-4.6817,1.2239-8.6528-1.868-11.5689-5.6941-.275-.3951-.2588-.9066.0003-1.28,1.285-1.8428,2.5705-2.9492,3.8561-3.8814,2.4003-1.595,4.9452-2.7212,7.7124-1.8127,1.2854.4094,2.571.9615,3.8563,1.2156,1.9427.3914,5.8117,1.3561,7.7124,1.92,2.5712.7838,5.1421,1.5472,7.7127,2.5587.5719.2036.5681,1.0797-.0004,1.2798h0Z" style="fill: #7f7e60;"/>
      <path d="M117.6517,162.7392c-3.6952,1.441-7.7667,2.589-11.5689,3.6148-2.3408.4803-5.4965,1.2076-7.7121,2.0794-4.6821,1.2238-8.6522-1.8676-11.5691-5.6942-.2747-.3951-.2585-.9066.0005-1.2799,1.285-1.8429,2.5709-2.949,3.8562-3.8815,2.4006-1.5949,4.9456-2.7208,7.7124-1.8127,1.2853.4095,2.5709.9617,3.8562,1.2158,1.9428.3913,5.8117,1.356,7.7124,1.92,2.5713.7836,5.1415,1.5477,7.7126,2.5587.5724.2037.5681,1.0794-.0002,1.2796h0Z" style="fill: #7f7e60;"/>
      <path d="M123.1899,115.2412c-8.0991,3.244-16.353,5.8362-24.7652,7.6774-4.0285.8777-8.1124,3.7932-12.3828,2.1935-5.1513-1.7739-8.8678-4.7001-12.3825-9.8716-.4506-.6855-.4228-1.5475-.0002-2.1929,3.5089-5.1685,7.2331-8.1027,12.3826-9.871,4.2714-1.5996,8.3533,1.3156,12.3832,2.1932,8.4135,1.8422,16.6642,4.4334,24.7651,7.6777.9576.3671.9512,1.8332-.0002,2.1937h0Z" style="fill: #7f7e60;"/>
      <path d="M124.0041,62.4636c-8.0994,3.2438-16.3533,5.836-24.7656,7.6772-4.0287.8778-8.1127,3.7941-12.3826,2.1935-5.1518-1.773-8.8687-4.6992-12.3831-9.8706-.4502-.6865-.422-1.5483.0002-2.1938,3.5092-5.1689,7.2328-8.102,12.3827-9.8711,4.2715-1.5998,8.353,1.3158,12.3828,2.1941,8.4137,1.8416,16.6647,4.4328,24.7656,7.6767.9575.3674.9513,1.8329,0,2.194h0Z" style="fill: #7f7e60;"/>
    </g>
  </g>
</svg>