<?xml version="1.0" encoding="UTF-8"?>
<svg id="uuid-289d6468-9568-4589-945c-03fd83dcfb3c" data-name="Ebene 2" xmlns="http://www.w3.org/2000/svg" viewBox="0 0 540.4228 529.3877">
  <g id="uuid-8eb0c5b9-45a8-4661-b492-607e63ac9db7" data-name="ŕđ 1">
    <g>
      <polygon points="18.5648 479.3617 74.6847 439.681 103.3114 468.3077 68.5909 529.3877 18.5648 479.3617" style="fill: #917653;"/>
      <path d="M0,528.5374l18.5648-49.1757,44.6409,44.6407s-33.8703-19.4152-63.2057,4.535Z" style="fill: #917653;"/>
      <path d="M320.3045,170.2183h0c26.3815-31.8398,40.269-72.1951,39.0679-113.5268l-1.1232-38.6535c-.0582-2.0028,2.0709-3.3199,3.8371-2.3735l.0216.0117c66.616,35.698,119.9699,91.8941,152.1655,160.2717h.0002c1.2815,2.7219-.6743,5.859-3.6823,5.9065l-26.9996.4261c-36.7433.5798-72.3118,13.037-101.3879,35.509l-3.5806,2.7674c-6.5919,5.0947-15.9424,4.4981-21.8335-1.3928l-35.8738-35.874c-3.5466-3.5465-3.8114-9.2096-.6114-13.0718Z" style="fill: #ab7417;"/>
      <path d="M141.5142,343.3157c-.7586,0-1.517-.2895-2.0959-.8686-1.1579-1.1579-1.1579-3.0337,0-4.1917l15.4933-15.4934c1.158-1.158,3.0338-1.158,4.1919,0,1.1578,1.1579,1.1578,3.0339,0,4.1918l-15.4935,15.4933c-.5789.5791-1.3374.8686-2.0958.8686Z" style="fill: #a2650a;"/>
      <path d="M177.8549,306.9748c-.7584,0-1.5169-.2895-2.0958-.8684-1.158-1.158-1.158-3.0339,0-4.1917l15.4933-15.4948c1.1579-1.1581,3.0339-1.1581,4.1918,0,1.158,1.1578,1.158,3.0337,0,4.1917l-15.4934,15.4948c-.5789.5789-1.3375.8684-2.0959.8684Z" style="fill: #a2650a;"/>
      <path d="M214.1957,270.6341c-.7584,0-1.517-.2895-2.0959-.8685-1.1579-1.1579-1.1579-3.0338,0-4.1918l15.4948-15.4948c1.158-1.1579,3.0339-1.1579,4.1917,0,1.1581,1.158,1.1581,3.0339,0,4.1918l-15.4948,15.4948c-.5789.579-1.3373.8685-2.0958.8685Z" style="fill: #a2650a;"/>
      <path d="M166.7589,353.067c-.7584,0-1.5169-.2894-2.0959-.8685l-17.498-17.498c-1.158-1.158-1.158-3.0338,0-4.1919,1.1579-1.1578,3.0337-1.1578,4.1917,0l17.4981,17.4981c1.1579,1.1581,1.1579,3.0339,0,4.1918-.579.5791-1.3375.8685-2.0959.8685Z" style="fill: #a2650a;"/>
      <path d="M202.3991,316.0242c-.7584,0-1.5168-.2894-2.0959-.8684l-16.7975-16.7961c-1.1579-1.1579-1.1579-3.0339,0-4.1918s3.0339-1.158,4.1917,0l16.7977,16.796c1.1578,1.1581,1.1578,3.0339,0,4.1919-.5791.579-1.3376.8684-2.096.8684Z" style="fill: #a2650a;"/>
      <path d="M238.0205,278.9641c-.7584,0-1.5168-.2895-2.0959-.8686l-16.0781-16.078c-1.158-1.158-1.158-3.0339,0-4.1918,1.1579-1.158,3.0339-1.158,4.1918,0l16.0782,16.0781c1.1578,1.158,1.1578,3.0338,0,4.1917-.5791.5791-1.3375.8686-2.096.8686Z" style="fill: #a2650a;"/>
      <path d="M338.7625,236.4755l-19.0596,18.3616c16.4589-.674,33.1371,5.1906,45.675,17.7284,23.7979,23.798,23.7979,62.5228,0,86.3207l-14.4883,14.4884-15.4941,15.4941-20.8467,20.8468-15.4951,15.4949-20.8468,20.8468-15.4941,15.4941-14.4882,14.4884c-23.798,23.7979-62.5228,23.7979-86.3207,0-14.3507-14.3508-19.9842-34.1227-17.0266-52.7827l-20.1665,19.4274c2.1047,17.3421,9.7887,34.1373,23.0994,47.4479,31.6201,31.6201,82.8869,31.6201,114.507,0l117.1533-117.1534c31.6193-31.6191,31.6203-82.8868,0-114.5069-11.5774-11.5776-25.792-18.897-40.708-21.9965Z" style="fill: #a7885c;"/>
      <polygon points="278.2069 446.0572 201.1732 369.0235 185.3901 384.2286 262.7128 461.5513 278.2069 446.0572" style="fill: #9e8b69;"/>
      <polygon points="314.5488 409.7155 238.1933 333.36 222.4094 348.5661 299.0537 425.2104 314.5488 409.7155" style="fill: #9e8b69;"/>
      <polygon points="350.8896 373.3746 275.2124 297.6976 259.4289 312.902 335.3955 388.8687 350.8896 373.3746" style="fill: #9e8b69;"/>
      <path d="M498.0386,178.7098L356.8943,43.0911c-9.9708-9.5805-10.2873-25.43-.7068-35.4009h.0001c9.5805-9.9709,25.43-10.2873,35.4009-.7068l141.1442,135.6187c9.9709,9.5806,10.2872,25.4301.7067,35.401h0c-9.5804,9.9709-25.4299,10.2873-35.4008.7067Z" style="fill: #917653;"/>
      <polygon points="77.7087 442.7041 100.7609 465.7563 124.7108 442.6844 144.8773 423.257 185.3901 384.2286 201.1732 369.0235 222.4094 348.5661 238.1933 333.36 259.4289 312.902 275.2124 297.6976 319.7029 254.8371 338.7625 236.4755 356.7618 219.1357 324.106 186.4799 77.7087 442.7041" style="fill: #ab7417;"/>
    </g>
  </g>
</svg>