<?xml version="1.0" encoding="UTF-8"?>
<svg id="uuid-865a474f-16fa-4392-b774-555402863699" data-name="Ebene 2" xmlns="http://www.w3.org/2000/svg" viewBox="0 0 349.7842 832.4386">
  <g id="uuid-93dfa331-e0bc-4eba-8d81-e63a15a3e7d3" data-name="ŕđ 1">
    <g>
      <path d="M47.8931,497.4554h0c-6.0938,17.4797-5.9441,36.4006.4274,53.9789l.0002.0002,2.1998,6.4292c8.8256,25.7923,3.2273,53.7636-14.9174,74.5333l-6.6393,7.5999h.0179c-10.0586,11.0442-17.9572,23.9806-22.9748,38.3731l-.0002.0002c-8.2013,23.5243-7.9995,48.9885.5754,72.6456h0c17.287,47.6922,65.4554,80.2026,119.4649,80.6302l99.5277.7883c52.6563.417,99.4359-29.7757,117.0236-75.5303h0c9.7919-25.4733,9.5701-53.4683-.6263-79.1v-.0002c-5.2513-13.2004-12.8919-25.151-22.3477-35.505l.0152.0002-7.8234-9.2507c-18.6271-22.0251-23.8503-51.2157-13.8205-77.2372v-.0002s.0004-.0008.0005-.0012h0c7.2759-18.9279,7.1111-39.7295-.4656-58.775h0c-13.6087-34.209-48.7278-57.1971-87.8539-57.507l-73.9537-.5857c-40.1316-.3179-75.5448,23.2749-87.8299,58.5134Z" style="fill: #a06442;"/>
      <path d="M173.449,533.8179c22.2091.176,40.345,17.0112,40.5083,37.6027.1631,20.5916-17.7087,37.1417-39.9178,36.9657-22.2089-.1758-40.3452-17.0111-40.5081-37.6026-.1632-20.5915,17.7086-37.1417,39.9176-36.9658Z" style="fill: #563325;"/>
      <path d="M239.9992,709.1217l.2484,31.3509c.0248,3.1153-2.4808,5.6209-5.5962,5.5962l-119.0502-.9429c-3.1154-.0247-5.6609-2.5703-5.6856-5.6856l-.2484-31.3509c-.0247-3.1154,2.4809-5.621,5.5963-5.5963l119.0501.943c3.1155.0245,5.6611,2.57,5.6856,5.6856Z" style="fill: #824726;"/>
      <path d="M134.5289,153.8768l-12.2369,296.8438c-.3786,9.1879,5.9181,17.5744,15.381,20.4858l27.0512,8.3223c5.6936,1.7515,11.7937,1.9005,17.5236.4281l25.2526-6.4896c9.7667-2.5098,16.3023-10.9228,15.8127-20.3542l-15.5076-298.6558-73.2766-.5804Z" style="fill: #cba580;"/>
      <path d="M232.5562,8.4404l-11.0554-2.4954c-33.8538-7.6417-69.0339-7.9202-102.771-.8139l-11.0171,2.3206c-4.1351.8708-6.9906,4.3309-6.8299,8.2755l3.4411,84.4663c.2182,5.3562,3.6861,10.2465,9.0208,12.3831,6.9065,2.7661,15.9829,9.7223,19.2891,27.1965l2.3261,14.1072,36.3326.2877,36.3327.2878,2.1697-14.5192c1.754-11.738,9.2229-21.7327,19.7313-28.3695,4.8675-3.0742,7.834-8.1438,7.9713-13.6536l2.0205-81.0884c.0982-3.9425-2.8126-7.4481-6.9618-8.3847Z" style="fill: #a06442;"/>
      <path d="M132.8566,50.6744c-.6927.6927-1.6052,1.1787-2.6488,1.3354-2.5937.391-5.0136-1.3951-5.404-3.9895l-2.5784-17.1174c-.391-2.5937,1.3925-5.0148,3.9896-5.4039,2.5936-.3909,5.0135,1.3955,5.4037,3.9897l2.5787,17.1174c.2335,1.5506-.311,3.0384-1.3408,4.0683Z" style="fill: #777774;"/>
      <path d="M137.8432,99.6526c-.6928.6928-1.6052,1.1789-2.6488,1.3355-2.5937.3911-5.0136-1.3952-5.4039-3.9895l-2.5787-17.1174c-.3915-2.5931,1.3921-5.0142,3.9897-5.4038,2.5937-.391,5.0135,1.3952,5.4039,3.9896l2.5785,17.1172c.2335,1.5509-.3108,3.0386-1.3407,4.0684Z" style="fill: #777774;"/>
      <path d="M214.2558,51.314c-1.0122,1.0121-2.4691,1.5571-3.9968,1.3505-2.5996-.3509-4.4226-2.7432-4.071-5.3421l2.3072-17.0793c.3521-2.5997,2.7432-4.4226,5.3421-4.071,2.5995.3509,4.4225,2.7433,4.0708,5.3422l-2.3069,17.0794c-.1443,1.0718-.6356,2.0104-1.3454,2.7203Z" style="fill: #777774;"/>
      <path d="M210.0446,100.2188c-1.0122,1.0121-2.4691,1.5571-3.9968,1.3505-2.5997-.3508-4.4226-2.7433-4.071-5.3421l2.3069-17.078c.3517-2.6004,2.7446-4.4226,5.3424-4.071,2.5995.3509,4.4225,2.7433,4.0708,5.3422l-2.3071,17.0779c-.1442,1.0721-.6355,2.0107-1.3452,2.7205Z" style="fill: #777774;"/>
    </g>
  </g>
</svg>