<?xml version="1.0" encoding="UTF-8"?>
<svg id="uuid-e65f4ac2-4b7b-4fb1-9c77-9d1a950011f7" data-name="Ebene 2" xmlns="http://www.w3.org/2000/svg" viewBox="0 0 309.4433 751.1273">
  <g id="uuid-595e0e49-9d90-4f6b-8648-4cf10ebf5528" data-name="ŕđ 1">
    <g>
      <path d="M282.1056,613.9775s12.2666-191.8315,12.5472-322.9099c.2862-133.7437,2.3811-185.2035,2.3811-185.2035l12.1637-10.6893s.5528,194.2515,0,266.1282c-.553,71.8769-6.6349,205.1252-6.6349,205.1252l-2.2116,29.8566-18.2455,17.6927Z" style="fill: #3d3f2d;"/>
      <path d="M246.646,603.7554l-13.9248-38.8362c-.8756.3384-1.7767.6121-2.705.8104-16.3164,3.4849-34.4271-16.5536-40.4513-44.7575-6.0242-28.204,2.3194-53.893,18.6359-57.3781,2.7348-.5841,5.52-.5044,8.2902.1609l12.4235-52.6574c2.8832-12.2199,3.245-24.8995,1.0637-37.2639v-.0003c-6.7897-38.485-37.0605-68.5349-75.5943-75.0424l-.0241-.004c-17.7797-3.0027-35.9446-2.9069-53.6916.2825l-.0002.0002c-35.8062,6.4351-64.502,33.2852-73.2995,68.5854l-.1702.6829c-3.6019,14.4526-3.6558,29.5617-.1574,44.0397l12.4912,51.6919c3.1528-.9457,6.3372-1.1416,9.4559-.4755,16.3165,3.4851,24.66,29.1742,18.6358,57.3781-6.0241,28.2039-24.1348,48.2424-40.4512,44.7575-.6911-.1477-1.367-.3384-2.0289-.5641l-14.9529,37.5421c-7.7045,19.3433-11.1094,40.1308-9.979,60.9211l.0002.0002c2.3072,42.4325,33.9818,77.4678,75.9676,84.0278v-.0002c33.9358,5.3022,68.5441,4.5243,102.207-2.298l3.8148-.7732c40.6243-8.2331,70.5383-42.8994,72.7361-84.2913h0c1.0199-19.2099-1.7988-38.4305-8.2915-56.5386Z" style="fill: #875f44;"/>
      <polygon points="109.0961 122.2598 103.8176 482.5137 151.3235 482.5138 138.1274 122.2598 109.0961 122.2598" style="fill: #564830;"/>
      <path d="M144.2121,12.933l-8.4523-8.4523c-5.9743-5.9743-15.6606-5.9742-21.635.0001l-8.4523,8.4523c-5.9743,5.9744-5.9745,15.6607-.0001,21.635l6.959,6.9591h-.0001s-3.5353,80.7324-3.5353,80.7324l29.0314.0002-1.6-80.007,7.6847-7.6847c5.9744-5.9743,5.9744-15.6608,0-21.6351Z" style="fill: #825d43;"/>
      <path d="M106.299,74.4331c-3.2596,1.3147-6.8504,2.3606-10.2091,3.298-2.0724.4454-4.8481,1.092-6.806,1.8972-4.0597,1.227-7.9058-2.0008-10.2092-5.1952.0002-.0001,0-1.1677,0-1.1677,2.3005-3.1945,6.1517-6.4222,10.2093-5.1953,1.9481.802,4.7459,1.4507,6.806,1.8972,3.3602.94,6.9442,1.9817,10.2091,3.2983v1.1675h0Z" style="fill: #898877;"/>
      <path d="M105.4968,102.3434c-3.1154,1.3141-6.5432,2.3592-9.7598,3.2978-1.9861.4465-4.6372,1.093-6.5065,1.8974-3.9389,1.2352-7.6039-2.0713-9.7599-5.1951.0001-.0001.0001-1.1677.0001-1.1677,2.1523-3.1242,5.8235-6.4306,9.7598-5.1954,2.9535,1.2418,6.7195,1.834,9.7598,2.8605,2.1689.7155,4.3379,1.4122,6.5065,2.3349v1.1676h0Z" style="fill: #898877;"/>
      <path d="M141.5805,56.795c3.1572-1.3143,6.6316-2.3597,9.8891-3.2981,2.011-.446,4.6975-1.0924,6.5924-1.8973,3.9734-1.2327,7.6912,2.0506,9.8887,5.1953,0,.0001.0001,1.1677.0001,1.1677-2.1945,3.145-5.9177,6.428-9.8888,5.1955-1.8855-.8016-4.5938-1.4499-6.5925-1.8972-3.2588-.9415-6.7268-1.982-9.8887-3.2983l-.0003-1.1676h0Z" style="fill: #898877;"/>
      <path d="M141.8159,88.3625c3.399-1.315,7.1459-2.3622,10.6419-3.298,2.1557-.4444,5.0518-1.0914,7.0944-1.8974,4.1779-1.2184,8.1941,1.9371,10.6419,5.1953-.0002.0001-.0002,1.1677-.0002,1.1677-2.4445,3.2585-6.4662,6.4137-10.6417,5.1955-2.0324-.803-4.9518-1.4519-7.0946-1.8974-3.4975-.9386-7.2376-1.9813-10.6416-3.2982v-1.1675h-.0001Z" style="fill: #898877;"/>
      <path d="M165.9795,553.583c-.88.8801-2.0967,1.425-3.4397,1.4244l-74.5575.0005c-2.6865.0008-4.8646-2.1772-4.8639-4.8639-.0013-2.686,2.178-4.8653,4.864-4.864l74.5574-.0007c2.6872.0002,4.8639,2.1768,4.864,4.864.0007,1.343-.5443,2.5597-1.4243,3.4397Z" style="fill: #565654;"/>
      <polygon points="103.8176 605.8975 151.3236 605.8975 127.5705 730.6009 103.8176 605.8975" style="fill: #564830;"/>
    </g>
  </g>
</svg>