<?xml version="1.0" encoding="UTF-8"?>
<svg id="uuid-d6baba55-e7f6-4392-b3a5-86c8fd00f3db" data-name="Ebene 2" xmlns="http://www.w3.org/2000/svg" viewBox="0 0 391.9773 616.1282">
  <g id="uuid-9dfc430d-359d-4bf7-a242-a8a733e26b3e" data-name="ŕđ 1">
    <g>
      <path d="M41.2374,387.3239l14.1959.8586c15.9426.9643,31.5634-4.9602,42.8573-16.2539l6.7966-6.7965c16.3549-16.3552,42.9666-16.355,59.3218,0l80.0377,80.0379c16.3552,16.3552,16.3552,42.9669.0002,59.3218l-77.9747,77.9746-16.449-16.4491,77.9745-77.9745c7.285-7.285,7.285-19.1388,0-26.4238l-80.0379-80.0377c-7.285-7.285-19.1386-7.2852-26.4236-.0002l-6.7965,6.7965c-15.9985,15.9986-38.1268,24.3908-60.7106,23.0251l-14.196-.8585,1.4043-23.2203Z" style="fill: #898162;"/>
      <path d="M185.4035,7.4905h0c9.9871-9.9873,26.1795-9.9873,36.1666,0l151.1243,151.1243c9.9871,9.9871,9.9871,26.1795,0,36.1665h-.0002c-9.987,9.9871-26.1793,9.9871-36.1663,0L185.4035,43.657c-9.987-9.9873-9.987-26.1795,0-36.1665Z" style="fill: #a8a594;"/>
      <path d="M121.9135,553.2699c-1.1077,0-2.2162-.4227-3.0608-1.2683-1.6912-1.6902-1.6912-4.4314,0-6.1217l47.4787-47.4779c1.6894-1.6911,4.4323-1.6911,6.1218,0,1.6911,1.6901,1.6911,4.4313,0,6.1215l-47.479,47.4781c-.8446.8456-1.9531,1.2683-3.0607,1.2683Z" style="fill: #565654;"/>
      <path d="M84.9731,523.6554c-1.1075,0-2.216-.4229-3.0607-1.2684-1.6911-1.6901-1.6911-4.4315,0-6.1216l51.1418-51.1408c1.6892-1.6911,4.4321-1.6911,6.1215,0,1.6911,1.6901,1.6911,4.4314,0,6.1215l-51.1417,51.1409c-.8447.8455-1.9531,1.2684-3.0609,1.2684Z" style="fill: #565654;"/>
      <path d="M59.1516,482.922c-1.1076,0-2.2161-.4227-3.0608-1.2682-1.691-1.6903-1.691-4.4315,0-6.1217l43.6859-43.685c1.6894-1.6911,4.4322-1.6911,6.1216,0,1.6911,1.6903,1.6911,4.4315,0,6.1216l-43.6858,43.6851c-.8447.8455-1.9532,1.2682-3.0609,1.2682Z" style="fill: #565654;"/>
      <path d="M57.0813,283.434c18.5964-18.5962,40.2912-32.9993,64.4821-42.8092,23.3534-9.4704,48.0232-14.2722,73.3243-14.272,25.3008-.0002,49.9708,4.8016,73.3244,14.272,24.1907,9.8099,45.8857,24.2128,64.4819,42.8092,18.5963,18.5963,32.9994,40.2911,42.8093,64.4821,9.4702,23.3534,14.272,48.0232,14.2722,73.3244-.0002,25.3008-4.802,49.9708-14.2722,73.3244-9.8099,24.1906-24.213,45.8857-42.8094,64.4821-18.5963,18.5964-40.2913,32.9993-64.482,42.8092-23.3535,9.47-48.0235,14.2719-73.3243,14.272-25.3012,0-49.971-4.802-73.3242-14.2721-24.191-9.81-45.8861-24.213-64.4823-42.8093-18.5962-18.5962-32.9994-40.2913-42.8091-64.4821C4.8017,471.2113-.0002,446.5413,0,421.2405c-.0002-25.3012,4.8017-49.971,14.272-73.3244,9.8097-24.1906,24.2129-45.8857,42.8093-64.4821ZM299.0521,525.4052c14.0697-14.0697,24.9576-30.4613,32.3616-48.7195,7.1565-17.6471,10.785-36.3019,10.785-55.4454s-3.6287-37.7979-10.785-55.4452c-7.404-18.2582-18.2919-34.6497-32.3614-48.7193-14.0698-14.0696-30.4613-24.9576-48.7194-32.3616-17.6473-7.1562-36.3017-10.7846-55.4453-10.7848-19.1433,0-37.7979,3.6285-55.4452,10.7848-18.2581,7.4042-34.6498,18.292-48.7194,32.3618-14.0695,14.0694-24.9576,30.4611-32.3615,48.7191-7.1564,17.6473-10.7849,36.3018-10.785,55.4452.0001,19.1436,3.6286,37.7981,10.7848,55.4454,7.404,18.2582,18.292,34.6496,32.3616,48.7193,14.0695,14.0696,30.4612,24.9575,48.7193,32.3616,17.6473,7.1562,36.3019,10.7848,55.4452,10.7848,19.1436-.0001,37.7982-3.6285,55.4454-10.7848,18.2582-7.404,34.6497-18.292,48.7193-32.3614Z" style="fill: #aaa06d;"/>
      <path d="M102.8372,419.2392l73.1622-73.1621,15.6685,15.6684-73.1622,73.1623c-4.3267,4.3267-11.3418,4.3267-15.6685,0h0c-4.3268-4.3268-4.3268-11.3417,0-15.6686Z" style="fill: #969387;"/>
      <path d="M136.1145,452.5167l73.1623-73.1621,15.6684,15.6683-73.1621,73.1623c-4.3269,4.3267-11.3418,4.3267-15.6686,0h0c-4.3267-4.3268-4.3267-11.3418,0-15.6685Z" style="fill: #969387;"/>
      <path d="M169.3919,485.7941l73.1622-73.1623,15.6685,15.6686-73.1623,73.1621c-4.3266,4.3267-11.3417,4.3267-15.6684,0h0c-4.3266-4.3267-4.3266-11.3417,0-15.6684Z" style="fill: #969387;"/>
      <circle cx="261.1887" cy="409.6657" r="18.8974" style="fill: #727068;"/>
      <path d="M214.5488,389.751c-7.3797-7.3799-7.3797-19.345.0001-26.7249s19.3449-7.3799,26.7248,0,7.3799,19.345,0,26.7249c-7.3799,7.3797-19.345,7.3797-26.7249,0Z" style="fill: #727068;"/>
      <circle cx="194.634" cy="343.111" r="18.8974" style="fill: #727068;"/>
      <path d="M185.4035,43.657h0c-9.2436,72.2684-40.6976,139.8839-90.0184,193.509l-38.0786,41.4018c-2.5226,2.7429-2.434,6.9869.2011,9.6222l28.8742,28.874c2.6415,2.6415,6.8982,2.7234,9.6392.1853l32.5986-30.1839c56.8525-52.6411,129.4939-85.0404,206.6466-92.1675l1.2617-.1166L185.4035,43.657Z" style="fill: #938a65;"/>
      <path d="M213.2312,614.7788l-8.3122-46.5643,168.8452-10.6647c9.2071-.5815,17.2215,6.2322,18.1289,15.4128h0c.9023,9.1297-5.5473,17.3498-14.6294,18.6454l-164.0325,23.1708Z" style="fill: #a8a594;"/>
    </g>
  </g>
</svg>