<?xml version="1.0" encoding="UTF-8"?>
<svg id="uuid-47a2a70e-d355-4bcd-a9db-7681f458181f" data-name="Ebene 2" xmlns="http://www.w3.org/2000/svg" viewBox="0 0 564.1821 537.1044">
  <g id="uuid-aa6cf3f2-3ba6-4d9d-8582-7bdcf9e95a0c" data-name="ŕđ 1">
    <g>
      <path d="M564.1821,33.5807s-181.0009,163.3826-262.0362,252.0898l-.0002.0003c-16.3335,17.88-30.1919,37.8727-41.2031,59.4421l-85.9031,168.2697-7.5666-1.5041c-72.3264-14.3765-128.89-70.8735-143.3519-143.1828h0s136.4462-69.2516,136.4462-69.2516c46.6951-23.6997,90.8092-52.1729,131.6361-84.9642h0c72.7701-58.4475,142.8736-120.1391,210.0982-184.888l30.7231-29.5919.7843.1672c16.2474,3.463,28.4711,16.9104,30.3731,33.4135h0Z" style="fill: #c4ae86;"/>
      <path d="M504.8157,55.6017c-2.5899-2.5899-2.5899-6.7892,0-9.3791s6.7892-2.5901,9.3793,0,2.5899,6.7892,0,9.3791c-2.5901,2.59-6.7892,2.59-9.3793,0Z" style="fill: #a08b6a;"/>
      <path d="M477.7785,82.6389c-2.59-2.5899-2.59-6.7891,0-9.3791,2.5899-2.5901,6.7892-2.5901,9.3791,0,2.5901,2.59,2.5901,6.7892,0,9.3791-2.5899,2.59-6.7892,2.59-9.3791,0Z" style="fill: #a08b6a;"/>
      <path d="M449.8497,108.0313c-2.5899-2.5899-2.5899-6.7891,0-9.3791,2.5901-2.5899,6.7892-2.5899,9.3793,0,2.5899,2.59,2.5899,6.7892,0,9.3791-2.5901,2.59-6.7892,2.59-9.3793,0Z" style="fill: #a08b6a;"/>
      <path d="M421.6395,133.1247c-2.59-2.5899-2.59-6.789,0-9.3791,2.59-2.5899,6.7891-2.5899,9.3792,0,2.5899,2.5901,2.5899,6.7892,0,9.3791s-6.7892,2.5901-9.3792,0Z" style="fill: #a08b6a;"/>
      <path d="M392.7622,158.2759c-2.5899-2.5899-2.5899-6.789,0-9.3791,2.5901-2.5899,6.7892-2.5899,9.3793,0,2.5899,2.5901,2.5899,6.7892,0,9.3791s-6.7892,2.5901-9.3793,0Z" style="fill: #a08b6a;"/>
      <path d="M360.7039,187.7982c-2.5901-2.5901-2.5901-6.7892,0-9.3793s6.7892-2.5899,9.3791,0c2.59,2.5901,2.59,6.7892,0,9.3793-2.5899,2.5899-6.7892,2.5899-9.3791,0Z" style="fill: #a08b6a;"/>
      <path d="M326.6566,218.7284c-2.5899-2.5899-2.5899-6.7892,0-9.3791,2.5901-2.59,6.7892-2.59,9.3793,0,2.5899,2.5899,2.5899,6.7892,0,9.3791s-6.7892,2.5901-9.3793,0Z" style="fill: #a08b6a;"/>
      <path d="M136.8874,530.3744L7.4112,405.967c-9.609-9.2329-9.9141-24.5072-.6812-34.1164h0c9.2329-9.609,24.5074-9.9139,34.1164-.681l129.4762,124.4074c9.609,9.2329,9.914,24.5073.6812,34.1163h-.0002c-9.2329,9.6091-24.5072,9.914-34.1162.6811Z" style="fill: #a08b6a;"/>
    </g>
  </g>
</svg>