<?xml version="1.0" encoding="UTF-8"?>
<svg id="uuid-04013402-2624-4b58-8403-6dd8b89d5a0e" data-name="Ebene 2" xmlns="http://www.w3.org/2000/svg" viewBox="0 0 354.8628 717.07">
  <g id="uuid-cd8be874-6b39-49a9-b828-f97ece5811c6" data-name="ŕđ 1">
    <g>
      <path d="M46.5988,421.8257l189.3689-175.0143-.4377,43.8676L40.2533,476.3435c-4.3962,4.1797-8.4576,8.6426-12.1842,13.3371v-25.4985c0-16.085,6.7171-31.439,18.5297-42.3564Z" style="fill: #918271;"/>
      <path d="M28.0691,489.6806c3.7266-4.6945,7.788-9.1574,12.1842-13.3371l195.2767-185.6645.0064-.0061h54.9178l60.6446,246.0024c9.4854,38.4769.8241,79.1787-23.5057,110.4597h0c-19.4773,25.0423-45.6608,44.0435-75.5082,54.7961l-3.2634,1.1755c-32.4625,11.6946-67.0953,16.1261-101.4565,12.9819h0c-27.1423-2.4837-53.4321-10.7801-77.0833-24.3258v-.0002c-20.432-11.7018-37.2853-28.7546-48.7458-49.3229l-5.1666-9.2725c-10.7346-19.2654-16.3693-40.9542-16.3693-63.0083v-.0003c.0001-29.3994,10.0075-57.7257,28.0691-80.4779Z" style="fill: #726049;"/>
      <path d="M227.7565,85.4939c-.9153-13.7294,10.3734-24.8655,14.3396-27.9165,3.9663-3.051,11.2887-8.848,13.7294-15.1025,1.0572-2.7091.4537-5.1881-.5693-7.1293-.4669.0369-.9375.0612-1.4138.0613-9.773,0-17.6956-7.9227-17.6956-17.6958S244.0785-.4071,253.8424.0154c10.5768.4576,18.9161,7.0681,24.1028,24.9165,5.1867,17.8481-.3051,25.9333,2.1357,35.3913,2.4408,9.4581,10.2023,19.1643,11.8989,25.781,2.2882,8.924-5.8733,18.4584-6.1021,20.4416h-48.5107s-8.6952-7.3223-9.6105-21.0519Z" style="fill: #918877;"/>
      <polygon points="235.9677 246.8114 237.367 106.5457 285.8777 106.5458 290.4542 290.6729 235.5364 290.6729 235.53 290.679 235.9677 246.8114" style="fill: #565654;"/>
      <path d="M146.7525,522.2429c0,20.7256,16.8015,37.5271,37.5273,37.5272,20.7257,0,37.5271-16.8015,37.5272-37.5272-.0001-20.7258-16.8015-37.5271-37.5272-37.5273-20.7258.0002-37.5272,16.8015-37.5273,37.5273Z" style="fill: #565654;"/>
      <path d="M240.6023,636.1143c-.654.6539-1.457,1.1784-2.3839,1.5164-2.7362.999-67.7326,23.8357-130.5799-31.4418-25.5498-22.4716-44.4076-30.5205-55.7277-33.3161-11.9057-2.9395-18.0117-.7723-18.0712-.7493-3.3381,1.4084-7.1185-.1839-8.5263-3.5214-1.4098-3.3399.2259-7.2159,3.5619-8.622,3.1875-1.346,32.7283-11.754,87.4283,36.357,56.8172,49.9733,114.9798,29.8454,117.4283,28.9644,3.404-1.2249,7.1639.5329,8.3972,3.9337.8969,2.4735.2179,5.1344-1.5267,6.8791Z" style="fill: #565654;"/>
      <path d="M300.3529,608.428c-1.1875,1.1874-2.8275,1.9213-4.6394,1.9213h-79.0212c-3.6223.0006-6.5601-2.9372-6.5595-6.5596,0-3.6241,2.9367-6.5608,6.5608-6.5608h79.0209c3.6225-.0004,6.5602,2.9373,6.5597,6.5597,0,1.8119-.7339,3.452-1.9213,4.6394Z" style="fill: #565654;"/>
    </g>
  </g>
</svg>