<?xml version="1.0" encoding="UTF-8"?>
<svg id="uuid-bef9799e-d2a2-4e05-a790-15ac7f62222c" data-name="Ebene 2" xmlns="http://www.w3.org/2000/svg" viewBox="0 0 372.0389 955.3102">
  <g id="uuid-9c86b0a5-b5da-44fc-a933-ea520931d516" data-name="ŕđ 1">
    <g>
      <path d="M362.6273,624.3393l-20.7459-53.785c-1.3045.4687-2.647.8478-4.0302,1.1223-24.3093,4.8266-51.2916-22.9253-60.2668-61.9855-8.9751-39.0603,3.4556-74.6374,27.7648-79.4641,4.0747-.8089,12.3516.2229,12.3516.2229,23.8742-108.5657-56.4652-154.8186-106.0474-188.1803-17.1948-11.5695-39.5183-9.2727-52.8641,1.2738-36.9204,29.1761-128.7604,82.3785-104.7332,187.342,0,0,9.4415-1.581,14.0882-.6584,24.3093,4.8266,36.7399,40.4038,27.7647,79.4641-8.9752,39.0602-35.9576,66.812-60.2668,61.9855-1.0298-.2046-2.0364-.4686-3.0228-.7814l-22.2778,51.9928c-11.4785,26.789-41.0409,176.5862,106.2426,206.6188,33.7899,6.8901,79.7539,8.2107,129.9309-1.1101,129.5281-24.061,138.2109-142.8331,116.1122-204.0574Z" style="fill: #726049;"/>
      <polygon points="168.0146 111.8613 162.9584 441.5253 208.4649 441.5253 195.8243 111.8613 168.0146 111.8613" style="fill: #3f382d;"/>
      <path d="M201.6529,11.8179l-8.0966-7.7345c-5.6992-5.4445-15.0251-5.4446-20.7243-.0001l-8.0967,7.7346c-5.6992,5.4444-5.6992,14.3534,0,19.7979l6.6661,6.368h0l-10.0991,68.0855c-.4571,3.0815,2.5382,5.792,6.4003,5.7919h28.5593c3.8127.0001,6.7923-2.6448,6.4137-5.6933l-8.3839-67.5199,7.3612-7.0322c5.6992-5.4445,5.6992-14.3535,0-19.7979Z" style="fill: #726049;"/>
      <path d="M163.9658,68.1365c-3.1224,1.2942-6.5582,2.3242-9.7793,3.2477-1.9864.4396-4.6468,1.0762-6.5196,1.8683-3.9239,1.2139-7.602-2.0127-9.7795-5.1162-.2241-.3639-.209-.8088,0-1.1497.9536-1.4059,1.9874-2.528,3.2598-3.4687,2.0092-1.461,4.1575-2.4575,6.5198-1.6478,1.0864.3859,2.173.8529,3.2597,1.0922,1.6434.3541,4.9156,1.2179,6.5196,1.7249,2.1732.7045,4.3462,1.3908,6.5196,2.2992.5024.1913.4997.9617,0,1.1501h0Z" style="fill: #898877;"/>
      <path d="M160.4608,93.6768c-2.9837,1.2937-6.2645,2.3223-9.3491,3.2479-1.9039.4405-4.4442,1.0768-6.2326,1.8684-3.8087,1.2212-7.311-2.0831-9.3488-5.1165-.216-.3669-.2011-.8064-.0003-1.1495.9076-1.3994,1.8913-2.5206,3.1165-3.4688,1.9096-1.4502,3.9587-2.4612,6.2326-1.6476,1.0388.3856,2.0775.8528,3.1166,1.092,1.5728.3543,4.7007,1.2186,6.2325,1.725,2.0775.7046,4.1551,1.3909,6.2327,2.2994.4943.1973.4912.9551,0,1.1497h0Z" style="fill: #898877;"/>
      <path d="M199.1322,51.9146c3.0242-1.2941,6.3485-2.3228,9.4724-3.2476,1.9276-.4404,4.5023-1.0769,6.315-1.8685,3.8419-1.2198,7.3944,2.0625,9.473,5.1159.2178.3664.2027.8078-.0002,1.1499-.9207,1.4012-1.9188,2.5229-3.1573,3.4688-1.9382,1.4533-4.0163,2.46-6.3153,1.6479-1.0527-.3857-2.1051-.8528-3.1574-1.0926-1.5932-.3542-4.7628-1.2179-6.3153-1.7244-2.1048-.7049-4.2099-1.3907-6.3149-2.2995-.497-.1957-.4938-.9569,0-1.1499h0Z" style="fill: #898877;"/>
      <path d="M202.7818,80.8016c3.2558-1.2948,6.8417-2.3255,10.194-3.248,2.066-.4382,4.8417-1.0749,6.7956-1.8684,4.0364-1.2055,7.8791,1.9494,10.1942,5.1163.2317.3615.2171.8105-.0003,1.1498-.9978,1.4122-2.0803,2.5348-3.3979,3.4689-2.1045,1.4696-4.3482,2.4551-6.7957,1.6477-1.1329-.3858-2.2654-.8527-3.3982-1.0923-1.7113-.3536-5.1225-1.2174-6.7959-1.7247-2.2653-.7046-4.5302-1.3911-6.7958-2.2994-.51-.186-.5073-.9675,0-1.1499h0Z" style="fill: #898877;"/>
      <path d="M258.506,612.6366c-.8667.8667-2.0643,1.4026-3.3876,1.4026l-143.0814-.0014c-2.6466,0-4.7902-2.1436-4.79-4.79,0-2.6465,2.1436-4.7901,4.79-4.79l143.0815.0013c2.6464-.0002,4.7902,2.1435,4.79,4.79,0,1.3232-.5357,2.5208-1.4025,3.3875Z" style="fill: #565654;"/>
      <path d="M155.405,699.4526h61.2287l-10.8767,36.6278c-6.0853,20.4917-8.5204,41.8812-7.2309,63.2182,1.5305,25.3288.8906,57.8722-12.5069,57.8494-13.2906-.0226-13.9402-31.9931-12.3789-57.2508,1.348-21.8131-1.1099-43.6888-7.4233-64.6119l-10.812-35.8327Z" style="fill: #3f382d;"/>
      <path d="M191.7679,851.4812l-5.7487,103.829-5.7488-103.8288c-.183-7.9965,11.6751-8.0175,11.4975-.0002h0Z" style="fill: #3f382d;"/>
    </g>
  </g>
</svg>