<?xml version="1.0" encoding="UTF-8"?>
<svg id="uuid-1807c0c4-ecbd-471e-ab69-dcd481059c46" data-name="Ebene 2" xmlns="http://www.w3.org/2000/svg" viewBox="0 0 488.5152 456.8004">
  <g id="uuid-37982db7-ab43-4fd5-956a-5e78a4aaf3d3" data-name="ŕđ 1">
    <g>
      <path d="M237.5009,456.7378c-36.4377,0-72.5113-9.4201-104.504-27.3141h-.0016c-37.1405-20.7749-66.959-51.7195-86.2321-89.4894-.8715-1.7055-.809-3.7374.1641-5.3868l24.2333-41.1099c3.9499-6.701,11.5217-10.3823,19.2888-9.3811,7.6857.9925,13.7566,6.1927,15.8464,13.5731.2295.8137.4123,1.6486.5434,2.4834.4717,2.9855,2.2568,5.5476,4.898,7.025,2.6427,1.4776,5.7601,1.6573,8.5557.496,5.985-2.4903,12.6602-2.1023,18.3157,1.0613,5.657,3.1635,9.4819,8.6502,10.494,15.053.4716,2.9892,2.2584,5.5507,4.8995,7.0282,2.6409,1.4774,5.7585,1.6586,8.5541.4967,5.9834-2.4904,12.6602-2.1023,18.3172,1.0612,5.6569,3.1644,9.4819,8.651,10.4939,15.0529.4718,2.9903,2.2586,5.5516,4.8996,7.0292,2.6379,1.4759,5.7538,1.6587,8.5542.4966,5.9834-2.4895,12.6617-2.1021,18.3188,1.0621,5.657,3.1643,9.4803,8.6503,10.4908,15.0522.4732,2.9893,2.2584,5.5515,4.9011,7.029,2.6395,1.476,5.7553,1.657,8.5541.4959.3765-.1585.7685-.3069,1.1589-.4444,7.5249-2.6255,15.4294-.4467,20.6413,5.6812,5.2742,6.2045,6.1941,14.8024,2.3396,21.9048l-26.1046,48.0983c-.9668,1.7813-2.8207,2.9004-4.8464,2.9269-.9246.0125-1.8507.0187-2.7738.0187ZM138.4602,419.6528c30.1357,16.8546,64.0947,25.7782,98.4019,25.8882l24.524-45.187c1.9788-3.647.7652-7.2016-1.0292-9.3132-.8153-.9583-3.8344-3.9593-8.4137-2.3662-.175.0617-.3608.1319-.5467.2092-5.9958,2.4943-12.6726,2.1077-18.3296-1.0565-5.657-3.1643-9.4819-8.6511-10.4939-15.053-.4718-2.9894-2.257-5.5516-4.898-7.029-2.6427-1.4776-5.7633-1.6595-8.5557-.496-5.9835,2.4881-12.6604,2.1024-18.3188-1.0621-5.6555-3.1642-9.4804-8.6508-10.4909-15.0529-.4732-2.9893-2.2584-5.5516-4.9011-7.029-2.6425-1.4775-5.7569-1.6595-8.5541-.4958-5.985,2.4887-12.6618,2.1021-18.3172-1.0621-5.6569-3.1643-9.4819-8.6503-10.4925-15.0522-.4732-2.9895-2.2584-5.5516-4.9009-7.029-2.6396-1.4776-5.7555-1.6595-8.5527-.496-5.9802,2.4887-12.6603,2.1038-18.3188-1.0613-5.6554-3.1642-9.4803-8.651-10.4924-15.0529-.0641-.4023-.15-.7981-.2578-1.1808-.8606-3.0378-3.2923-5.1009-6.5049-5.5156-2.6457-.3367-6.1849.5217-8.2138,3.9631l-22.6575,38.4384c18.2906,34.558,46.0102,62.9014,80.3143,82.0917h0Z" style="fill: #6b495c;"/>
      <circle cx="44.7194" cy="168.4859" r="44.7177" transform="translate(-106.0395 80.9698) rotate(-45)" style="fill: #aa997b;"/>
      <path d="M25.8946,183.4017c-8.2251-10.3816-6.471-25.5175,3.9097-33.742,10.3799-8.2237,25.5159-6.4694,33.741,3.9122,8.2237,10.3798,6.4694,25.5157-3.9103,33.7395-10.3809,8.2245-25.5167,6.4702-33.7404-3.9097Z" style="fill: #847966;"/>
      <circle cx="171.8234" cy="44.7281" r="44.7177" transform="translate(-5.6105 38.3161) rotate(-12.5215)" style="fill: #aa997b;"/>
      <path d="M148.4876,39.0451c3.1345-12.8688,16.1527-20.7874,29.0203-17.653,12.8666,3.1339,20.7851,16.152,17.6506,29.0208-3.134,12.8667-16.1522,20.7851-29.0187,17.6512-12.8678-3.1343-20.7862-16.1525-17.6522-29.019Z" style="fill: #847966;"/>
      <circle cx="346.0919" cy="63.9646" r="44.7178" transform="translate(276.3272 408.9342) rotate(-89.0383)" style="fill: #aa997b;"/>
      <path d="M336.2331,42.0633c12.0781-5.4362,26.3253-.0334,31.7611,12.0435,5.4353,12.076.0326,26.3232-12.0454,31.7595-12.076,5.4353-26.3233.0325-31.7585-12.0434-5.4358-12.0771-.033-26.3243,12.0428-31.7596Z" style="fill: #847966;"/>
      <circle cx="443.7885" cy="210.4638" r="44.7176" transform="translate(-42.3327 140.2541) rotate(-17.154)" style="fill: #aa997b;"/>
      <path d="M455.0064,189.2265c11.7113,6.1867,16.2054,20.7461,10.0192,32.4565-6.1855,11.7094-20.7451,16.2035-32.4564,10.0167-11.7093-6.1855-16.2034-20.745-10.0179-32.4544,6.1862-11.7104,20.7456-16.2045,32.4551-10.0188Z" style="fill: #847966;"/>
      <circle cx="390.3612" cy="384.1912" r="44.7176" transform="translate(-109.9676 161.3553) rotate(-20.5364)" style="fill: #aa997b;"/>
      <path d="M414.0086,379.9882c2.3172,13.0409-6.4059,25.534-19.4457,27.851-13.0384,2.3168-25.5317-6.4063-27.849-19.447-2.3167-13.0387,6.4064-25.5318,19.4451-27.8487,13.0395-2.3169,25.5328,6.4062,27.8496,19.4447Z" style="fill: #847966;"/>
      <path d="M237.3339,456.8004c-36.1629,0-71.9101-9.2391-104.3386-27.3767C29.8221,371.7154-7.1685,240.8264,50.5398,137.6515c27.9553-49.9796,73.6999-86.0822,128.8077-101.656,55.1079-15.5761,112.9817-8.7557,162.9635,19.1997,49.9804,27.9553,86.0822,73.6999,101.6568,128.8084,15.5747,55.108,8.7557,112.9826-19.1996,162.963-27.9552,49.9802-73.6999,86.0821-128.8093,101.6568-19.3543,5.4695-39.0506,8.177-58.625,8.177ZM237.996,39.1457c-71.2603,0-140.4965,37.4826-177.6855,103.9707-54.6954,97.7874-19.6369,221.8409,78.1513,276.5364,47.3688,26.4958,102.2206,32.957,154.4531,18.1969,52.2309-14.7609,95.5876-48.9776,122.0825-96.348,26.495-47.3706,32.9579-102.223,18.1969-154.4531-14.7609-52.2311-48.9775-95.5876-96.3496-122.0825-31.2977-17.5059-65.305-25.8204-98.8487-25.8204Z" style="fill: #6b495c;"/>
    </g>
  </g>
</svg>