<?xml version="1.0" encoding="UTF-8"?>
<svg id="uuid-07c41b46-20d0-44e8-945c-2bd1579546f5" data-name="Ebene 2" xmlns="http://www.w3.org/2000/svg" viewBox="0 0 297.7223 786.9071">
  <g id="uuid-e1e51a3d-4df5-43aa-a186-5bda4f57b94d" data-name="ŕđ 1">
    <g>
      <path d="M273.678,534.2648s10.7889-168.7206,11.0356-284.0075c.2517-117.631,2.0943-162.8913,2.0943-162.8913l10.6983-9.4016s.4863,170.8494-.0001,234.0668c-.4862,63.2175-5.8354,180.413-5.8354,180.413l-1.9451,26.2595-16.0476,15.5611Z" style="fill: #3d3f2d;"/>
      <path d="M262.1369,598.0991l-14.7993-34.8044c-.9305.3034-1.8883.5487-2.8748.7264-17.3413,3.1232-36.5894-14.8351-42.9919-40.111-6.4025-25.2759,2.465-48.2981,19.8062-51.4214,2.9067-.5233,5.8668-.4518,8.8112.1444l13.2038-47.1908c3.0641-10.9514,27.8735-102.6072-79.2119-100.6473l-.0256-.0037c-18.8963-2.6908-38.2021-2.6051-57.0639.2533h0c-102.2542.5705-81.9696,88.5699-78.2513,101.5448l13.2756,46.3255c3.351-.8474,6.7351-1.0231,10.0499-.4261,17.3412,3.1233,26.2087,26.1453,19.8062,51.4214-6.4026,25.2757-25.6507,43.2341-42.9919,40.1108-.7347-.1323-1.4528-.3032-2.1563-.5055l-15.8921,33.6445c-8.1882,17.3352-11.8072,35.9646-10.6056,54.5965v.0003c2.4522,38.0273,36.1162,69.4253,80.7389,75.3042h.0003c36.0668,4.7518,72.8489,4.0545,108.6261-2.0596l4.0543-.6929c43.1759-7.3783,74.9687-38.4455,77.3046-75.5403l-.0002-.0002c1.0841-17.2154-1.9116-34.4405-8.8122-50.6689Z" style="fill: #7f5c2e;"/>
      <polygon points="115.178 112.4344 110.3566 443.7872 153.7486 443.7872 141.6953 112.4344 115.178 112.4344" style="fill: #564830;"/>
      <path d="M147.2531,11.8785l-7.7204-7.7743c-5.4344-5.4722-14.3271-5.4723-19.7615.0002l-7.7202,7.7741c-5.4345,5.4724-5.4345,14.4271-.0001,19.8993l6.3563,6.4006h0l-9.6298,68.4343c-.4358,3.0973,2.42,5.8217,6.1028,5.8217h27.2324c3.6358,0,6.4768-2.6584,6.1158-5.7225l-7.9945-67.8659,7.0192-7.068c5.4344-5.4725,5.4344-14.4273,0-19.8995Z" style="fill: #825d43;"/>
      <path d="M111.317,68.4735c-2.9767,1.2731-6.2498,2.2857-9.3249,3.1957-1.8975.433-4.4323,1.0594-6.2166,1.8384-3.7814,1.1997-7.2792-2.0286-9.3251-5.0341-.2151-.3604-.2-.7947,0-1.1317.9063-1.3786,1.8892-2.4823,3.1082-3.413,1.9083-1.4302,3.9533-2.4203,6.2167-1.6213,1.036.3797,2.0722.8392,3.1083,1.075,1.5682.3485,4.6883,1.1986,6.2167,1.697,2.0723.6934,4.1446,1.3685,6.2169,2.2624.4887.1925.4858.9416-.0002,1.1316h0Z" style="fill: #898877;"/>
      <path d="M107.9753,94.1443c-2.8454,1.273-5.9692,2.2839-8.9148,3.196-1.819.4343-4.2394,1.0604-5.943,1.8384-2.8229,1.0265-5.4761-.9766-7.4294-3.0186-.5089-.8582-2.0662-1.921-1.4856-3.1469,1.4026-2.2801,3.5245-4.2871,5.9431-5.0909,2.0589-.8213,4.0152.6835,5.9432,1.1314,1.5011.3489,4.4837,1.1991,5.9433,1.6968,1.9809.6933,3.962,1.3684,5.9428,2.2628.4807.1983.4776.9352.0004,1.131h0Z" style="fill: #898877;"/>
      <path d="M144.8496,52.1927c2.8828-1.2727,6.05-2.2845,9.0326-3.1958,1.8415-.4336,4.2949-1.0601,6.0213-1.8383,2.8513-1.0245,5.54.9669,7.5272,3.0189.5141.857,2.0928,1.9166,1.5055,3.1465-1.4264,2.2899-3.5799,4.2906-6.0218,5.0912-2.0839.821-4.0667-.6832-6.0215-1.1314-1.5205-.3488-4.5425-1.1989-6.0219-1.697-2.0072-.6934-4.0141-1.3684-6.0216-2.2627-.4831-.1969-.4796-.9371.0002-1.1314h0Z" style="fill: #898877;"/>
      <path d="M148.3296,81.2281c3.1039-1.2742,6.5199-2.2871,9.7203-3.1964,1.9735-.4319,4.6182-1.0584,6.4803-1.8381,3.8876-1.1926,7.5448,1.9656,9.7203,5.0341.2222.3577.2077.7962-.0002,1.1315-.9483,1.3846-1.9777,2.489-3.2401,3.4132-1.9996,1.4394-4.1356,2.4176-6.48,1.6211-1.0801-.3796-2.16-.8393-3.2401-1.0749-1.6331-.3483-4.8858-1.1982-6.4803-1.6968-2.1602-.6933-4.3202-1.3683-6.4801-2.2627-.4968-.1864-.4934-.9475,0-1.131h0Z" style="fill: #898877;"/>
      <path d="M170.8574,553.3865c-.8529.8529-2.0317,1.3808-3.3331,1.3802l-68.1012.0005c-2.604.0001-4.7133-2.1092-4.7132-4.7132-.0013-2.6028,2.1104-4.7146,4.7132-4.7132l68.1012-.0008c2.604.0001,4.7132,2.1093,4.7133,4.7133.0007,1.3014-.5274,2.4804-1.3802,3.3332Z" style="fill: #565654;"/>
      <path d="M113.8868,636.6445h43.392l-7.7084,25.9578c-4.3123,14.5222-6.0379,29.6807-5.1243,44.802,1.0847,17.9503.6314,41.0136-8.8633,40.9973-9.419-.016-9.8793-22.673-8.773-40.5729.9554-15.4589-.7865-30.9619-5.2606-45.7899l-7.6624-25.3943Z" style="fill: #564830;"/>
      <path d="M140.468,744.5414l-4.8851,42.3657-4.8852-42.3658c-.4657-7.2419,10.2336-7.2487,9.7703.0001h0Z" style="fill: #564830;"/>
    </g>
  </g>
</svg>