<?xml version="1.0" encoding="UTF-8"?>
<svg id="uuid-24631b3b-ac39-414b-9927-e7dae866684b" data-name="Ebene 2" xmlns="http://www.w3.org/2000/svg" viewBox="0 0 520.1325 463.0446">
  <g id="uuid-75fc7710-60fb-4951-aef9-5db3352af740" data-name="ŕđ 1">
    <g>
      <path d="M45.9864,153.7418c-1.8838,0-3.4112-1.5274-3.4112-3.4112v-58.9909c0-1.8837,1.5274-3.4112,3.4112-3.4112s3.4112,1.5275,3.4112,3.4112v58.9909c0,1.8838-1.5274,3.4112-3.4112,3.4112Z" style="fill: #777774;"/>
      <path d="M131.6187,153.7418c-1.8838,0-3.4111-1.5274-3.4111-3.4112v-58.9909c0-1.8837,1.5273-3.4112,3.4111-3.4112s3.4112,1.5275,3.4112,3.4112v58.9909c0,1.8838-1.5274,3.4112-3.4112,3.4112Z" style="fill: #777774;"/>
      <path d="M217.2509,153.7418c-1.8838,0-3.4112-1.5274-3.4112-3.4112v-58.9909c0-1.8837,1.5274-3.4112,3.4112-3.4112s3.4111,1.5275,3.4111,3.4112v58.9909c0,1.8838-1.5273,3.4112-3.4111,3.4112Z" style="fill: #777774;"/>
      <path d="M302.8815,153.7418c-1.8838,0-3.4112-1.5274-3.4112-3.4112v-58.9909c0-1.8837,1.5274-3.4112,3.4112-3.4112s3.4111,1.5275,3.4111,3.4112v58.9909c0,1.8838-1.5275,3.4112-3.4111,3.4112Z" style="fill: #777774;"/>
      <path d="M388.5136,153.7418c-1.8838,0-3.4111-1.5274-3.4111-3.4112v-58.9909c0-1.8837,1.5273-3.4112,3.4111-3.4112s3.4112,1.5275,3.4112,3.4112v58.9909c0,1.8838-1.5274,3.4112-3.4112,3.4112Z" style="fill: #777774;"/>
      <path d="M474.1458,153.7418c-1.8838,0-3.4112-1.5274-3.4112-3.4112v-58.9909c0-1.8837,1.5274-3.4112,3.4112-3.4112s3.4111,1.5275,3.4111,3.4112v58.9909c0,1.8838-1.5273,3.4112-3.4111,3.4112Z" style="fill: #777774;"/>
      <rect x="0" width="520.1325" height="91.3402" rx="31.7238" ry="31.7238" style="fill: #8c8376;"/>
      <rect x="21.2493" y="150.3308" width="49.4761" height="312.7138" rx="13.9238" ry="13.9238" style="fill: #8c8376;"/>
      <rect x="106.8808" y="150.3308" width="49.476" height="282.1532" rx="13.924" ry="13.924" style="fill: #8c8376;"/>
      <rect x="192.5124" y="150.3308" width="49.4761" height="241.6934" rx="13.924" ry="13.924" style="fill: #8c8376;"/>
      <rect x="278.1439" y="150.3308" width="49.476" height="204.0498" rx="13.9238" ry="13.9238" style="fill: #8c8376;"/>
      <rect x="363.7755" y="150.3308" width="49.4761" height="170.7487" rx="13.924" ry="13.924" style="fill: #8c8376;"/>
      <rect x="449.4072" y="150.3308" width="49.476" height="138.7051" rx="13.9239" ry="13.9239" style="fill: #8c8376;"/>
    </g>
  </g>
</svg>