<?xml version="1.0" encoding="UTF-8"?>
<svg id="uuid-c47dfa21-2a03-4b73-a98f-5c2a7467ebd4" data-name="Ebene 2" xmlns="http://www.w3.org/2000/svg" viewBox="0 0 582.3283 582.8629">
  <g id="uuid-cf28c4e2-fdb7-4dbe-89af-64fc8788e754" data-name="ŕđ 1">
    <g>
      <rect x="194.8314" y="270.782" width="66.3621" height="167.0764" transform="translate(317.3255 -57.4511) rotate(45)" style="fill: #a38c72;"/>
      <path d="M275.5509,330.3362c-6.5045,6.5044-17.0501,6.5044-23.5545,0-6.5045-6.5044-6.5045-17.05,0-23.5545s17.05-6.5044,23.5545,0c6.5044,6.5045,6.5044,17.0501,0,23.5545Z" style="fill: #9e9e9e;"/>
      <circle cx="228.0124" cy="354.3202" r="16.6556" style="fill: #9e9e9e;"/>
      <path d="M204.0285,401.8587c-6.5044,6.5045-17.0502,6.5045-23.5546,0-6.5045-6.5044-6.5045-17.0502,0-23.5546,6.5044-6.5044,17.0502-6.5044,23.5546,0,6.5044,6.5044,6.5044,17.0502,0,23.5546Z" style="fill: #9e9e9e;"/>
      <path d="M228.0125,358.2777c-1.0126,0-2.0262-.3865-2.7985-1.1596l-38.8589-38.859c-1.5462-1.546-1.5462-4.0509,0-5.5969,1.5446-1.5462,4.0525-1.5462,5.5969,0l38.859,38.8589c1.5461,1.5462,1.5461,4.0508,0,5.597-.7723.7731-1.7857,1.1596-2.7985,1.1596Z" style="fill: #565654;"/>
      <path d="M192.2514,394.0397c-1.0127,0-2.0263-.3864-2.7986-1.1595l-38.8588-38.859c-1.5462-1.5461-1.5462-4.0509,0-5.5969l71.5225-71.5226c1.5446-1.5461,4.0524-1.5461,5.5969,0l38.859,38.8589c1.5462,1.5462,1.5462,4.0509,0,5.5971-1.5446,1.546-4.0525,1.546-5.5971,0l-36.0603-36.0605-65.9248,65.9256,36.0597,36.0603c1.546,1.5462,1.546,4.0509,0,5.5971-.7723.7731-1.7857,1.1595-2.7985,1.1595Z" style="fill: #565654;"/>
      <rect x="284.7961" y="251.3497" width="15.6146" height="76.7589" rx="5.1833" ry="5.1833" transform="translate(-119.1679 291.7616) rotate(-45)" style="fill: #706f6f;"/>
      <rect x="383.406" y="152.7397" width="76.7589" height="15.6146" rx="5.1834" ry="5.1834" transform="translate(237.0616 -251.224) rotate(44.9999)" style="fill: #706f6f;"/>
      <path d="M141.4925,367.0799c-1.0127,0-2.0261-.3867-2.7984-1.1596-1.5462-1.5462-1.5462-4.0509,0-5.5971l95.3221-95.322c1.5446-1.5462,4.0524-1.5462,5.597,0,1.5461,1.546,1.5461,4.0508,0,5.5969l-95.3222,95.3222c-.7723.7729-1.7857,1.1596-2.7985,1.1596Z" style="fill: #565654;"/>
      <rect x="324.0135" y="141.5999" width="66.362" height="167.0765" transform="translate(450.5733 636.9093) rotate(-135.0001)" style="fill: #a38c72;"/>
      <path d="M381.1784,177.5996c-6.5044,6.5044-6.5044,17.0502,0,23.5546,6.5044,6.5044,17.05,6.5044,23.5545,0,6.5044-6.5044,6.5044-17.0502,0-23.5546s-17.0501-6.5045-23.5545,0Z" style="fill: #9e9e9e;"/>
      <path d="M345.4172,213.3608c-6.5044,6.5044-6.5044,17.0502,0,23.5547,6.5045,6.5044,17.0503,6.5044,23.5547,0,6.5044-6.5045,6.5044-17.0503,0-23.5547s-17.0502-6.5044-23.5547,0Z" style="fill: #9e9e9e;"/>
      <circle cx="321.4333" cy="260.8994" r="16.6556" style="fill: #9e9e9e;"/>
      <path d="M396.0531,267.9558c-1.0127,0-2.0263-.3866-2.7986-1.1596l-38.8588-38.859c-1.5462-1.5462-1.5462-4.0509,0-5.5969,1.5446-1.5462,4.0524-1.5462,5.5969,0l38.859,38.8589c1.5462,1.5462,1.5462,4.0509,0,5.597-.7723.773-1.7857,1.1596-2.7985,1.1596Z" style="fill: #565654;"/>
      <path d="M360.2918,303.7163h0c-1.0498,0-2.0563-.4175-2.7985-1.1596l-38.8581-38.859c-1.5462-1.546-1.5462-4.0509,0-5.5969,1.5446-1.5462,4.0523-1.5462,5.5969,0l36.0597,36.0603,65.9248-65.9254-36.0597-36.0605c-1.5462-1.5461-1.5462-4.0509,0-5.5969,1.5446-1.5462,4.0525-1.5462,5.5971,0l38.8589,38.8588c1.5462,1.5462,1.5462,4.0509,0,5.5971l-71.5225,71.5225c-.7423.7421-1.7487,1.1596-2.7986,1.1596Z" style="fill: #565654;"/>
      <path d="M348.3921,315.6168c-1.0126,0-2.0262-.3864-2.7985-1.1595-1.546-1.5462-1.546-4.0509,0-5.5971l95.3222-95.3236c1.5445-1.5462,4.0523-1.5462,5.5969,0,1.5462,1.5461,1.5462,4.0508,0,5.597l-95.322,95.3237c-.7723.7731-1.7859,1.1595-2.7986,1.1595Z" style="fill: #565654;"/>
      <rect x="420.6831" y="90.9098" width="66.3771" height="75.1236" transform="translate(223.7795 -283.3075) rotate(45.0001)" style="fill: #604b34;"/>
      <polygon points="503.8998 125.3793 456.9639 78.4435 514.0058 29.2445 553.0988 68.3374 503.8998 125.3793" style="fill: #a38c72;"/>
      <polygon points="582.3283 28.6207 553.7074 0 514.0058 29.2445 553.0838 68.3223 582.3283 28.6207" style="fill: #604b34;"/>
      <polygon points="555.3819 1.6743 532.318 33.0804 549.1888 49.9511 580.6539 26.9464 555.3819 1.6743" style="fill: #706f6f;"/>
      <path d="M145.4794,389.9281l-16.0118,16.0117c-26.629,26.629-59.0422,46.7561-94.7182,58.8156l-12.18,4.1172c-6.2277,2.1051-9.0164,9.3461-5.8097,15.0847h.0001c19.399,34.7158,48.4566,63.0553,83.647,81.5797l.775.4078c5.8735,3.0919,13.107.0328,14.9798-6.335l1.7653-6.002c11.5587-39.2995,32.7936-75.0706,61.7596-104.0366l12.718-12.718-46.9251-46.9251Z" style="fill: #604b34;"/>
      <path d="M98.218,578.5949L4.268,484.645c-5.6906-5.6906-5.6906-14.9171,0-20.6077h0c5.6908-5.6907,14.9171-5.6907,20.6079,0l93.9499,93.9499c5.6906,5.6906,5.6906,14.9171,0,20.6077h0c-5.6908,5.6907-14.9171,5.6907-20.6078,0Z" style="fill: #a38c72;"/>
    </g>
  </g>
</svg>