<?xml version="1.0" encoding="UTF-8"?>
<svg id="uuid-3d302399-2c3f-4e7a-9385-83c31a2bfcca" data-name="Ebene 2" xmlns="http://www.w3.org/2000/svg" viewBox="0 0 371.1434 575.2154">
  <g id="uuid-3d9b4295-0b88-4146-8a19-41e5b914ce31" data-name="ŕđ 1">
    <g>
      <path d="M339.662,50.1999c-3.416,1.6165-7.2205,2.5474-11.251,2.5474H39.6617c-2.998,0-5.8675-.5242-8.5526-1.4454C11.4616,108.8364,0,179.1935,0,257.4913c0,119.5548,15.2804,203.5197,40.8022,260.4672h289.1534c25.7532-57.1075,41.1878-141.1934,41.1878-260.4672,0-78.7955-11.6032-149.5558-31.4814-207.2914Z" style="fill: #ddd39e;"/>
      <path d="M40.8022,517.9585c7.5768,16.9057,16.0551,31.4329,25.3065,43.7974,6.407,8.5627,16.5858,13.4595,27.2802,13.4595h183.8703c10.6806,0,20.8453-4.8859,27.2567-13.4281,9.2965-12.3862,17.8186-26.9296,25.4397-43.8288H40.8022Z" style="fill: #8c8376;"/>
      <g>
        <path d="M55.4676,164.6619c-.2313,0-.4664-.0207-.7035-.0622-2.2011-.3854-3.673-2.4827-3.2857-4.6847l18.9163-107.8671c.3834-2.2001,2.4639-3.679,4.6846-3.2857,2.2011.3852,3.6732,2.4825,3.2859,4.6846l-18.9165,107.867c-.3438,1.964-2.0528,3.3481-3.9811,3.3481Z" style="fill: #777774;"/>
        <circle cx="55.3937" cy="175.943" r="15.3366" transform="translate(-127.1505 202.4384) rotate(-80.7825)" style="fill: #a08f78;"/>
      </g>
      <g>
        <path d="M185.0171,168.2401c-2.2346,0-4.0464-1.8118-4.0464-4.0464V52.7473c0-2.2346,1.8118-4.0464,4.0464-4.0464s4.0465,1.8118,4.0465,4.0464v111.4464c0,2.2346-1.8118,4.0464-4.0465,4.0464Z" style="fill: #777774;"/>
        <path d="M200.3777,179.4158c0,8.4703-6.8665,15.3367-15.3367,15.3367s-15.3365-6.8664-15.3365-15.3367,6.8665-15.3364,15.3365-15.3364,15.3367,6.8664,15.3367,15.3364Z" style="fill: #a08f78;"/>
      </g>
      <g>
        <path d="M312.603,164.6619c-1.9581,0-3.6791-1.4256-3.9913-3.4221l-16.8714-107.8671c-.3458-2.2079,1.1637-4.2777,3.3727-4.6235,2.1972-.3389,4.2757,1.1628,4.6214,3.3727l16.8715,107.8673c.3458,2.208-1.1638,4.2775-3.3727,4.6233-.2114.0326-.4208.0494-.6302.0494Z" style="fill: #777774;"/>
        <path d="M329.9897,175.9517c0,8.47-6.8664,15.3364-15.3366,15.3364s-15.3367-6.8664-15.3367-15.3364,6.8665-15.3367,15.3367-15.3367,15.3366,6.8664,15.3366,15.3367Z" style="fill: #a08f78;"/>
      </g>
      <path d="M328.411,0H39.6617C25.0961,0,13.2882,11.808,13.2882,26.3736v.0002c0,11.5682,7.4588,21.3725,17.8209,24.9281,2.6851.9212,5.5546,1.4454,8.5526,1.4454h288.7493c4.0305,0,7.835-.9309,11.251-2.5474,8.9297-4.2253,15.1226-13.2912,15.1226-23.8261v-.0002c0-14.5656-11.808-26.3736-26.3736-26.3736Z" style="fill: #a08f78;"/>
    </g>
  </g>
</svg>