<?xml version="1.0" encoding="UTF-8"?>
<svg id="uuid-5916aaec-1e84-4967-971a-c7a0e96fdd31" data-name="Ebene 2" xmlns="http://www.w3.org/2000/svg" viewBox="0 0 399.2428 902.2874">
  <g id="uuid-0d19d518-7e9e-433e-9d29-795da8da9920" data-name="ŕđ 1">
    <g>
      <path d="M224.7748,473.0985l-6.9558,98.6084h-30.6095l-19.0512-99.3384C74.3635,491.4991,3.9436,576.4.1527,681.2201c-4.4126,122.0124,87.4029,221.0673,195.2195,221.0673s209.2994-76.7048,203.6448-217.3176c-3.7119-92.3044-80.6106-190.6243-174.2422-211.8713Z" style="fill: #776551;"/>
      <path d="M218.6313,401.3896l1.2284-274.5381h-32.6502l-7.6229,262.7078c-.8107,27.9345-4.6425,55.6993-11.4283,82.8092h0l19.0512,99.3384h30.6095l6.9558-98.6084-1.9336-13.001c-2.8904-19.434-4.2979-39.06-4.2099-58.7079Z" style="fill: #56564f;"/>
      <path d="M167.093,38.6831c-.6851.6851-1.6317,1.1087-2.6779,1.1087l-22.4767.0007c-2.092-.0001-3.7865-1.6946-3.7867-3.7866-.0012-2.0907,1.6947-3.7866,3.7866-3.7866l22.4769-.0006c2.092,0,3.7865,1.6946,3.7865,3.7865.0007,1.0455-.4236,1.9928-1.1087,2.6779Z" style="fill: #565654;"/>
      <path d="M177.7713,74.0552c-.6851.6851-1.6324,1.1094-2.6776,1.1087l-25.5979-.0006c-2.0921.0001-3.7867-1.6945-3.7866-3.7866-.0013-2.0908,1.6958-3.7878,3.7866-3.7865l25.5979.0007c2.0919,0,3.7864,1.6945,3.7865,3.7865.0007,1.0453-.4238,1.9927-1.1089,2.6778Z" style="fill: #565654;"/>
      <path d="M281.8451,741.0782l-174.3294.0002c-3.1389,0-5.6835-2.5446-5.6836-5.6836v-6.9986c.0001-3.1389,2.5447-5.6834,5.6836-5.6834h174.3296c3.1389,0,5.6834,2.5445,5.6834,5.6834v6.9986c0,3.139-2.5445,5.6836-5.6836,5.6834Z" style="fill: #a5a47c;"/>
      <circle cx="194.6805" cy="632.5004" r="19.622" style="fill: #514d41;"/>
      <path d="M221.1444,44.4709s19.3482-1.5115,26.6038-9.0694c7.2555-7.5578,12.9994-31.7432-24.7898-35.0685-37.7893-3.3254-53.5096,19.3481-53.5096,19.3481,0,0-12.0927,16.0226,1.2093,40.2078,13.3017,24.1851-2.4998,41.4171-2.4998,41.4171,0,0,9.7553,4.2323,13.9876,11.7901,4.2324,7.5579,5.0638,13.7554,5.0638,13.7554h32.65s17.6097-16.7785,19.4236-37.9405c1.8139-21.162-18.1389-44.4401-18.1389-44.4401Z" style="fill: #96957d;"/>
    </g>
  </g>
</svg>