<?xml version="1.0" encoding="UTF-8"?>
<svg id="uuid-e7f1becc-8ba4-4677-b9be-89d809dd0765" data-name="Ebene 2" xmlns="http://www.w3.org/2000/svg" viewBox="0 0 277.6168 622.6184">
  <g id="uuid-6160a36d-c7a3-4d26-9793-843c0104995a" data-name="ŕđ 1">
    <g>
      <path d="M0,158.3412v305.9361c0,4.526,2.4145,8.7081,6.3342,10.9711l252.28,145.6539c8.4455,4.8761,19.0024-1.219,19.0026-10.9711l-.0002-597.2439c.0002-9.7521-10.5568-15.8472-19.0025-10.9711L6.3342,147.37c-3.9196,2.2631-6.3342,6.4454-6.3342,10.9712Z" style="fill: #bf9e77;"/>
      <path d="M15.054,157.8946c2.0272,0,3.6705,1.6433,3.6704,3.6704,0,2.027-1.6432,3.6704-3.6702,3.6702-2.0271.0002-3.6704-1.6432-3.6704-3.6703s1.6433-3.6703,3.6702-3.6703Z" style="fill: #565650;"/>
      <path d="M19.4186,168.6415c2.0271.0002,3.6702,1.6433,3.6704,3.6704-.0002,2.0271-1.6433,3.6702-3.6704,3.6704-2.0272,0-3.6704-1.6432-3.6704-3.6704.0002-2.0271,1.6433-3.6702,3.6704-3.6704Z" style="fill: #565650;"/>
      <path d="M24.8471,179.6772c2.0272,0,3.6705,1.6433,3.6703,3.6704,0,2.0271-1.6431,3.6703-3.6703,3.6703s-3.6703-1.6433-3.6704-3.6703c0-2.0271,1.6433-3.6703,3.6704-3.6704Z" style="fill: #565650;"/>
      <path d="M31.3844,147.8068c2.027,0,3.6703,1.6432,3.6703,3.6704,0,2.027-1.6433,3.6702-3.6703,3.6703-2.0271-.0001-3.6704-1.6434-3.6704-3.6703s1.6432-3.6704,3.6704-3.6704Z" style="fill: #565650;"/>
      <path d="M35.7488,158.5538c2.0271-.0001,3.6704,1.6432,3.6702,3.6703.0002,2.027-1.6431,3.6703-3.6702,3.6702-2.0271.0001-3.6704-1.6432-3.6702-3.6702-.0002-2.0271,1.6431-3.6704,3.6702-3.6703Z" style="fill: #565650;"/>
      <path d="M41.1774,169.5894c2.0269,0,3.6702,1.6433,3.6704,3.6703-.0002,2.0271-1.6433,3.6703-3.6704,3.6704-2.0271-.0001-3.6704-1.6434-3.6704-3.6704s1.6432-3.6703,3.6704-3.6703Z" style="fill: #565650;"/>
      <path d="M49.1974,137.9969c2.0271,0,3.6703,1.6432,3.6703,3.6704s-1.6433,3.6702-3.6703,3.6704c-2.0271-.0002-3.6703-1.6433-3.6704-3.6704,0-2.0272,1.6433-3.6705,3.6704-3.6704Z" style="fill: #565650;"/>
      <path d="M53.5619,148.7438c2.027,0,3.6703,1.6433,3.6704,3.6704,0,2.0271-1.6434,3.6704-3.6704,3.6704s-3.6705-1.6433-3.6703-3.6704c-.0002-2.0271,1.6432-3.6704,3.6703-3.6704Z" style="fill: #565650;"/>
      <path d="M58.9904,159.7795c2.0271.0001,3.6702,1.6433,3.6704,3.6704-.0002,2.027-1.6433,3.6702-3.6704,3.6703-2.0271,0-3.6702-1.6433-3.6704-3.6703,0-2.0272,1.6432-3.6704,3.6704-3.6704Z" style="fill: #565650;"/>
      <path d="M66.9011,128.0778c2.0271-.0001,3.6704,1.6432,3.6704,3.6704s-1.6433,3.6702-3.6703,3.6702-3.6704-1.6433-3.6703-3.6703c0-2.0271,1.6432-3.6704,3.6702-3.6703Z" style="fill: #565650;"/>
      <path d="M71.2657,138.8247c2.0269,0,3.6702,1.6433,3.6702,3.6703s-1.6432,3.6703-3.6703,3.6703c-2.0271.0002-3.6704-1.6431-3.6703-3.6702,0-2.0272,1.6432-3.6704,3.6704-3.6704Z" style="fill: #565650;"/>
      <path d="M76.6942,149.8604c2.027-.0001,3.6703,1.6432,3.6703,3.6704,0,2.027-1.6433,3.6702-3.6703,3.6703-2.0271-.0001-3.6704-1.6434-3.6704-3.6703s1.6432-3.6704,3.6704-3.6704Z" style="fill: #565650;"/>
      <path d="M84.0348,118.9473c2.0271,0,3.6703,1.6432,3.6703,3.6704s-1.6433,3.6702-3.6702,3.6702-3.6704-1.6431-3.6704-3.6703c0-2.0271,1.6432-3.6704,3.6703-3.6703Z" style="fill: #565650;"/>
      <path d="M88.3993,129.6942c2.027,0,3.6703,1.6433,3.6704,3.6704-.0001,2.0271-1.6433,3.6702-3.6704,3.6704-2.027-.0002-3.6703-1.6435-3.6703-3.6704s1.6432-3.6704,3.6703-3.6704Z" style="fill: #565650;"/>
      <path d="M93.8278,140.7299c2.0272,0,3.6704,1.6432,3.6704,3.6704s-1.6433,3.6702-3.6704,3.6703c-2.027-.0001-3.6702-1.6433-3.6704-3.6703,0-2.0272,1.6434-3.6705,3.6704-3.6704Z" style="fill: #565650;"/>
      <path d="M139.1658,85.3038c2.0269,0,3.6702,1.6434,3.6702,3.6703s-1.6432,3.6704-3.6703,3.6704-3.6703-1.6434-3.6703-3.6703,1.6432-3.6704,3.6704-3.6704Z" style="fill: #565650;"/>
      <path d="M143.5302,96.0509c2.0271-.0001,3.6704,1.6432,3.6703,3.6702,0,2.0271-1.6432,3.6704-3.6703,3.6703-2.027.0001-3.6703-1.6432-3.6702-3.6703,0-2.027,1.6432-3.6703,3.6702-3.6702Z" style="fill: #565650;"/>
      <path d="M148.9588,107.0864c2.027,0,3.6703,1.6433,3.6703,3.6703s-1.6433,3.6704-3.6704,3.6703c-2.027.0001-3.6703-1.6432-3.6702-3.6702,0-2.0271,1.6432-3.6704,3.6703-3.6704Z" style="fill: #565650;"/>
      <path d="M158.5451,74.2682c2.0269,0,3.6702,1.6433,3.6704,3.6703-.0002,2.0271-1.6433,3.6703-3.6704,3.6704-2.0271-.0001-3.6704-1.6434-3.6704-3.6704s1.6432-3.6703,3.6704-3.6703Z" style="fill: #565650;"/>
      <path d="M162.9095,85.0152c2.0271-.0001,3.6704,1.6432,3.6703,3.6702,0,2.0271-1.6432,3.6704-3.6703,3.6703-2.027.0001-3.6703-1.6432-3.6702-3.6703-.0001-2.027,1.6432-3.6703,3.6702-3.6702Z" style="fill: #565650;"/>
      <path d="M168.3381,96.0508c2.027,0,3.6703,1.6433,3.6704,3.6703,0,2.0271-1.6433,3.6703-3.6704,3.6704-2.0271,0-3.6704-1.6433-3.6703-3.6704,0-2.0272,1.6432-3.6703,3.6703-3.6703Z" style="fill: #565650;"/>
      <path d="M177.9244,63.2325c2.0272,0,3.6704,1.6432,3.6704,3.6704,0,2.027-1.6433,3.6702-3.6704,3.6703-2.027-.0001-3.6702-1.6433-3.6704-3.6703.0002-2.0271,1.6434-3.6703,3.6704-3.6704Z" style="fill: #565650;"/>
      <path d="M182.2889,73.9795c2.0271,0,3.6703,1.6432,3.6703,3.6704s-1.6433,3.6702-3.6702,3.6702-3.6704-1.6432-3.6704-3.6703c-.0001-2.0271,1.6432-3.6704,3.6703-3.6703Z" style="fill: #565650;"/>
      <path d="M187.7174,85.0151c2.0271.0001,3.6703,1.6433,3.6704,3.6703,0,2.0271-1.6433,3.6703-3.6704,3.6704-2.0271,0-3.6703-1.6432-3.6703-3.6704,0-2.027,1.6433-3.6702,3.6703-3.6703Z" style="fill: #565650;"/>
      <path d="M197.3037,52.1968c2.0272,0,3.6705,1.6433,3.6704,3.6704,0,2.0272-1.6432,3.6704-3.6704,3.6704s-3.6702-1.6433-3.6703-3.6704c0-2.0271,1.6433-3.6702,3.6703-3.6704Z" style="fill: #565650;"/>
      <path d="M201.6682,62.9439c2.0271,0,3.6703,1.6432,3.6703,3.6703s-1.6433,3.6703-3.6702,3.6703-3.6704-1.6432-3.6704-3.6704,1.6433-3.6702,3.6703-3.6702Z" style="fill: #565650;"/>
      <path d="M207.0968,73.9794c2.027,0,3.6703,1.6434,3.6703,3.6704s-1.6432,3.6703-3.6703,3.6703-3.6703-1.6433-3.6704-3.6703c.0001-2.0271,1.6433-3.6703,3.6704-3.6704Z" style="fill: #565650;"/>
      <path d="M216.6831,41.1613c2.0271-.0001,3.6704,1.6432,3.6703,3.6702.0001,2.0271-1.6432,3.6704-3.6704,3.6704s-3.6702-1.6433-3.6702-3.6702,1.6433-3.6705,3.6703-3.6704Z" style="fill: #565650;"/>
      <path d="M221.0475,51.9082c2.0271,0,3.6704,1.6433,3.6703,3.6704,0,2.027-1.6432,3.6703-3.6702,3.6702-2.0271.0001-3.6704-1.6432-3.6704-3.6704s1.6433-3.6702,3.6703-3.6702Z" style="fill: #565650;"/>
      <path d="M226.4762,62.9439c2.0269,0,3.6702,1.6433,3.6702,3.6702s-1.6432,3.6704-3.6703,3.6704-3.6703-1.6433-3.6703-3.6703,1.6432-3.6703,3.6704-3.6703Z" style="fill: #565650;"/>
      <path d="M236.0624,30.1256c2.0271,0,3.6704,1.6432,3.6704,3.6704s-1.6433,3.6702-3.6704,3.6703c-2.027-.0001-3.6703-1.6434-3.6703-3.6703s1.6433-3.6705,3.6703-3.6704Z" style="fill: #565650;"/>
      <path d="M240.427,40.8725c2.0269,0,3.6703,1.6433,3.6703,3.6703s-1.6434,3.6704-3.6704,3.6703c-2.0271.0001-3.6704-1.6432-3.6703-3.6702,0-2.0271,1.6432-3.6704,3.6704-3.6704Z" style="fill: #565650;"/>
      <path d="M245.8555,51.9082c2.0269,0,3.6702,1.6433,3.6703,3.6704,0,2.027-1.6433,3.6702-3.6703,3.6703-2.0271-.0001-3.6704-1.6434-3.6704-3.6703s1.6432-3.6704,3.6704-3.6704Z" style="fill: #565650;"/>
      <path d="M255.4417,19.09c2.0272,0,3.6704,1.6431,3.6704,3.6703s-1.6433,3.6703-3.6704,3.6704c-2.027-.0001-3.6702-1.6433-3.6703-3.6704,0-2.0272,1.6433-3.6705,3.6703-3.6703Z" style="fill: #565650;"/>
      <path d="M259.9283,31.5291c2.0272,0,3.6705,1.6433,3.6704,3.6704,0,2.027-1.6432,3.6703-3.6703,3.6702-2.027,0-3.6703-1.6432-3.6703-3.6704s1.6433-3.6702,3.6702-3.6702Z" style="fill: #565650;"/>
      <path d="M264.0142,43.3154c2.0272,0,3.6704,1.6432,3.6704,3.6704s-1.6433,3.6703-3.6703,3.6703-3.6703-1.6432-3.6703-3.6704,1.6433-3.6703,3.6702-3.6703Z" style="fill: #565650;"/>
      <path d="M101.2496,108.0559c2.027.0002,3.6702,1.6433,3.6704,3.6704-.0002,2.0271-1.6435,3.6704-3.6704,3.6704s-3.6704-1.6432-3.6704-3.6704c0-2.0271,1.6432-3.6704,3.6704-3.6704Z" style="fill: #565650;"/>
      <path d="M105.614,118.803c2.027,0,3.6703,1.6433,3.6704,3.6703,0,2.0271-1.6433,3.6703-3.6704,3.6704-2.027-.0001-3.6703-1.6434-3.6703-3.6704s1.6432-3.6703,3.6703-3.6703Z" style="fill: #565650;"/>
      <path d="M111.0425,129.8386c2.0272,0,3.6704,1.6432,3.6704,3.6704s-1.6433,3.6702-3.6703,3.6702-3.6703-1.6432-3.6703-3.6703c0-2.0271,1.6432-3.6704,3.6702-3.6703Z" style="fill: #565650;"/>
      <path d="M119.5283,97.1648c2.0271,0,3.6704,1.6432,3.6703,3.6702,0,2.0271-1.6432,3.6704-3.6703,3.6703-2.027.0001-3.6703-1.6432-3.6702-3.6703-.0001-2.027,1.6432-3.6703,3.6702-3.6702Z" style="fill: #565650;"/>
      <path d="M123.8929,107.9117c2.0269,0,3.6702,1.6433,3.6702,3.6702s-1.6431,3.6704-3.6703,3.6704c-2.0271,0-3.6704-1.6432-3.6703-3.6703,0-2.0271,1.6432-3.6703,3.6704-3.6703Z" style="fill: #565650;"/>
      <path d="M129.3214,118.9473c2.027-.0001,3.6703,1.6432,3.6702,3.6703.0001,2.027-1.6432,3.6703-3.6703,3.6703s-3.6703-1.6433-3.6703-3.6702,1.6433-3.6705,3.6704-3.6704Z" style="fill: #565650;"/>
      <path d="M259.5439,74.5632c-.2651.2651-.5727.4989-.9181.6903l-100.5667,55.5703c-1.9814,1.0946-4.4763.3755-5.572-1.606-1.0946-1.9802-.3794-4.4723,1.6059-5.572l100.5669-55.5702c1.9812-1.0946,4.4762-.3755,5.5719,1.6059.9043,1.6359.5714,3.6224-.6879,4.8817Z" style="fill: #565654;"/>
      <path d="M259.541,217.4809c-.5221.5221-1.192.9099-1.9633,1.09l-235.577,55.093c-2.2062.5163-4.4119-.8534-4.9271-3.0584-.5147-2.2046.8528-4.4113,3.0583-4.9259l235.5772-55.0929c2.2062-.5166,4.4117.8533,4.927,3.0582.3347,1.4332-.1256,2.8665-1.0951,3.836Z" style="fill: #565654;"/>
      <path d="M259.5433,564.7433c-1.2595,1.2594-3.2459,1.5924-4.8824.6875l-100.5685-55.5709c-1.9818-1.0963-2.6999-3.5902-1.6058-5.5721,1.1006-1.9841,3.5912-2.7011,5.572-1.6058l100.5684,55.5707c1.9819,1.0964,2.6999,3.5902,1.606,5.5722-.1914.3454-.4247.6534-.6897.9184Z" style="fill: #565654;"/>
      <path d="M259.5455,433.087c-.9694.9694-2.4021,1.4303-3.8359,1.095l-235.5771-55.0928c-2.2049-.5153-3.5748-2.7208-3.0584-4.9272.5159-2.2043,2.7215-3.5729,4.926-3.0583l235.5782,55.0941c2.205.5154,3.5743,2.7203,3.0578,4.9266-.18.7712-.5685,1.4405-1.0906,1.9626Z" style="fill: #565654;"/>
      <circle cx="158.565" cy="316.6489" r="30.7314" transform="translate(-193.1489 275.3366) rotate(-56.7009)" style="fill: #4f4d4c;"/>
      <circle cx="48.4817" cy="313.7154" r="15.9507" style="fill: #4f4d4c;"/>
      <circle cx="222.2493" cy="480.1617" r="19.0368" transform="translate(-238.8042 220.5858) rotate(-35.7825)" style="fill: #4f4d4c;"/>
      <path d="M222.2494,135.4406c10.5137,0,19.0367,8.523,19.0367,19.0367-.0001,10.5138-8.5231,19.0369-19.0368,19.0369s-19.0368-8.5231-19.0368-19.0368c-.0001-10.5138,8.523-19.0368,19.0369-19.0368Z" style="fill: #4f4d4c;"/>
    </g>
  </g>
</svg>