<?xml version="1.0" encoding="UTF-8"?>
<svg id="uuid-2f4ec4fa-8a2b-420c-8c9a-3bad3d0d6acf" data-name="Ebene 2" xmlns="http://www.w3.org/2000/svg" viewBox="0 0 491.2948 491.2324">
  <g id="uuid-8ccf4031-6e63-4da9-920a-5ece1aa58826" data-name="ŕđ 1">
    <g>
      <path d="M36.8997,436.153c-1.3571-1.3571-2.2494-2.9988-2.698-4.7314l-24.4748,24.4749,25.5304,25.5305,24.475-24.475c-1.7326-.4485-3.3743-1.3407-4.7316-2.698l-18.101-18.101Z" style="fill: #c9b299;"/>
      <path d="M35.5771,481.7468l-26.0912-26.0913c-1.1767-1.1767-3.0503-1.2797-4.3488-.2391h0c-6.3732,5.1071-6.8963,14.6187-1.1213,20.3937l11.4065,11.4065c5.7469,5.7468,15.2032,5.2614,20.3313-1.0439l.0478-.0587c1.0557-1.2981.9587-3.1842-.2243-4.3672Z" style="fill: #9b805c;"/>
      <path d="M82.12,390.9327l18.101,18.1011c2.0738,2.0737,3.0799,4.8072,3.0323,7.5252l216.4905-212.5069-32.6427-32.6427-212.5069,216.4907c2.718-.0478,5.4515.9585,7.5258,3.0326Z" style="fill: #9b805c;"/>
      <path d="M103.2533,416.559c.0476-2.718-.9585-5.4515-3.0323-7.5252l-18.101-18.1011c-2.0743-2.0741-4.8078-3.0804-7.5258-3.0326-2.5957.0461-5.1777,1.0519-7.1583,3.0325l-30.5366,30.5366c-2.6976,2.6974-3.5898,6.508-2.6976,9.9524.4486,1.7326,1.3409,3.3743,2.698,4.7314l18.101,18.101c1.3573,1.3573,2.999,2.2495,4.7316,2.698,3.4441.8916,7.2544-.0005,9.9518-2.698l30.5366-30.5365c1.9807-1.9807,2.9867-4.563,3.0326-7.1585Z" style="fill: #91907b;"/>
      <path d="M111.8961,387.9244c-2.3935,2.3934-6.2739,2.3934-8.6673,0s-2.3933-6.2739,0-8.6672,6.2738-2.3934,8.6673,0c2.3934,2.3933,2.3934,6.2739,0,8.6672Z" style="fill: #514d41;"/>
      <path d="M142.1396,357.6808c-2.3934,2.3935-6.2738,2.3935-8.6673,0-2.3932-2.3933-2.3932-6.2738,0-8.6671,2.3935-2.3934,6.2739-2.3934,8.6673,0,2.3935,2.3933,2.3935,6.2738,0,8.6671Z" style="fill: #514d41;"/>
      <path d="M172.3832,327.4373c-2.3935,2.3934-6.2739,2.3934-8.6672,0-2.3934-2.3933-2.3934-6.2738,0-8.6671,2.3933-2.3935,6.2737-2.3935,8.6672,0,2.3934,2.3933,2.3934,6.2738,0,8.6671Z" style="fill: #514d41;"/>
      <path d="M202.6267,297.1938c-2.3933,2.3934-6.2738,2.3934-8.6671,0-2.3935-2.3935-2.3935-6.2739,0-8.6673,2.3933-2.3933,6.2738-2.3933,8.6671,0,2.3934,2.3934,2.3934,6.2738,0,8.6673Z" style="fill: #514d41;"/>
      <path d="M232.8702,266.9502c-2.3933,2.3935-6.2738,2.3935-8.6671,0-2.3934-2.3934-2.3934-6.2738,0-8.6672,2.3933-2.3933,6.2738-2.3933,8.6671,0,2.3935,2.3934,2.3935,6.2738,0,8.6672Z" style="fill: #514d41;"/>
      <path d="M263.1138,236.7067c-2.3933,2.3933-6.2737,2.3933-8.6672,0-2.3934-2.3934-2.3934-6.2738,0-8.6673,2.3935-2.3933,6.2739-2.3933,8.6672,0,2.3934,2.3935,2.3934,6.2739,0,8.6673Z" style="fill: #514d41;"/>
      <path d="M359.8537,168.6064l-37.1653-37.1653-34.7916,29.5672c-3.2577,2.7766-3.4553,7.7415-.4285,10.7683l32.0028,32.0028c3.0268,3.0268,7.9917,2.8292,10.7683-.4285l29.6143-34.7445Z" style="fill: #91907b;"/>
      <rect x="356.5372" y="49.7227" width="52.5597" height="117.51" transform="translate(188.8299 -238.9202) rotate(45)" style="fill: #c9b299;"/>
      <path d="M442.9458,85.5143l-37.1653-37.1653,4.6851-6.4263c11.2146-15.3819,24.7563-28.9236,40.1382-40.1382h0c3.6996-2.6972,8.8123-2.2992,12.0497.9383l25.9185,25.9185c3.2375,3.2374,3.6355,8.3501.9383,12.0497h0c-11.2146,15.3819-24.7563,28.9236-40.1382,40.1382l-6.4263,4.6851Z" style="fill: #91907b;"/>
      <path d="M384.0397,71.4825h24.781v34.3737c0,6.8385-5.552,12.3904-12.3904,12.3904h-.0001c-6.8385,0-12.3904-5.552-12.3904-12.3904v-34.3737h0Z" transform="translate(183.1911 -252.5333) rotate(45)" style="fill: #514d41;"/>
    </g>
  </g>
</svg>