<?xml version="1.0" encoding="UTF-8"?>
<svg id="uuid-983eb212-01f9-4089-b1e7-ca72fe931941" data-name="Ebene 2" xmlns="http://www.w3.org/2000/svg" viewBox="0 0 608.982 599.6611">
  <g id="uuid-2b598d55-3e3d-464f-863e-da8471fa8671" data-name="ŕđ 1">
    <g>
      <polygon points="170.1823 465.8364 135.916 432.0974 473.3063 99.8985 507.5725 133.6373 170.1823 465.8364" style="fill: #b5af86;"/>
      <path d="M143.5601,507.6207l-50.0814-49.3108,26.8322-26.4193c4.2513-4.1857,11.1439-4.1857,15.3952,0l34.6862,34.1525c4.2512,4.1859,4.2512,10.9724,0,15.1584l-26.8322,26.4192Z" style="fill: #c4b4a3;"/>
      <path d="M94.2987,582.8403l-77.215-76.027c-2.2734-2.2382-1.2038-6.0622,1.9128-6.839h.0002c28.1872-7.0248,53.9219-21.4207,74.482-41.6644h0l50.0814,49.3108h0c-20.5599,20.2436-35.1807,45.5825-42.3155,73.3361h0c-.7888,3.0687-4.6725,4.1218-6.9458,1.8836Z" style="fill: #b5af86;"/>
      <path d="M235.8154,375.9701c-.9938,0-1.9883-.3734-2.7462-1.1203l-27.4127-26.991c-1.5173-1.494-1.5173-3.9139,0-5.4079,1.5157-1.4939,3.9766-1.4939,5.4921,0l27.413,26.991c1.5171,1.494,1.5171,3.9139,0,5.4079-.7579.7469-1.7525,1.1203-2.7462,1.1203Z" style="fill: #565654;"/>
      <path d="M292.0224,320.6272c-.9937,0-1.9883-.3734-2.7461-1.1204l-27.4128-26.9909c-1.5172-1.494-1.5172-3.9139,0-5.4079,1.5157-1.4939,3.9766-1.4939,5.4923,0l27.4128,26.991c1.5173,1.494,1.5173,3.9139,0,5.4078-.7579.747-1.7523,1.1204-2.7462,1.1204Z" style="fill: #565654;"/>
      <path d="M348.2302,265.2842c-.9937,0-1.9883-.3734-2.7461-1.1204l-27.4128-26.9911c-1.5171-1.4938-1.5171-3.9137,0-5.4077,1.5157-1.4939,3.9766-1.4939,5.4923,0l27.4128,26.991c1.5173,1.494,1.5173,3.9139,0,5.4078-.7578.747-1.7523,1.1204-2.7462,1.1204Z" style="fill: #565654;"/>
      <path d="M462.1579,197.75c-.9939,0-1.9884-.3736-2.7462-1.1206l-27.4128-26.9909c-1.5173-1.494-1.5173-3.9139,0-5.4077,1.5157-1.494,3.9766-1.494,5.4922,0l27.4129,26.9909c1.5171,1.4938,1.5171,3.9139,0,5.4077-.7579.747-1.7525,1.1206-2.7461,1.1206Z" style="fill: #565654;"/>
      <path d="M507.5223,133.5881l-34.1659-33.6403c-5.0742-4.9962-5.0742-13.0966,0-18.0929l21.6896-21.3557c5.0743-4.9963,13.3013-4.9963,18.3756,0l34.1658,33.6402c5.0743,4.9961,5.0743,13.0966,0,18.0928l-21.6893,21.3559c-5.0743,4.9962-13.3014,4.9962-18.3758,0Z" style="fill: #c4b4a3;"/>
      <polygon points="547.5874 94.1395 513.3714 60.4498 589.7446 0 608.982 18.9415 547.5874 94.1395" style="fill: #b5af86;"/>
      <path d="M85.7765,595.991L3.7274,515.2043c-4.9699-4.8932-4.9699-12.827,0-17.7204h0c4.9699-4.8933,13.0275-4.8933,17.9974,0l82.0491,80.7867c4.9699,4.8934,4.9699,12.8271,0,17.7205h0c-4.9699,4.8934-13.0275,4.8934-17.9974,0Z" style="fill: #c4b4a3;"/>
      <path d="M265.3369,401.2132c-8.1521,8.0268-21.3695,8.0268-29.5217,0-8.1521-8.0269-8.1521-21.0407,0-29.0674,8.1522-8.0269,21.3696-8.0269,29.5217,0,8.1521,8.0267,8.1521,21.0405,0,29.0674Z" style="fill: #9e8c5a;"/>
      <path d="M321.5442,345.8706c-8.1521,8.0269-21.3693,8.0269-29.5216,0-8.1521-8.0267-8.1521-21.0405,0-29.0674,8.1523-8.0267,21.3695-8.0267,29.5216,0,8.1524,8.0269,8.1524,21.0407,0,29.0674Z" style="fill: #9e8c5a;"/>
      <path d="M377.7517,290.5281c-8.1523,8.0267-21.3695,8.0267-29.5216,0-8.1523-8.0267-8.1523-21.0407,0-29.0675,8.1521-8.0267,21.3693-8.0267,29.5216,0,8.1522,8.0268,8.1522,21.0408,0,29.0675Z" style="fill: #9e8c5a;"/>
      <path d="M405.2232,137.8665c-8.1521,8.0267-8.1521,21.0407,0,29.0675,8.1522,8.0267,21.3696,8.0267,29.5217,0,8.1521-8.0268,8.1521-21.0408,0-29.0675s-21.3695-8.0267-29.5217,0Z" style="fill: #9e8c5a;"/>
    </g>
  </g>
</svg>