<?xml version="1.0" encoding="UTF-8"?>
<svg id="uuid-b3c99293-de20-4cb9-baac-c6a0915b731f" data-name="Ebene 2" xmlns="http://www.w3.org/2000/svg" viewBox="0 0 358.6154 915.4851">
  <g id="uuid-6075696a-6f49-4c7d-946f-1a78812b5e94" data-name="ŕđ 1">
    <g>
      <path d="M50.8664,546.597h0c-6.3902,19.3838-6.3902,40.3067,0,59.6902h0l2.2033,7.0906c8.8399,28.4458,2.8726,59.4278-15.9005,82.5552l-6.8692,8.4626h.0183c-10.403,12.3016-18.6069,26.6768-23.8684,42.6371h-.0001c-8.5999,26.0868-8.5999,54.2451.0001,80.3319h0c17.3375,52.5901,66.4621,88.1205,121.8362,88.1205h102.0426c53.9868,0,102.1966-33.7992,120.6014-84.5518h.0002c10.2466-28.2562,10.2466-59.2131-.0001-87.4693h.0001c-5.2772-14.5521-13.0142-27.7009-22.6254-39.0684h.0153l-7.9463-10.1615c-18.9201-24.1938-24.0386-56.4292-13.5434-85.2937h0c.0003-.0005.0004-.0009.0006-.0013l-.0002-.0002c7.6141-20.9955,7.6139-43.9979,0-64.9936h0c-13.6755-37.7116-49.4975-62.8259-89.6122-62.8259h-75.8225c-41.1456,0-77.6473,26.4008-90.5299,65.4776Z" style="fill: #937148;"/>
      <circle cx="185.2167" cy="641.3932" r="55.6833" transform="translate(-381.0625 287.8138) rotate(-41.9125)" style="fill: #4f4d4c;"/>
      <path d="M155.7409,594.157c8.55-5.3466,18.6484-8.4473,29.4757-8.4473,10.8428-.0001,20.9542,3.1099,29.5121,8.4704l-7.0018-436.167-42.6513.0002-9.3347,436.1437Z" style="fill: #564d43;"/>
      <path d="M271.7037,794.6918v19.6053c0,3.0925-2.5067,5.5992-5.5991,5.5992H99.5896c-3.0923,0-5.5991-2.5067-5.5991-5.5991v-19.6054c0-3.0924,2.5068-5.5992,5.5991-5.5991h166.515c3.0924,0,5.5991,2.5067,5.5991,5.5991Z" style="fill: #60472c;"/>
      <path d="M165.0756,158.0133l-1.6102-2.0008c-10.203-12.6767-15.7659-28.4604-15.7661-44.733V33.2844c0-7.6225,3.7521-14.7565,10.0328-19.076l14.734-10.1328c7.7177-5.3077,17.8732-5.4418,25.7286-.3402l12.1545,7.8937c6.5744,4.2699,10.5418,11.5767,10.5417,19.4161v85.0935c0,12.5968-3.3352,24.9691-9.6668,35.8591l-3.4972,6.0153-42.6513.0002Z" style="fill: #60472c;"/>
      <path d="M174.473,131.1561c-.8167.8167-1.9309,1.3411-3.1759,1.3912-2.6296.1065-4.8472-1.9386-4.9537-4.5682l-3.7951-93.5992c-.1053-2.6284,1.9393-4.8479,4.5681-4.9538,2.6296-.1067,4.8473,1.9387,4.9539,4.5681l3.7949,93.5993c.0561,1.3838-.4842,2.6545-1.3922,3.5626Z" style="fill: #777774;"/>
      <path d="M200.5876,131.5634c-.8897.8897-2.1274,1.4275-3.4851,1.3951-2.6301-.0639-4.7117-2.2478-4.6483-4.8788l2.2583-93.6485c.0625-2.6302,2.2459-4.7109,4.8789-4.6485,2.6302.0639,4.7115,2.2479,4.6483,4.8788l-2.2583,93.6486c-.031,1.2733-.5587,2.4183-1.3938,3.2533Z" style="fill: #777774;"/>
    </g>
  </g>
</svg>