<?xml version="1.0" encoding="UTF-8"?>
<svg id="uuid-e3890aa0-d516-48b2-b8e9-adf11b562947" data-name="Ebene 2" xmlns="http://www.w3.org/2000/svg" viewBox="0 0 415.6503 486.7201">
  <g id="uuid-b71c0fbd-0c92-4025-aba8-ab9a6c155030" data-name="ŕđ 1">
    <g>
      <path d="M142.9013,419.3304c-2.2297,0-4.0366-1.8071-4.0366-4.0366V61.3623c0-2.2295,1.8069-4.0366,4.0365-4.0366s4.0366,1.8071,4.0366,4.0366v353.9315c.0001,2.2295-1.807,4.0366-4.0365,4.0366Z" style="fill: #565654;"/>
      <path d="M175.9129,428.6862c-2.2296,0-4.0366-1.8069-4.0366-4.0366V61.3623c0-2.2295,1.8069-4.0366,4.0365-4.0366s4.0366,1.8071,4.0366,4.0366v363.2873c0,2.2297-1.807,4.0366-4.0365,4.0366Z" style="fill: #565654;"/>
      <path d="M208.9261,430.5815c-2.2296,0-4.0365-1.807-4.0365-4.0366V61.3623c0-2.2295,1.8068-4.0366,4.0365-4.0366s4.0366,1.8071,4.0366,4.0366v365.1826c0,2.2296-1.8071,4.0366-4.0366,4.0366Z" style="fill: #565654;"/>
      <path d="M241.9378,430.5815c-2.2297,0-4.0366-1.807-4.0366-4.0366V61.3623c0-2.2295,1.8068-4.0366,4.0365-4.0366s4.0366,1.8071,4.0366,4.0366v365.1826c0,2.2296-1.8071,4.0366-4.0365,4.0366Z" style="fill: #565654;"/>
      <path d="M274.9494,427.1922c-2.2297,0-4.0366-1.807-4.0366-4.0366V61.3623c0-2.2295,1.8069-4.0366,4.0365-4.0366s4.0366,1.8071,4.0366,4.0366v361.7933c.0001,2.2296-1.807,4.0366-4.0365,4.0366Z" style="fill: #565654;"/>
      <path d="M110.5376,452.7755h194.5752v20.3993c0,7.4759-6.0694,13.5453-13.5453,13.5453H124.0829c-7.4759,0-13.5453-6.0694-13.5453-13.5453v-20.3993h0Z" style="fill: #bf9562;"/>
      <rect x="105.273" y="39.4257" width="207.3045" height="21.9367" style="fill: #7f5c2e;"/>
      <path d="M404.4221,218.1121l-64.8707-177.3882h-9.1248c-14.1225,0-24.2003,13.6875-20.0066,27.1731l51.542,165.7429c6.676,18.2537,9.4331,37.3431,8.1952,56.7392l-.145,2.2746c-4.68,73.3801-65.5611,130.5021-139.0904,130.5021h-44.4912c-74.9744,0-137.8856-58.5041-141.0931-133.41-.796-18.5932,2.074-36.87,8.5302-54.3217l55.074-167.1935c4.4644-13.5532-5.6304-27.5067-19.8999-27.5067h-11.3488L11.467,219.7373C2.9675,242.712-.8741,267.1492.1667,291.6236H.1667c0,97.6117,79.1297,176.7414,176.7411,176.7414h54.0145c97.38-.0001,178.0093-75.6499,184.2085-172.8326l.1452-2.2749c1.6283-25.5297-2.0679-51.1195-10.8539-75.1454Z" style="fill: #7f5c2e;"/>
      <circle cx="63.2158" cy="49.1543" r="49.1543" transform="translate(2.9939 101.934) rotate(-79.0993)" style="fill: #bf9562;"/>
      <circle cx="356.1879" cy="49.1542" r="49.1542" style="fill: #bf9562;"/>
    </g>
  </g>
</svg>