<?xml version="1.0" encoding="UTF-8"?>
<svg id="uuid-2877ef06-6024-468f-8cce-dfd8a6cde73d" data-name="Ebene 2" xmlns="http://www.w3.org/2000/svg" viewBox="0 0 354.0468 609.5483">
  <g id="uuid-fd8fc6fc-8d16-45c3-9a00-f316ff082c2b" data-name="ŕđ 1">
    <g>
      <path d="M119.6432,577.6343l-20.6299,3.6482L4.1169,44.6582c-2.015-11.3936,5.5881-22.2634,16.9817-24.2782h0l98.5446,557.2543Z" style="fill: #7f6c5e;"/>
      <path d="M128.4283,576.3775l69.6249,12.8519,152.7688-402.91c1.6722-4.4104-.4927-9.3478-4.8696-11.1058l-9.2425-3.7121-208.2816,404.876Z" style="fill: #6d5c50;"/>
      <path d="M155.3662,16.3946c46.8915,29.7628,63.4968,82.8829,75.2735,131.6958,2.0431,6.1911,3.474,17.289,14.1093,20.6729,17.5588,5.5871,33.8467-14.377,50.913-22.6104,26.7932-15.5046,65.2628,3.7781,57.3275,37.1266-.0154.0561-.0308.1122-.0466.1681-1.8293,6.5601-10.805,7.6026-14.2342,1.7186-2.075-3.5599-4.5866-6.5588-7.4733-8.8616-6.9617-5.5535-13.0877-2.6542-16.5431,1.1759-12.7241,14.1035-28.3886,31.2562-48.7737,38.9087-45.6742,18.3973-83.5283-15.9653-100.6418-54.8727-13.0133-26.0646-28.2778-58.097-54.7467-68.3516-46.7118-18.0972-72.3217,7.9388-92.5565,12.8736-4.4154,1.0769-8.8175-1.8195-9.6044-6.2958L.7312,56.2988C-4.2406,28.0208,16.7431,1.7091,45.4283.478c37.2981-1.6005,84.6789.1342,109.9379,15.9166Z" style="fill: #6d5c50;"/>
      <rect x="94.5092" y="561.6626" width="112.7312" height="47.8857" rx="11.149" ry="11.149" style="fill: #6d5c50;"/>
    </g>
  </g>
</svg>