<?xml version="1.0" encoding="UTF-8"?>
<svg id="uuid-c7b445a8-6f80-4760-aebc-4a94727ad900" data-name="Ebene 2" xmlns="http://www.w3.org/2000/svg" viewBox="0 0 284.8341 774.8489">
  <g id="uuid-d252d232-dae8-4e33-be65-71cb6eb30c53" data-name="ŕđ 1">
    <g>
      <path d="M284.8341,595.3267c0,99.1473-63.7623,179.5221-142.417,179.5222C63.7623,774.8488,0,694.474,0,595.3267c0-99.1473,63.7623-179.522,142.4171-179.5219,78.6547,0,142.4171,80.3746,142.417,179.5219Z" style="fill: #5e4d24;"/>
      <path d="M175.7946,513.1087c0,18.4338-14.9436,33.3775-33.3775,33.3776-18.4339-.0001-33.3776-14.9438-33.3776-33.3776s14.9437-33.3776,33.3776-33.3775c18.4338,0,33.3774,14.9436,33.3775,33.3775Z" style="fill: #727269;"/>
      <path d="M102.5025,662.9669c3.1473-.6804,6.411-1.0478,9.762-1.0478,11.4309.0002,21.8796,4.1789,29.9249,11.0804,8.0454-6.9015,18.4939-11.0804,29.9249-11.0804,3.5079,0,6.919.4057,10.2021,1.1494,1.4499-8.3877,8.3689-14.8962,16.9626-15.6957h-113.7237c8.5591.7966,15.4594,7.255,16.9472,15.5941Z" style="fill: #b5a885;"/>
      <polygon points="116.187 0 120.561 436.7364 168.6471 436.7364 138.664 0 116.187 0" style="fill: #6b675e;"/>
      <path d="M107.2106,104.0664c0,3.8429-6.2307,6.9584-13.9166,6.9583-7.686,0-13.9166-3.1153-13.9166-6.9583,0-3.8429,6.2306-6.9583,13.9165-6.9583,7.686-.0001,13.9166,3.1154,13.9167,6.9583Z" style="fill: #96957d;"/>
      <path d="M183.5178,102.6754c0,3.8431-6.2306,6.9583-13.9166,6.9584-7.6859,0-13.9166-3.1153-13.9166-6.9584.0001-3.8429,6.2306-6.9582,13.9167-6.9582s13.9167,3.1153,13.9165,6.9582Z" style="fill: #96957d;"/>
      <path d="M186.8462,151.7761c0,3.843-6.2308,6.9584-13.9166,6.9584s-13.9167-3.1154-13.9167-6.9584c.0002-3.8429,6.2307-6.9583,13.9167-6.9584,7.6859,0,13.9165,3.1155,13.9166,6.9584Z" style="fill: #96957d;"/>
      <path d="M107.8626,151.7761c0,3.843-6.2307,6.9584-13.9166,6.9584s-13.9166-3.1154-13.9166-6.9584,6.2306-6.9583,13.9165-6.9583,13.9166,3.1154,13.9167,6.9583Z" style="fill: #96957d;"/>
    </g>
  </g>
</svg>