<?xml version="1.0" encoding="UTF-8"?>
<svg id="uuid-795b1ab4-f2d2-4413-a7f6-59ff67565c80" data-name="Ebene 2" xmlns="http://www.w3.org/2000/svg" viewBox="0 0 274.5479 1007.6655">
  <g id="uuid-26b5401c-51ff-49da-a2dd-45accccb7cc3" data-name="ŕđ 1">
    <g>
      <circle cx="137.274" cy="870.3916" r="137.2739" transform="translate(-575.2532 351.9991) rotate(-45)" style="fill: #c4ab8c;"/>
      <path d="M211.3394,29.3011c-15.2918,0-30.2962,4.156-43.4088,12.0234l-4.7537,2.8527-2.2535-14.8763.7964-1.0813c7.7437-10.5118,18.1256-18.7926,30.0957-24.0051L201.4943.0001h-18.0919C171.2107.0001,159.9903,6.6521,154.1402,17.3487l-6.2903,11.5015c-6.5981.5998-13.2367.6-19.8348,0l-6.2895-11.5007C115.8762,6.6526,104.6559.0001,92.464.0001h-18.0925l9.6781,4.2144c11.9705,5.2125,22.3527,13.4933,30.0963,24.005l.7964,1.0816-2.2534,14.8761-4.7546-2.8526c-13.1124-7.8675-28.1169-12.0237-43.4086-12.0235h-9.5379l11.6467,9.213c12.1359,9.6005,26.6789,15.6783,42.0374,17.5687l5.8193.7164,4.5085,69.8722,1.648,55.9808c.1139,3.8688,1.4798,7.515,3.7737,10.479l.0029-.2121h27.1162l.0007.0736c2.2316-2.9398,3.5643-6.5301,3.6767-10.3406l1.6475-55.9807,4.5077-69.8722,5.8199-.7163c15.3587-1.8902,29.9017-7.9678,42.0368-17.568l11.6481-9.214-9.5385.0002Z" style="fill: #898367;"/>
      <polygon points="151.5412 192.9927 151.5405 192.9191 124.4243 192.9191 124.4214 193.1312 114.5338 806.415 160.0145 806.415 151.5412 192.9927" style="fill: #564830;"/>
      <path d="M201.4241,853.6192c-.8034.8034-1.9136,1.3003-3.1402,1.3002h-122.0203c-2.4534,0-4.4406-1.9872-4.4407-4.4406,0-2.4535,1.9872-4.4407,4.4407-4.4407h122.0201c2.4535,0,4.4408,1.9872,4.4408,4.4407,0,1.2268-.4968,2.3368-1.3004,3.1404Z" style="fill: #565654;"/>
      <polygon points="110.0156 961.9075 164.5325 960.9189 156.4797 991.4243 119.0518 991.4242 110.0156 961.9075" style="fill: #564830;"/>
    </g>
  </g>
</svg>