<?xml version="1.0" encoding="UTF-8"?>
<svg id="uuid-d2486c66-e846-4e96-b1b1-73a700d8a017" data-name="Ebene 2" xmlns="http://www.w3.org/2000/svg" viewBox="0 0 956.5443 777.8927">
  <g id="uuid-96dbe0e4-94bd-4308-8a59-854493ed7786" data-name="ŕđ 1">
    <g>
      <g>
        <path d="M112.4104,5.589h0c1.1152-4.0503,5.3027-6.4293,9.3531-5.3142l271.3425,74.7222-4.0389,14.6672L117.7244,14.942c-4.0503-1.1151-6.4294-5.3027-5.314-9.353Z" style="fill: #9b8675;"/>
        <path d="M385.9711,100.9071c-10.2596-2.8252-16.2863-13.4326-13.4612-23.6922,2.8253-10.2594,13.4328-16.2861,23.6924-13.461,10.2594,2.8254,16.2861,13.4328,13.461,23.6922-2.8254,10.2596-13.4328,16.2863-23.6922,13.461Z" style="fill: #5e4a38;"/>
        <path d="M844.1339,5.589h0c-1.1154-4.0503-5.303-6.4293-9.3533-5.3142l-271.3425,74.7222,4.0391,14.6672L838.8197,14.942c4.0503-1.1151,6.4294-5.3027,5.3142-9.353Z" style="fill: #9b8675;"/>
        <path d="M570.5732,100.9071c10.2594-2.8252,16.2861-13.4326,13.461-23.6922-2.8254-10.2594-13.4328-16.2861-23.6922-13.461-10.2596,2.8254-16.2863,13.4328-13.4609,23.6922,2.8251,10.2596,13.4325,16.2863,23.6921,13.461Z" style="fill: #5e4a38;"/>
      </g>
      <rect x="10.1758" y="253.3896" width="31.0127" height="498.8209" style="fill: #61717f;"/>
      <rect x="915.3556" y="253.3896" width="31.0127" height="498.8209" style="fill: #61717f;"/>
      <circle cx="25.6823" cy="752.2105" r="25.6822" transform="translate(-711.9162 602.4481) rotate(-76.5672)" style="fill: #4d5a63;"/>
      <path d="M956.5443,752.2105c0,14.1839-11.4985,25.6822-25.6822,25.6822s-25.6826-11.4983-25.6826-25.6822,11.4986-25.6823,25.6826-25.6823,25.6822,11.4983,25.6822,25.6823Z" style="fill: #4d5a63;"/>
      <path d="M62.1977,144.7999h36.1126c8.2874,0,15.0157,6.7283,15.0157,15.0157v23.5079H47.182v-23.5079c0-8.2874,6.7283-15.0157,15.0157-15.0157Z" style="fill: #998370;"/>
      <path d="M161.7023,144.7999h36.1126c8.2874,0,15.0157,6.7283,15.0157,15.0157v23.5079h-66.144v-23.5079c0-8.2874,6.7283-15.0157,15.0157-15.0157Z" style="fill: #998370;"/>
      <path d="M261.2066,144.7999h36.1128c8.2873,0,15.0155,6.7282,15.0155,15.0155v23.5081h-66.144v-23.5079c0-8.2874,6.7283-15.0157,15.0157-15.0157Z" style="fill: #998370;"/>
      <path d="M360.7112,144.7999h36.1128c8.2873,0,15.0155,6.7282,15.0155,15.0155v23.5081h-66.144v-23.5079c0-8.2874,6.7283-15.0157,15.0157-15.0157Z" style="fill: #998370;"/>
      <path d="M460.2157,144.7999h36.1129c8.2873,0,15.0155,6.7282,15.0155,15.0155v23.5081h-66.1441v-23.5079c0-8.2874,6.7283-15.0157,15.0157-15.0157Z" style="fill: #998370;"/>
      <path d="M559.7203,144.7999h36.1126c8.2874,0,15.0157,6.7283,15.0157,15.0157v23.5079h-66.144v-23.5079c0-8.2874,6.7283-15.0157,15.0157-15.0157Z" style="fill: #998370;"/>
      <path d="M659.2249,144.7999h36.1126c8.2874,0,15.0157,6.7283,15.0157,15.0157v23.5079h-66.144v-23.5079c0-8.2874,6.7283-15.0157,15.0157-15.0157Z" style="fill: #998370;"/>
      <path d="M758.7294,144.7999h36.1126c8.2874,0,15.0158,6.7284,15.0158,15.0158v23.5078h-66.1441v-23.5079c0-8.2874,6.7283-15.0157,15.0157-15.0157Z" style="fill: #998370;"/>
      <path d="M858.234,144.7999h36.1126c8.2874,0,15.0157,6.7283,15.0157,15.0157v23.5079h-66.144v-23.5079c0-8.2874,6.7283-15.0157,15.0157-15.0157Z" style="fill: #998370;"/>
      <path d="M87.8007,285.3947c-2.7555,0-4.9896-2.2341-4.9896-4.9896v-27.0153c0-2.7555,2.2341-4.9896,4.9896-4.9896s4.9896,2.2341,4.9896,4.9896v27.0153c0,2.7555-2.2341,4.9896-4.9896,4.9896Z" style="fill: #777774;"/>
      <path d="M174.7703,285.3947c-2.7552,0-4.9896-2.2341-4.9896-4.9896v-27.0153c0-2.7555,2.2344-4.9896,4.9896-4.9896s4.9897,2.2341,4.9897,4.9896v27.0153c0,2.7555-2.2341,4.9896-4.9897,4.9896Z" style="fill: #777774;"/>
      <path d="M261.7403,285.3947c-2.7556,0-4.9897-2.2341-4.9897-4.9896v-27.0153c0-2.7555,2.2341-4.9896,4.9897-4.9896s4.9896,2.2341,4.9896,4.9896v27.0153c0,2.7555-2.2341,4.9896-4.9896,4.9896Z" style="fill: #777774;"/>
      <path d="M348.7077,285.3947c-2.7555,0-4.9896-2.2341-4.9896-4.9896v-27.0153c0-2.7555,2.2341-4.9896,4.9896-4.9896s4.9896,2.2341,4.9896,4.9896v27.0153c0,2.7555-2.2341,4.9896-4.9896,4.9896Z" style="fill: #777774;"/>
      <path d="M435.6773,285.3947c-2.7555,0-4.9896-2.2341-4.9896-4.9896v-27.0153c0-2.7555,2.2341-4.9896,4.9896-4.9896s4.9897,2.2341,4.9897,4.9896v27.0153c0,2.7555-2.2341,4.9896-4.9897,4.9896Z" style="fill: #777774;"/>
      <path d="M522.6473,285.3947c-2.7555,0-4.9896-2.2341-4.9896-4.9896v-27.0153c0-2.7555,2.2341-4.9896,4.9896-4.9896s4.9896,2.2341,4.9896,4.9896v27.0153c0,2.7555-2.2341,4.9896-4.9896,4.9896Z" style="fill: #777774;"/>
      <path d="M609.6169,285.3947c-2.7555,0-4.9896-2.2341-4.9896-4.9896v-27.0153c0-2.7555,2.2341-4.9896,4.9896-4.9896s4.9896,2.2341,4.9896,4.9896v27.0153c0,2.7555-2.2341,4.9896-4.9896,4.9896Z" style="fill: #777774;"/>
      <path d="M696.5844,285.3947c-2.7556,0-4.9897-2.2341-4.9897-4.9896v-27.0153c0-2.7555,2.2341-4.9896,4.9897-4.9896s4.9896,2.2341,4.9896,4.9896v27.0153c0,2.7555-2.2341,4.9896-4.9896,4.9896Z" style="fill: #777774;"/>
      <path d="M783.5543,285.3947c-2.7555,0-4.9896-2.2341-4.9896-4.9896v-27.0153c0-2.7555,2.2341-4.9896,4.9896-4.9896s4.9896,2.2341,4.9896,4.9896v27.0153c0,2.7555-2.2344,4.9896-4.9896,4.9896Z" style="fill: #777774;"/>
      <path d="M870.5239,285.3947c-2.7555,0-4.9896-2.2341-4.9896-4.9896v-27.0153c0-2.7555,2.2341-4.9896,4.9896-4.9896s4.9897,2.2341,4.9897,4.9896v27.0153c0,2.7555-2.2341,4.9896-4.9897,4.9896Z" style="fill: #777774;"/>
      <rect x="69.2937" y="280.4058" width="37.0152" height="340.2398" style="fill: #878787;"/>
      <rect x="156.2629" y="280.4058" width="37.0152" height="320.8452" style="fill: #878787;"/>
      <rect x="243.232" y="280.4058" width="37.0152" height="296.807" style="fill: #878787;"/>
      <rect x="330.2012" y="280.4058" width="37.0152" height="266.6019" style="fill: #878787;"/>
      <rect x="417.1704" y="280.4058" width="37.0152" height="223.7531" style="fill: #878787;"/>
      <rect x="504.1396" y="280.4058" width="37.0151" height="179.7493" style="fill: #878787;"/>
      <rect x="591.1085" y="280.4058" width="37.0154" height="164.8106" style="fill: #878787;"/>
      <rect x="678.0776" y="280.4058" width="37.0155" height="167.9311" style="fill: #878787;"/>
      <rect x="765.0468" y="280.4058" width="37.0154" height="189.8856" style="fill: #878787;"/>
      <rect x="852.016" y="280.4058" width="37.0154" height="231.3398" style="fill: #878787;"/>
      <rect x="10.1758" y="183.3235" width="936.1925" height="70.0661" style="fill: #61717f;"/>
    </g>
  </g>
</svg>