<?xml version="1.0" encoding="UTF-8"?>
<svg id="uuid-380d5f11-27e2-4b50-97e1-75ae10ab85d3" data-name="Ebene 2" xmlns="http://www.w3.org/2000/svg" viewBox="0 0 435.7519 435.7519">
  <g id="uuid-91cd6ab5-d554-4069-be4e-2360f8e40882" data-name="ŕđ 1">
    <g>
      <path d="M432.0011,46.716L46.716,432.0012c-5.0011,5.001-13.1094,5.001-18.1104,0l-24.8549-24.855c-5.001-5.0011-5.001-13.1094,0-18.1104L389.0357,3.7508c5.001-5.001,13.1093-5.001,18.1105,0l24.8549,24.8549c5.001,5.001,5.001,13.1093,0,18.1103Z" style="fill: #c6b3a5;"/>
      <path d="M421.9434,75.1269l-7.3238,8.0598c-105.1323,115.6967-215.7363,226.3007-331.433,331.433l-8.0598,7.3238c-5.1318,4.6633-13.0214,4.4748-17.9247-.4284h0L421.515,57.2022h0c4.9032,4.9033,5.0919,12.7929.4284,17.9247Z" style="fill: #969493;"/>
      <path d="M360.6249,13.8085l-8.0599,7.3237C236.8684,126.2645,126.2645,236.8685,21.1321,352.5651l-7.3237,8.0599c-4.6635,5.1319-4.4748,13.0215.4284,17.9247h0L378.5496,14.2369h0c-4.9032-4.9032-12.7928-5.0919-17.9247-.4284Z" style="fill: #969493;"/>
      <rect x="66.54" y="342.5763" width="16.6969" height="36.574" transform="translate(-233.2346 158.6486) rotate(-45)" style="fill: #6d6a68;"/>
      <rect x="98.3151" y="310.8014" width="16.6968" height="36.574" transform="translate(-201.4603 171.8115) rotate(-45.0002)" style="fill: #6d6a68;"/>
      <rect x="130.0901" y="279.0264" width="16.6968" height="36.574" transform="translate(-169.6837 184.9692) rotate(-44.9995)" style="fill: #6d6a68;"/>
      <rect x="161.865" y="247.2514" width="16.6968" height="36.5739" transform="translate(-137.9099 198.1348) rotate(-45.0002)" style="fill: #6d6a68;"/>
      <rect x="193.64" y="215.4764" width="16.6969" height="36.5739" transform="translate(-106.1345 211.2925) rotate(-44.9995)" style="fill: #6d6a68;"/>
      <rect x="225.415" y="183.7015" width="16.6969" height="36.5739" transform="translate(-74.3595 224.4593) rotate(-45.0005)" style="fill: #6d6a68;"/>
      <rect x="257.19" y="151.9264" width="16.6968" height="36.574" transform="translate(-42.5844 237.6197) rotate(-45.0002)" style="fill: #6d6a68;"/>
      <rect x="288.965" y="120.1514" width="16.6968" height="36.574" transform="translate(-10.8097 250.78) rotate(-45)" style="fill: #6d6a68;"/>
      <rect x="320.74" y="88.3765" width="16.6968" height="36.574" transform="translate(20.9646 263.9403) rotate(-44.9998)" style="fill: #6d6a68;"/>
      <rect x="352.5149" y="56.6014" width="16.6969" height="36.574" transform="translate(52.7403 277.1032) rotate(-45)" style="fill: #6d6a68;"/>
    </g>
  </g>
</svg>