<?xml version="1.0" encoding="UTF-8"?>
<svg id="uuid-17d42616-0af6-4b5a-9c6e-69c6a9ced2a2" data-name="Ebene 2" xmlns="http://www.w3.org/2000/svg" viewBox="0 0 487.3207 522.6344">
  <g id="uuid-4c2210a4-fad6-4ce0-a5dc-307321b836d7" data-name="ŕđ 1">
    <g>
      <path d="M35.0918,522.6344L459.9035,97.8228l-35.0918-35.0918L0,487.5426h0c3.7969,17.5704,17.5215,31.2949,35.0918,35.0918h0Z" style="fill: #cdce9d;"/>
      <path d="M480.5772,1.1728l-56.6134,56.6132c-1.6777,1.6777-2.1185,4.2294-1.1012,6.3727l1.4593,3.0747c6.9505,14.6442,18.7005,26.4707,33.2992,33.5165h.0002c3.2319,1.5598,7.0772-.2739,7.8994-3.7671l21.6855-92.1168c.9102-3.8666-3.8202-6.502-6.629-3.6932Z" style="fill: #6d6a68;"/>
      <path d="M246.9171,275.7174c4.7473,4.7473,12.4442,4.7473,17.1915,0,4.7474-4.7474,4.7474-12.4443,0-17.1916-4.7473-4.7473-12.4442-4.7473-17.1915,0s-4.7473,12.4442,0,17.1916Z" style="fill: #6d6a68;"/>
      <path d="M210.1777,312.4568c4.7473,4.7473,12.4442,4.7473,17.1915,0s4.7474-12.4443,0-17.1916c-4.7473-4.7473-12.4442-4.7473-17.1915,0s-4.7473,12.4442,0,17.1916Z" style="fill: #6d6a68;"/>
      <path d="M173.4384,349.196c4.7472,4.7473,12.4441,4.7473,17.1914,0,4.7474-4.7471,4.7474-12.4441,0-17.1914-4.7473-4.7473-12.4442-4.7473-17.1914,0-4.7473,4.7473-4.7473,12.4443,0,17.1914Z" style="fill: #6d6a68;"/>
      <circle cx="145.2948" cy="377.3397" r="12.1563" style="fill: #6d6a68;"/>
      <circle cx="108.5554" cy="414.0791" r="12.1563" style="fill: #6d6a68;"/>
      <circle cx="71.816" cy="450.8185" r="12.1563" style="fill: #6d6a68;"/>
      <rect x="347.3757" y="139.9791" width="49.2648" height="21.2948" transform="translate(741.5663 -5.9145) rotate(134.9999)" style="fill: #6d6a68;"/>
    </g>
  </g>
</svg>