<?xml version="1.0" encoding="UTF-8"?>
<svg id="uuid-4365e8ef-9338-4cd3-aa39-5161e94d913d" data-name="Ebene 2" xmlns="http://www.w3.org/2000/svg" viewBox="0 0 693.4434 630.1978">
  <g id="uuid-94c1569a-caf7-4e9b-bc92-c86e8c610070" data-name="ŕđ 1">
    <g>
      <path d="M338.3305,339.0992c-11.0538-1.1584-21.5004-5.695-29.9563-13.105l-14.4684-12.6775c-11.0458-9.6801-17.5633-23.0868-18.3519-37.7525-.7886-14.6646,4.2532-28.693,14.1965-39.5l15.7444-17.1131,24.8792,1.9822-26.1618,28.4363c-6.3283,6.8783-9.5374,15.8066-9.0354,25.1391.5018,9.3341,4.65,17.8673,11.6801,24.0281l14.4684,12.6775c13.4349,11.7738,33.3488,11.3907,46.3219-.8887l36.8813-34.909,13.7906,14.0052-37.1631,35.1756c-9.8007,9.2764-22.6284,14.528-36.1204,14.787-2.2517.0431-4.491-.0531-6.7051-.2852Z" style="fill: #b5996b;"/>
      <path d="M120.5396,588.0751c-15.7496-1.6506-27.4065-7.4395-27.8948-7.6856l8.8277-17.5564-4.414,8.7782,4.3835-8.7936c.0914.0449,9.1252,4.4533,21.1496,5.7134.1948.0204.3892.0395.5853.0587,15.3645,1.4662,28.3263-2.835,38.5291-12.783l178.9314-195.9902c7.5667-8.2877,17.8923-13.3674,29.0753-14.3046,11.1832-.9358,22.2098,2.3545,31.0495,9.2691l14.8514,11.6153-12.1063,15.4788-14.8514-11.6153c-10.1233-7.9167-24.8403-6.6843-33.5058,2.8068l-179.2909,196.3835-.1861.1838c-14.543,14.3198-33.608,20.6969-55.1335,18.4411Z" style="fill: #b5996b;"/>
      <path d="M650.4738,25.2832c-.0076-.48-.0338-.8672-.1344-.8757l-.5763-.1915s-1.1541-.3786-1.1539-.3786c-3.2427-1.0848-15.4722,2.4091-32.6021,8.5304-122.1452,43.6488-318.2616,28.4836-489.1903,191.3403-4.4315,4.2221-51.6271,51.6263-86.4085,114.2147-18.3076,32.9437-29.6684,69.4558-37.9762,106.3001-4.0086,22.5399-2.9998,45.6796,2.5675,67.8484,11.1635,44.8724,79.4526,96.9289,122.8678,111.5429.0185.0066.0325.0007.049.0019-11.7766-4.279-22.9974-10.6309-33.5473-19.0811-35.514-28.4441-49.4618-69.836-40.6485-120.1124-1.4466-18.8841,1.6369-42.0449,12.6486-70.8346,12.1348-31.7259,27.2179-89.7457,123.6242-168.207,53.6853-43.6924,87.2623-60.5295,161.2286-62.2497,44.1059-1.0258,102.6291,6.0581,171.5046,26.4692l85.1338,26.4149.6293-.0324.3153-.0183c.048.0202.1704-.3382.3113-.7895.8795-2.9074,1.8061-7.9241,2.6526-11.3362,5.2203-23.7967,10.6497-49.5165,15.9736-73.978,6.3185-28.9207,13.7965-66.8457,18.5057-95.2589,1.0861-6.6332,2.9329-16.8163,3.5549-22.6564.3824-2.7376.5773-4.6389.6707-6.6625Z" style="fill: #b5996b;"/>
      <path d="M441.299,296.4483c-3.9942-30.4579-18.3919-55.0129-42.7921-72.9828-38.2753-28.1871-84.7338-30.9106-134.3528-7.8744-41.7328,19.3758-86.0429,57.4043-128.1399,109.9742-42.5414,53.1244-70.3617,104.8689-80.4548,149.6401-.6999,3.1057-1.3058,6.1756-1.8388,9.217-8.8133,50.2766,5.1345,91.6683,40.6484,120.1126,10.55,8.4501,21.7708,14.8021,33.5474,19.0811,8.3529,3.0351,16.983,5.0358,25.8615,5.966,23.7314,2.4868,49.2045-2.5574,75.677-15.1845,41.0386-19.5752,85.3137-58.1234,128.0381-111.4764,28.7199-35.8649,50.6839-71.2778,65.2812-105.2541,16.1659-37.6275,22.3986-71.6819,18.5248-101.2188ZM386.6632,382.1526c-13.0161,30.2961-33.7118,63.5621-59.849,96.202-39.0412,48.7541-78.5591,83.531-114.2799,100.5695-36.8055,17.555-67.421,15.8999-93.5958-5.0651-13.1334-10.519-21.5158-23.0253-25.6258-38.2329-4.0103-14.8387-3.8126-32.2594.5877-51.7781,8.788-38.9835,33.9593-85.2218,72.7924-133.7161,38.326-47.8607,77.751-82.0578,114.012-98.8924,18.0162-8.3644,35.0552-12.329,50.6446-11.7835,1.8743.0658,3.7244.1939,5.5554.386,13.7619,1.4419,26.3404,6.4654,38.2956,15.2703,15.6705,11.5403,24.5448,26.733,27.1299,46.4465,2.9004,22.1174-2.5172,49.9861-15.6671,80.5938Z" style="fill: #b2936b;"/>
      <path d="M620.8737,263.8685h0c-14.2135-2.7718-23.4887-16.5412-20.7169-30.7546l41.3254-211.9074c2.7719-14.2134,16.5412-23.4886,30.7547-20.7168h0c14.2134,2.7719,23.4886,16.5412,20.7168,30.7546l-41.3254,211.9074c-2.7719,14.2134-16.5412,23.4886-30.7546,20.7168Z" style="fill: #a8a594;"/>
      <path d="M245.8116,535.1046h-.0002c-7.0114,8.2268-19.3644,9.2119-27.5911,2.2005l-53.172-45.3177,25.3908-29.7916,53.1721,45.3177c8.2267,7.0114,9.2118,19.3644,2.2004,27.5911Z" style="fill: #9b8c7e;"/>
      <path d="M176.8359,478.1566c-10.1693-3.2424-19.2346-9.262-29.4495-12.2293-3.5177-1.0219-7.7775-2.319-10.8614-4.7999-3.1767-2.8093-4.5757-6.5211-5.6188-10.9513-.5493-2.835-.8696-5.9388-.4478-9.9131.0992-.9358.4828-1.8238,1.0932-2.54h0c.6104-.7162,1.4263-1.2357,2.3346-1.4819,3.8572-1.0463,6.9726-1.222,9.8587-1.1289,4.5381.3261,8.4272,1.1223,11.7033,3.8119,2.9384,2.6522,4.9568,6.3993,6.4608,9.9635,3.0776,7.2935,8.9782,13.0405,12.91,19.9397,1.3358,2.3313,2.6131,4.7315,3.8322,7.1993l-1.8153,2.13h0Z" style="fill: #968366;"/>
      <path d="M282.0842,492.5452h0c-7.0114,8.2267-19.3644,9.2118-27.5911,2.2004l-53.1721-45.3175,25.3909-29.7917,53.172,45.3175c8.2267,7.0114,9.2118,19.3644,2.2004,27.5913Z" style="fill: #9b8c7e;"/>
      <path d="M213.1085,435.5971c-10.1692-3.2425-19.2345-9.262-29.4494-12.2294-3.5177-1.0218-7.7775-2.319-10.8614-4.7999-3.1767-2.8091-4.5757-6.5208-5.6188-10.9512-.5493-2.8349-.8697-5.9387-.4478-9.9131.0992-.9358.4827-1.8238,1.0931-2.54h0c.6104-.7162,1.4264-1.2355,2.3346-1.482,3.8573-1.0462,6.9727-1.222,9.8588-1.1286,4.5381.3259,8.4272,1.1221,11.7033,3.8117,2.9384,2.6521,4.9568,6.3994,6.4607,9.9635,3.0777,7.2936,8.9782,13.0404,12.9101,19.9396,1.3358,2.3315,2.613,4.7316,3.8321,7.1995l-1.8153,2.1299h0Z" style="fill: #968366;"/>
      <path d="M318.3569,449.9856h-.0002c-7.0114,8.2269-19.3644,9.212-27.5911,2.2004l-53.172-45.3175,25.3908-29.7916,53.1721,45.3175c8.2267,7.0116,9.2118,19.3646,2.2004,27.5912Z" style="fill: #9b8c7e;"/>
      <path d="M249.3812,393.0376c-10.1692-3.2425-19.2345-9.2621-29.4495-12.2294-3.5176-1.0218-7.7775-2.319-10.8614-4.7998-3.1766-2.8092-4.5756-6.521-5.6188-10.9512-.5493-2.835-.8696-5.9388-.4478-9.9133.0992-.9356.4828-1.8238,1.0932-2.5398h0c.6104-.7162,1.4264-1.2357,2.3346-1.4819,3.8572-1.0465,6.9726-1.222,9.8587-1.1289,4.5382.3261,8.4272,1.1223,11.7033,3.8119,2.9384,2.6522,4.9568,6.3993,6.4608,9.9633,3.0776,7.2937,8.9782,13.0406,12.9102,19.9397,1.3356,2.3315,2.6129,4.7315,3.832,7.1994l-1.8153,2.13h0Z" style="fill: #968366;"/>
      <path d="M354.6296,407.4261l-.0002.0002c-7.0114,8.2266-19.3644,9.2118-27.5911,2.2004l-53.1721-45.3177,25.3909-29.7917,53.1721,45.3177c8.2266,7.0114,9.2118,19.3644,2.2004,27.5911Z" style="fill: #9b8c7e;"/>
      <path d="M285.6538,350.4782c-10.1692-3.2425-19.2345-9.262-29.4494-12.2294-3.5177-1.0218-7.7775-2.319-10.8614-4.7999-3.1767-2.8093-4.5757-6.5208-5.6188-10.9512-.5493-2.8349-.8697-5.9389-.4478-9.9132.0992-.9357.4828-1.8237,1.0932-2.5399h0c.6104-.7162,1.4263-1.2356,2.3346-1.482,3.8572-1.0462,6.9726-1.222,9.8587-1.1288,4.5381.326,8.4272,1.1222,11.7033,3.8118,2.9384,2.6522,4.9568,6.3993,6.4607,9.9635,3.0777,7.2935,8.9782,13.0405,12.9103,19.9397,1.3356,2.3313,2.6128,4.7315,3.8319,7.1995l-1.8153,2.1299h0Z" style="fill: #968366;"/>
    </g>
  </g>
</svg>