<?xml version="1.0" encoding="UTF-8"?>
<svg id="uuid-99ddfb56-d147-4edb-bcf3-446b208adbbc" data-name="Ebene 2" xmlns="http://www.w3.org/2000/svg" viewBox="0 0 436.6164 461.8885">
  <g id="uuid-b7af6de8-8a99-4b84-8e57-b7303cb22074" data-name="ŕđ 1">
    <g>
      <path d="M52.9415,79.7884V21.9594c0-5.3724-4.7744-9.4828-10.0897-8.7009-7.3291,1.078-14.5794,2.2195-21.7447,3.4237-5.6111.9428-9.7253,5.7904-9.7253,11.48v58.628c13.4157-2.5657,27.2841-4.9055,41.5597-7.0018Z" style="fill: #726149;"/>
      <path d="M11.3818,151.6321v298.1076c0,6.7095,5.4393,12.1488,12.1488,12.1488h17.2621c6.7097,0,12.1488-5.4393,12.1488-12.1488V144.1231c-14.2801,2.2351-28.1591,4.7412-41.5597,7.509Z" style="fill: #726149;"/>
      <path d="M84.7544,7.8829c-7.2924.8034-14.5234,1.6665-21.687,2.5889-5.7949.7463-10.1259,5.6958-10.1259,11.5386v57.778c13.5042-1.9832,27.3717-3.7482,41.5598-5.2831V16.6281c0-5.2336-4.5447-9.3185-9.7469-8.7452Z" style="fill: #7f6d57;"/>
      <path d="M52.9415,144.1231v263.2856c0,7.5987,6.1602,13.7587,13.7589,13.7587h14.042c7.5988,0,13.7589-6.16,13.7589-13.7587V138.5121c-14.1687,1.6224-28.0435,3.4952-41.5598,5.611Z" style="fill: #7f6d57;"/>
      <path d="M136.061,70.7459V12.7547c0-5.1214-4.3613-9.1649-9.4677-8.7731-7.1027.5449-14.1592,1.1447-21.1651,1.7987-6.197.5785-10.9269,5.7939-10.9269,12.0177v56.7073c13.5715-1.4683,27.4367-2.7253,41.5597-3.7594Z" style="fill: #8c7965;"/>
      <path d="M94.5013,138.5121v247.4224c0,7.6306,6.1858,13.8166,13.8164,13.8166h13.9267c7.6306,0,13.8166-6.186,13.8166-13.8166v-251.3952c-14.0849,1.0886-27.957,2.4152-41.5597,3.9728Z" style="fill: #8c7965;"/>
      <path d="M177.6207,68.3863V10.0217c0-4.9239-4.113-8.8582-9.0317-8.6271-7.0988.3336-14.1628.7293-21.1832,1.1565-6.3731.3878-11.3448,5.6645-11.3448,12.0495v56.1453c13.6249-.9976,27.4883-1.788,41.5597-2.3596Z" style="fill: #937e6c;"/>
      <path d="M136.061,134.5393v217.8549c0,7.1458,5.7929,12.9389,12.9389,12.9389h15.682c7.146,0,12.9388-5.7931,12.9388-12.9389v-220.3459c-14.0175.6017-27.8881,1.4345-41.5597,2.491Z" style="fill: #937e6c;"/>
      <path d="M219.1805,67.3492V7.675c0-4.1975-3.4362-7.5849-7.6333-7.5232-8.311.1222-16.5055.3193-25.3106.5898-4.8007.1476-8.6159,4.0845-8.6159,8.8876v58.7571c13.668-.5552,27.5312-.9039,41.5598-1.0371Z" style="fill: #9b8575;"/>
      <path d="M177.6207,132.0483v186.403c0,7.5971,6.1587,13.7557,13.7558,13.7557h14.0482c7.5971,0,13.7558-6.1586,13.7558-13.7557v-187.501c-13.9603.141-27.8302.5085-41.5598,1.098Z" style="fill: #9b8575;"/>
      <path d="M232.1433,67.2851c9.608,0,19.1428.1021,28.5969.3014V9.3925c0-5.0464-4.0487-9.1629-9.0946-9.2382-6.4806-.0968-12.9823-.1543-19.5022-.1543-1.6564,0-3.3117.0033-4.9657.0094-4.4205.0163-7.9972,3.6001-7.9972,8.0206v59.3192c4.3062-.041,8.6261-.0641,12.9628-.0641Z" style="fill: #9b8575;"/>
      <path d="M232.1434,130.8836c-4.3287,0-8.6499.0232-12.9629.0667v161.6021c0,6.4466,5.2258,11.6724,11.6722,11.6724h18.2151c6.4466,0,11.6724-5.2258,11.6724-11.6724v-161.3486c-9.487-.212-19.024-.3202-28.5968-.3202Z" style="fill: #9b8575;"/>
      <path d="M302.2999,69.1158V9.4523c0-4.2808-3.3619-7.8086-7.638-8.0122-7.9419-.378-15.8596-.7087-24.4406-.928-5.195-.1326-9.4811,4.0371-9.4811,9.2339v57.8405c14.0443.2961,27.9067.8103,41.5597,1.5293Z" style="fill: #937e6c;"/>
      <path d="M260.7402,131.2038v135.6251c0,5.798,4.7002,10.4982,10.4981,10.4982h20.5636c5.7978,0,10.498-4.7002,10.498-10.4982v-134.0096c-13.7088-.7623-27.5787-1.3032-41.5597-1.6155Z" style="fill: #937e6c;"/>
      <path d="M343.8595,71.9902l.0002-60.721c0-3.7711-2.8947-6.9115-6.6533-7.2182-8.5089-.694-16.9247-1.3528-26.4638-1.8497-4.5878-.2388-8.4427,3.4159-8.4427,8.0099v58.9046c14.0896.7421,27.9537,1.7039,41.5596,2.8744Z" style="fill: #8c7965;"/>
      <path d="M316.5193,250.6983h13.1209c7.8531,0,14.2193-6.3662,14.2193-14.2194v-100.6254c-13.6469-1.2398-27.5184-2.2533-41.5596-3.0342v103.6596c0,7.8532,6.3663,14.2194,14.2194,14.2194Z" style="fill: #8c7965;"/>
      <path d="M385.4193,76.3055V15.3148c.0001-3.7478-2.8057-6.9024-6.5278-7.3409-8.6661-1.0209-17.2131-2.027-27.2192-2.8208-4.2102-.3339-7.8126,2.9964-7.8126,7.2198l-.0002,59.6173c14.146,1.217,28.0114,2.6596,41.5598,4.3153Z" style="fill: #7f6d57;"/>
      <path d="M357.8201,224.9489h13.6388c7.7102,0,13.9604-6.2503,13.9604-13.9606v-70.5684c-13.5726-1.7591-27.4456-3.284-41.5598-4.5664v75.1348c0,7.7103,6.2504,13.9606,13.9606,13.9606Z" style="fill: #7f6d57;"/>
      <path d="M385.4193,76.3055c14.2168,1.7376,28.0867,3.7076,41.5598,5.9001l-2.1863-60.8768c-.1505-4.1923-3.2424-7.6949-7.383-8.3666-7.5266-1.2206-14.2432-2.3579-23.7916-3.4109-4.3742-.4822-8.1988,2.947-8.1988,7.3479v59.4063Z" style="fill: #726149;"/>
      <path d="M426.9791,82.2056c-13.4731-2.1925-27.343-4.1625-41.5598-5.9001-13.5484-1.6557-27.4138-3.0983-41.5598-4.3153-13.6059-1.1705-27.47-2.1323-41.5596-2.8744-13.653-.719-27.5154-1.2332-41.5597-1.5293-9.4541-.1993-18.9889-.3014-28.5969-.3014-4.3367,0-8.6566.0231-12.9628.0641-14.0286.1332-27.8918.4819-41.5598,1.0371-14.0714.5716-27.9348,1.362-41.5597,2.3596-14.123,1.0341-27.9882,2.2911-41.5597,3.7594-14.1881,1.5349-28.0556,3.2999-41.5598,5.2831-14.2756,2.0963-28.144,4.4361-41.5597,7.0018-1.6165.3091-3.2267.6214-4.8304.9368-3.8097.7495-6.5514,4.0956-6.5514,7.9783v48.2991c0,5.1605,4.7412,9.0119,9.7928,7.9576.529-.1103,1.0586-.2203,1.589-.3299,13.4006-2.7678,27.2796-5.2739,41.5597-7.509,13.5163-2.1158,27.3911-3.9886,41.5598-5.611,13.6027-1.5576,27.4748-2.8842,41.5597-3.9728,13.6716-1.0565,27.5422-1.8893,41.5597-2.491,13.7296-.5895,27.5995-.957,41.5598-1.098,4.313-.0435,32.0727.0415,41.5597.2535,13.981.3123,27.8509.8532,41.5597,1.6155,14.0412.7809,27.9127,1.7944,41.5596,3.0342,14.1142,1.2824,27.9872,2.8073,41.5598,4.5664,14.2066,1.8413,28.0828,3.9397,41.5598,6.2869.0324.0057.0647.0113.097.0169,4.9793.8679,9.5403-2.954,9.5403-8.0084v-48.0213c0-3.9818-2.8832-7.3732-6.8112-8.0243-.9401-.1559-1.8821-.3106-2.8261-.4641Z" style="fill: #846f4d;"/>
      <path d="M426.9791,187.7301v-41.0233c-13.477-2.3472-27.3532-4.4456-41.5598-6.2869v47.3102c0,7.8308,6.3481,14.1788,14.1788,14.1788h13.2022c7.8307,0,14.1788-6.348,14.1788-14.1788Z" style="fill: #726149;"/>
    </g>
  </g>
</svg>