<?xml version="1.0" encoding="UTF-8"?>
<svg id="uuid-c259a4e0-4e50-4d23-be07-b2307631e3d0" data-name="Ebene 2" xmlns="http://www.w3.org/2000/svg" viewBox="0 0 301.6801 844.7825">
  <g id="uuid-d3d2b340-501c-4584-96d7-31fb6914c8b9" data-name="ŕđ 1">
    <g>
      <path d="M180.6111,454.5762h-76.9543C61.2447,511.3786-.0002,607.1354,0,686.4712c-.0002,104.4033,48.7056,158.3111,143.2989,158.3113,94.5937-.0002,139.2048-56.6373,139.205-152.1705,0-80.1088-60.6587-179.6324-101.8928-238.0358Z" style="fill: #9e8c5a;"/>
      <path d="M175.5622,274.5693c-.1874-6.6814-3.4557-12.9003-8.8526-16.8436-5.4768-4.0018-8.7568-10.3432-8.8587-17.125l-1.7395-115.8125c-.119-7.9159-3.863-15.3393-10.1579-20.1408-6.4031-4.8832-10.1605-12.4751-10.1603-20.5286l-.0002-73.8664C135.793,4.5904,131.2027,0,125.5406,0c-5.527,0-10.0591,4.3818-10.246,9.9058l-3.0408,89.7865c-.2164,6.3912,2.6338,12.5009,7.6698,16.4425,4.8481,3.7941,7.681,9.6075,7.681,15.7643v108.9511c0,6.9741-2.9345,13.6262-8.085,18.3284v.0009c-4.8715,4.4475-7.7724,10.6522-8.0609,17.243l-7.8033,178.1539.0014-.0002h76.9543l.0021.0002-5.051-180.0071Z" style="fill: #6d675a;"/>
      <circle cx="141.2519" cy="579.3381" r="33.0952" style="fill: #514d41;"/>
      <path d="M233.1883,732.1904H49.3154c-5.7549,0-10.4201-4.6652-10.42-10.4199v-8.5022c0-5.7548,4.6651-10.42,10.42-10.42h183.8729c5.7548,0,10.42,4.6651,10.42,10.42v8.5022c0,5.7549-4.6652,10.42-10.42,10.4199Z" style="fill: #514d41;"/>
      <path d="M160.6996,217.0509c1.875-1.9001,3.652-2.7196,5.3998-3.213,1.7209-.4027,3.4645-.7057,5.0949.1598,1.6257.8512,3.157,2.7507,4.8166,3.2293,1.6553.5275,3.3951.1212,5.1784-.7619,7.043-3.6967,15.0339-2.2817,20.0511,4.2552.2536.3337.2044.8038-.0978,1.0814-5.4282,4.7979-11.901,5.4595-18.0816,2.2063-2.2414-1.3195-4.6806-3.7781-7.3654-3.2998-2.5259.3257-5.0695,3.2738-7.8799,2.3933-3.0152-.7574-5.0372-1.9341-7.2143-4.9688-.234-.3436-.1834-.7971.0982-1.0818h0Z" style="fill: #96957d;"/>
      <path d="M208.3892,486.1671c.3284-2.6492,1.2381-4.3819,2.3229-5.8382,1.1188-1.3681,2.3164-2.671,4.1364-2.9787,1.8081-.3161,4.1797.2568,5.7873-.3752,1.6337-.5905,2.7652-1.9733,3.6407-3.7601,2.3456-4.8616,6.6032-8.8399,12.1857-9.2881,1.9067-.1604,3.8767-.2208,6.3046.4409.4042.1101.6518.5125.5815.9171-1.3526,7.0781-6.141,11.6071-12.9906,12.7692-2.5813.3202-6.014-.1426-7.8503,1.873-1.8043,1.7978-2.0236,5.6857-4.789,6.7001-2.8516,1.2371-5.1724,1.5367-8.7476.4573-.3949-.1297-.6315-.5199-.5816-.9173h0Z" style="fill: #96957d;"/>
      <path d="M229.4436,520.5396c.3285-2.6492,1.2381-4.3819,2.323-5.838,1.1186-1.3682,2.3162-2.6713,4.1362-2.9788,1.8081-.3161,4.1794.2565,5.7874-.3751,1.6335-.591,2.7654-1.9734,3.6408-3.7603,2.3457-4.8618,6.6028-8.8401,12.1858-9.288,1.9067-.1604,3.8765-.2209,6.3044.4407.4044.1103.6515.5125.5817.9173-1.3529,7.0781-6.1411,11.6065-12.9908,12.7692-2.5812.3202-6.0139-.1428-7.8502,1.873-1.8041,1.7979-2.0242,5.685-4.7892,6.7001-2.8518,1.2369-5.1719,1.5368-8.7475.4573-.3948-.1295-.6314-.5199-.5816-.9174h0Z" style="fill: #96957d;"/>
      <path d="M248.0047,555.3193c.3288-2.6489,1.2384-4.3816,2.3231-5.8378,1.1187-1.3682,2.3166-2.6713,4.1364-2.9787,1.8081-.316,4.1796.2564,5.7873-.3751,1.6335-.591,2.7653-1.9735,3.6405-3.7606,2.3462-4.8613,6.6033-8.8399,12.1861-9.2878,1.9066-.1603,3.8766-.2208,6.3042.4405.4043.1102.6518.5128.5819.9176-1.3533,7.0779-6.1411,11.6064-12.9909,12.7691-2.5812.3204-6.0137-.1426-7.8501,1.873-1.804,1.7981-2.0243,5.685-4.7891,6.7-2.8519,1.2365-5.1721,1.5369-8.7474.4574-.3952-.1299-.6316-.5199-.582-.9176h0Z" style="fill: #96957d;"/>
      <path d="M265.2409,592.9057c.5246-2.6172,1.5606-4.2776,2.7505-5.6493,1.2176-1.2811,2.5087-2.4915,4.3467-2.6629,1.8263-.1806,4.1486.5667,5.799.0558,1.673-.4675,2.9045-1.762,3.91-3.4789,3.8589-6.9556,11.315-10.1591,19.0972-7.4481.3946.1394.6116.5594.5116.9574-1.8753,6.9587-6.9868,11.1178-13.9039,11.7685-2.5979.1271-5.9866-.5893-7.9678,1.2843-1.9329,1.6589-2.4409,5.5192-5.2739,6.3254-2.9361,1.0216-5.272,1.1481-8.7573-.1939-.3844-.1589-.591-.5654-.5121-.9583h0Z" style="fill: #96957d;"/>
      <path d="M161.3918,180.8717c1.8753-1.9001,3.6524-2.7192,5.4002-3.2125,1.7207-.4028,3.4644-.7061,5.0945.1593,1.6262.8515,3.1573,2.7508,4.817,3.2297,1.6554.5274,3.3953.1214,5.1782-.7621,7.044-3.6959,15.0334-2.2822,20.0515,4.2553.2532.3336.2045.8036-.0979,1.0815-5.4283,4.798-11.9012,5.4594-18.0817,2.2063-2.2412-1.3198-4.681-3.7783-7.3651-3.3001-2.5263.3262-5.0698,3.2739-7.8805,2.3932-3.0147-.7574-5.037-1.9335-7.214-4.9689-.234-.3436-.1833-.7967.0978-1.0817h0Z" style="fill: #96957d;"/>
      <path d="M160.3241,142.9321c1.8749-1.9,3.6522-2.719,5.4-3.2126,1.7206-.4029,3.4646-.7061,5.0946.1595,1.6262.8515,3.1572,2.7506,4.8169,3.2299,1.6552.5272,3.395.1206,5.178-.7623,7.0435-3.6967,15.034-2.2818,20.0516,4.2554.2532.3334.2042.8033-.0979,1.0816-5.4281,4.7973-11.902,5.4594-18.082,2.2059-2.241-1.3196-4.6808-3.7784-7.3647-3.2997-2.5265.326-5.0698,3.2738-7.8805,2.393-3.0148-.7575-5.0375-1.9339-7.2141-4.9689-.234-.3436-.1836-.797.0981-1.0818h0Z" style="fill: #96957d;"/>
      <path d="M122.2392,221.1062c-1.5034,2.206-3.1046,3.331-4.7352,4.1303-1.6204.7049-3.2813,1.3164-5.0405.7579-1.7526-.5458-3.5998-2.1392-5.3188-2.3124-1.7228-.2216-3.3615.4904-4.957,1.6796-6.2651,4.9011-14.3798,4.9442-20.4898-.5859-.309-.2827-.345-.7536-.0978-1.0814,4.4788-5.6941,10.7274-7.5078,17.3915-5.4171,2.4425.8959,5.2832,2.8764,7.8384,1.9237,2.4264-.7742,4.3994-4.1314,7.3226-3.7689,3.1018.2032,5.3025.9979,7.9888,3.5926.2917.2958.3236.7509.0978,1.0816h0Z" style="fill: #96957d;"/>
      <path d="M122.2779,184.1959c-1.5035,2.206-3.1047,3.331-4.7352,4.1303-1.6205.7054-3.2818,1.3164-5.0407.7578-1.7525-.5457-3.5999-2.1391-5.3184-2.3121-1.723-.2218-3.3615.4904-4.957,1.6796-6.2659,4.9008-14.3793,4.9445-20.4898-.5859-.309-.2826-.3454-.754-.0981-1.0816,4.4787-5.694,10.7281-7.5077,17.3918-5.4169,2.442.8954,5.2835,2.8764,7.8379,1.9237,2.4266-.7746,4.3995-4.131,7.3227-3.7693,3.1018.2041,5.3024.9976,7.989,3.5928.2917.2958.3236.7509.0978,1.0816h0Z" style="fill: #96957d;"/>
      <path d="M122.3813,146.2093c-1.5037,2.2057-3.1049,3.3307-4.7355,4.13-1.6204.7055-3.2815,1.3167-5.0406.7578-1.7526-.5456-3.5996-2.1388-5.3184-2.312-1.7232-.2217-3.3617.4905-4.957,1.6795-6.2661,4.9007-14.3795,4.9444-20.4898-.5859-.3091-.2826-.345-.7535-.0978-1.0814,4.4777-5.6943,10.7279-7.508,17.3915-5.417,2.442.8954,5.2835,2.8764,7.8378,1.9236,2.427-.7739,4.3996-4.131,7.3226-3.7691,3.102.2036,5.3024.9975,7.9892,3.5926.2919.2961.3238.7511.098,1.0819h0Z" style="fill: #96957d;"/>
      <path d="M107.8068,67.132c-1.5845,2.1484-3.2262,3.2133-4.8854,3.9514-1.6456.6446-3.328,1.1939-5.0652.5704-1.731-.6105-3.5177-2.2712-5.229-2.5079-1.7139-.2853-3.3776.3653-5.0162,1.4945-6.4429,4.6651-14.5532,4.4073-20.4537-1.3458-.2985-.2939-.317-.766-.0578-1.0843,4.6868-5.524,10.999-7.1047,17.5808-4.7679,2.4071.9856,5.173,3.0704,7.7611,2.2129,2.4537-.6836,4.5498-3.965,7.4574-3.4946,3.0921.3185,5.262,1.1939,7.8501,3.8865.2809.3065.2956.7626.0579,1.0848h0Z" style="fill: #96957d;"/>
      <path d="M109.319,29.1751c-1.584,2.1485-3.2258,3.2133-4.8852,3.9515-1.6454.6446-3.3281,1.1938-5.0652.5701-1.731-.6099-3.518-2.2709-5.229-2.5079-1.7139-.2853-3.3775.3655-5.0161,1.4946-6.4429,4.6652-14.553,4.4076-20.4536-1.3456-.2985-.2939-.3172-.7659-.058-1.0846,4.6871-5.5239,10.9988-7.1043,17.5808-4.7678,2.407.9856,5.1728,3.0702,7.7611,2.2134,2.4539-.6839,4.5497-3.965,7.4574-3.4951,3.0924.3187,5.2621,1.194,7.8502,3.8866.2809.3065.2957.7627.0576,1.0848h0Z" style="fill: #96957d;"/>
      <path d="M141.3607,31.1329c1.5034-2.2059,3.1046-3.331,4.7353-4.1301,1.6204-.7055,3.2814-1.3166,5.0406-.7578,1.7524.5456,3.5997,2.1391,5.3185,2.3122,1.7229.2215,3.3617-.4903,4.9572-1.6795,6.2651-4.9011,14.3797-4.9443,20.4897.5858.309.2826.345.7536.0978,1.0814-4.4789,5.6942-10.7274,7.5078-17.3916,5.4171-2.4424-.8959-5.283-2.8763-7.8383-1.9237-2.4263.7743-4.3994,4.1309-7.3223,3.7691-3.102-.2036-5.3027-.998-7.989-3.5927-.292-.2958-.3237-.751-.0979-1.0818h0Z" style="fill: #96957d;"/>
      <path d="M141.2575,69.1198c1.5034-2.206,3.1046-3.331,4.7352-4.1303,1.6207-.7049,3.2814-1.3163,5.0406-.7578,1.7525.5457,3.5999,2.1391,5.3187,2.3123,1.7229.2215,3.3618-.4904,4.9571-1.6794,6.2645-4.9012,14.3799-4.9443,20.4895.5855.3092.2829.3452.7538.098,1.0816-4.4788,5.6941-10.7274,7.5079-17.3915,5.4171-2.4425-.8959-5.2831-2.8763-7.8382-1.9238-2.4266.7743-4.3995,4.1314-7.3226,3.7692-3.102-.2034-5.3026-.998-7.989-3.5928-.2919-.2957-.3236-.7509-.0978-1.0816h0Z" style="fill: #96957d;"/>
    </g>
  </g>
</svg>