<?xml version="1.0" encoding="UTF-8"?>
<svg id="uuid-eb4282ec-d92e-455a-999e-b0d2085c529b" data-name="Ebene 2" xmlns="http://www.w3.org/2000/svg" viewBox="0 0 417.3105 393.4317">
  <g id="uuid-e00b57af-34f7-4f6c-9e75-357a77761cc5" data-name="ŕđ 1">
    <g>
      <polygon points="371.2681 393.4317 394.2894 0 417.3105 393.4317 371.2681 393.4317 371.2681 393.4317" style="fill: #706d69;"/>
      <path d="M295.7442,393.4317H68.1234c-24.5884,0-46.6082-12.7131-58.9027-34.0073-12.294-21.2945-12.2944-46.7204,0-68.015L123.0314,94.2837c12.294-21.2941,34.3135-34.0073,58.9024-34.0073s46.6084,12.7132,58.9024,34.0073l113.8107,197.1257-29.5311,17.05-113.8109-197.1257c-6.1305-10.6181-17.1103-16.9574-29.3711-16.9574s-23.2406,6.3393-29.3711,16.9574l-113.8108,197.1257c-6.1301,10.618-6.1301,23.2967.0004,33.9151,6.1301,10.618,17.1105,16.9573,29.3711,16.9573h227.6208v34.0999Z" style="fill: #706d69;"/>
      <path d="M182.5383,109.8391h0c-9.231,0-16.7141-7.4832-16.7141-16.7143V16.7142c0-9.2309,7.4831-16.7142,16.7141-16.7142h0c9.2311,0,16.7143,7.4833,16.7143,16.7142v76.4106c0,9.2311-7.4832,16.7143-16.7143,16.7143Z" style="fill: #d1cbc5;"/>
    </g>
  </g>
</svg>