<?xml version="1.0" encoding="UTF-8"?>
<svg id="uuid-486b355d-0612-4f20-b3c0-7bb43368df91" data-name="Ebene 2" xmlns="http://www.w3.org/2000/svg" viewBox="0 0 801.2204 680.4976">
  <g id="uuid-7eefa942-d5b1-480e-bc45-8904a276283a" data-name="ŕđ 1">
    <g>
      <path d="M482.0739,206.8068l-89.0062-89.0061c-5.8821-5.8822-15.4186-5.8822-21.3006,0h0c-5.8819,5.8819-5.8819,15.4184,0,21.3005l6.1258,6.1256,79.6455,79.6455,3.235,3.2351c5.882,5.882,15.4186,5.882,21.3006,0,5.8819-5.882,5.8819-15.4187,0-21.3006Z" style="fill: #a8a594;"/>
      <path d="M151.9891,600.8557c-2.3242,0-4.6485-.8868-6.4215-2.6592l-63.2662-63.2676c-3.5469-3.546-3.5469-9.2957,0-12.8431,3.546-3.5448,9.2971-3.5448,12.8431,0l63.2661,63.2675c3.547,3.5462,3.547,9.2957,0,12.8432-1.773,1.7724-4.0972,2.6592-6.4215,2.6592Z" style="fill: #a8a594;"/>
      <path d="M293.7408,459.1048c-2.3243,0-4.6486-.8869-6.4216-2.6593l-62.8493-62.8486c-3.5468-3.5475-3.5468-9.2971,0-12.8432,3.546-3.5474,9.297-3.546,12.8432-.0014l62.8492,62.8488c3.5469,3.5473,3.5469,9.297,0,12.843-1.773,1.7738-4.0973,2.6607-6.4215,2.6607Z" style="fill: #a8a594;"/>
      <path d="M418.6365,426.0957c-2.3235,0-4.6485-.8869-6.4209-2.6607l-34.4322-34.4307c-3.546-3.5461-3.546-9.2957,0-12.8432,3.5475-3.5448,9.2986-3.5448,12.8432,0l34.4308,34.4322c3.5476,3.546,3.5476,9.2957,0,12.8417-1.7724,1.7738-4.0972,2.6607-6.4209,2.6607Z" style="fill: #a8a594;"/>
      <path d="M370.7049,470.7637c-2.3235,0-4.6486-.887-6.4208-2.6594l-31.1755-31.1739c-3.5467-3.5474-3.5467-9.2971,0-12.8431,3.5462-3.5475,9.2971-3.5461,12.8432-.0013l31.174,31.1739c3.5475,3.5474,3.5475,9.2971.0013,12.8431-1.7737,1.7737-4.0986,2.6607-6.4222,2.6607Z" style="fill: #a8a594;"/>
      <path d="M97.9784,654.8672c-2.3242,0-4.6485-.887-6.4215-2.6594l-63.2663-63.2675c-3.5468-3.546-3.5468-9.2957,0-12.8432,3.5462-3.5446,9.2971-3.5446,12.8432,0l63.2662,63.2677c3.5467,3.546,3.5467,9.2957,0,12.843-1.773,1.7724-4.0973,2.6594-6.4216,2.6594Z" style="fill: #a8a594;"/>
      <circle cx="61.2494" cy="609.0562" r="19.9681" style="fill: #b5a976;"/>
      <rect x="341.9428" y="492.5235" width="14.4118" height="7.7061" transform="translate(-248.7279 392.2707) rotate(-45)" style="fill: #a8a594;"/>
      <path d="M348.8596,510.9133l-7.2581,11.8319-18.3006-18.3006,11.2647-7.5777c1.6957-1.1407,3.9617-.921,5.4069.524l8.2662,8.2664c1.3976,1.3975,1.6544,3.5712.6209,5.256Z" style="fill: #a8a594;"/>
      <path d="M343.6834,530.7389h0c-1.6325,1.6324-4.2791,1.6324-5.9117,0l-22.8244-22.8244c-1.6324-1.6324-1.6324-4.2792,0-5.9117h.0002c1.6324-1.6324,4.2791-1.6324,5.9116,0l22.8243,22.8244c1.6325,1.6324,1.6325,4.2792,0,5.9117Z" style="fill: #a8a594;"/>
      <path d="M378.1466,153.9594c.6794,23.385-7.1778,46.2174-22.1042,64.2321l-60.8138,71.816c-10.4077,12.2908-21.2259,24.2281-32.4362,35.7915l-75.0754,77.4411L18.5147,572.4423c-24.6863,24.6864-24.6863,64.8542.0003,89.5408,24.686,24.686,64.8539,24.686,89.5403-.0003l256.0473-256.0472-13.1372-13.1372L94.918,648.8456c-17.4425,17.4428-45.8237,17.4425-63.2664,0-17.4426-17.4427-17.4423-45.8233.0003-63.266l163.1791-163.1791,79.1829-77.3498c14.2254-13.896,29.0217-27.1953,44.3507-39.8636l72.6995-60.0802c16.4511-12.7145,36.5752-19.7626,57.364-20.0909l9.1102-.1436-79.6455-79.6455.2538,8.7326Z" style="fill: #b5a976;"/>
      <path d="M789.972,65.6474l-383.0787,383.0789-9.9842-9.9843L779.9878,55.6632c9.4925-9.4926,9.4925-24.938,0-34.4307-9.4926-9.4925-24.938-9.4925-34.4307,0l-383.0787,383.0788-9.9843-9.9842L735.573,11.2484c14.9979-14.9979,39.4011-14.9979,54.399,0,14.9979,14.9979,14.9979,39.4011,0,54.399Z" style="fill: #9e977b;"/>
      <rect x="344.3852" y="458.1907" width="67.3196" height="18.5788" transform="translate(-219.8314 404.2387) rotate(-44.9999)" style="fill: #b5a976;"/>
    </g>
  </g>
</svg>