<?xml version="1.0" encoding="UTF-8"?>
<svg id="uuid-8566e540-91f5-4121-975b-bf58c4e738b8" data-name="Ebene 2" xmlns="http://www.w3.org/2000/svg" viewBox="0 0 734.9795 852.5126">
  <g id="uuid-b9a73182-27e4-428d-957d-97cfe5cb7b2b" data-name="ŕđ 1">
    <g>
      <path d="M732.1785,313.0002L508.8652,6.026c-4.7544-6.5355-13.9066-7.9794-20.4421-3.2251h0c-6.5356,4.7544-7.9794,13.9067-3.225,20.4424l223.313,306.9741c4.7544,6.5355,13.9068,7.9795,20.4423,3.2251h0c6.5357-4.7544,7.9794-13.9067,3.2251-20.4423Z" style="fill: #a8a594;"/>
      <path d="M267.7534,818.8445c64.5999-47.0486,142.9469-104.1277,207.6164-151.2248,7.206-5.2371,20.9185-15.2526,27.948-20.3574,56.8756-39.3535,70.4521-119.9509,29.3713-175.6525l.0002-.0002c-34.8474-47.9022-102.1695-58.5233-150.0718-23.6761l-36.1968,26.3319,26.3998,36.29,36.1968-26.3319c27.8922-20.2905,67.0914-14.1063,87.382,13.7859h-.0002c6.0633,8.376,10.4667,17.818,12.912,27.7838,4.9752,19.9234,1.7772,41.8447-8.6825,59.5141-5.1902,8.8479-12.1064,16.6278-20.3061,22.8798l-127.3989,92.6316-127.4624,92.5365c-8.4618,5.8496-17.974,10.0081-27.9628,12.1996-30.1676,6.927-68.0844-11.3626-86.0409-36.6285-3.7225-5.8671-33.1343-50.6734-35.9343-55.6433-6.1986-10.6481-10.6359-22.4511-12.9662-34.4713-7.204-35.9016,4.9327-74.7876,31.9748-99.1722,3.1446-2.9427,6.6794-5.6886,10.1783-8.2105,3.6076-2.5392,49.4962-32.1785,54.598-35.5481l94.974-61.6845s-54.585-75.0342-54.585-75.0344c-32.7008,26.6322-106.3488,86.1528-138.2482,112.3045C-.5494,563.0876-18.5912,654.1257,20.9588,724.5283c4.0733,7.3506,8.7582,14.3883,13.8955,21.02,1.48,2.1635,37.4766,46.1039,40.3132,49.7777,28.2305,39.6612,84.7088,65.6439,132.1347,54.6542,17.5719-3.8305,34.1332-11.6953,48.4736-22.4115,2.0049-1.4357,10.1015-7.392,11.9776-8.7242Z" style="fill: #77725c;"/>
      <path d="M485.538,23.7108v.0002c-36.1111,123.856-109.7868,233.4446-210.853,313.6315l-78.0294,61.9093c-5.1693,4.1017-6.1854,11.5497-2.3034,16.8861l42.5367,58.4725c3.8914,5.3491,11.3143,6.6669,16.8092,2.984l65.3485-43.7999c113.9689-76.388,249.9689-113.0128,386.8855-104.189l2.2391.1444L485.538,23.7108Z" style="fill: #999168;"/>
      <path d="M389.4781,533.4535l-16.6576-22.8981-26.3998-36.29-108.1272-148.6353c-3.1309-4.3039-9.1578-5.2547-13.4614-2.1239l-20.7048,15.0621c-4.3039,3.1309-5.2546,9.1578-2.1238,13.4614l108.1272,148.6355-160.426,116.7045c-32.5857,23.7049-40.6956,69.3939-17.3081,102.2079,23.6164,33.1353,69.8362,40.6009,102.6674,16.7174l138.2833-100.5965c32.6886-23.7798,39.9106-69.5563,16.1308-102.245ZM208.6643,700.005c-12.6256,9.1848-30.3702,6.3856-39.5553-6.2405-9.185-12.626-6.3854-30.3708,6.2403-39.5554l161.1813-117.2539,16.6575,22.8982c9.185,12.6258,6.3852,30.3705-6.2404,39.5551l-138.2834,100.5965Z" style="fill: #77725c;"/>
      <rect x="202.9456" y="316.9806" width="14.0216" height="17.355" transform="translate(349.7918 -35.7018) rotate(53.9654)" style="fill: #a8a594;"/>
      <path d="M186.8809,326.1651l-19.8201-16.9232,39.2957-28.5862,10.7578,23.1093c1.6193,3.4786.549,7.6169-2.5539,9.8742l-17.7497,12.9123c-3.001,2.1831-7.1075,2.0232-9.9298-.3864Z" style="fill: #a8a594;"/>
      <path d="M151.6263,310.7643h0c-2.5499-3.5053-1.7754-8.414,1.7299-10.9641l49.009-35.6524c3.5054-2.55,8.414-1.7756,10.9641,1.7297h0c2.5499,3.5054,1.7754,8.414-1.7297,10.9641l-49.0092,35.6524c-3.5054,2.5501-8.414,1.7757-10.9641-1.7297Z" style="fill: #a8a594;"/>
      <path d="M355.646,659.9694l-43.1068-59.2559c-4.9305-6.7777-3.4331-16.2688,3.3446-21.1993h0c6.7775-4.9305,16.2689-3.4332,21.1994,3.3445l43.1067,59.2559-24.5439,17.8548Z" style="fill: #a59f84;"/>
      <path d="M379.3716,668.1497c-8.5105,6.1911-20.4282,4.3109-26.6193-4.1995-6.1909-8.5105-4.3107-20.4282,4.1997-26.6193,8.5103-6.1909,20.4282-4.3107,26.6193,4.1997,6.1909,8.5103,4.3107,20.4282-4.1997,26.6191Z" style="fill: #898576;"/>
      <path d="M309.3631,693.6388l-43.1067-59.2561c-4.9305-6.7777-3.4331-16.2689,3.3446-21.1994h0c6.7775-4.9305,16.2689-3.4331,21.1994,3.3446l43.1067,59.2558-24.544,17.8551Z" style="fill: #a59f84;"/>
      <path d="M333.3419,700.8037c-8.5105,6.1911-20.4284,4.3107-26.6192-4.1995-6.1911-8.5105-4.311-20.4284,4.1995-26.6193,8.5104-6.191,20.4281-4.3109,26.6192,4.1996,6.1911,8.5104,4.3107,20.4281-4.1995,26.6192Z" style="fill: #898576;"/>
      <path d="M263.0803,727.3079l-43.1067-59.2561c-4.9305-6.7777-3.433-16.2689,3.3445-21.1994h0c6.7777-4.9305,16.2689-3.4331,21.1994,3.3446l43.1067,59.2559-24.5439,17.855Z" style="fill: #a59f84;"/>
      <path d="M286.4193,733.5934c-8.5103,6.1911-20.4282,4.311-26.6193-4.1995-6.1909-8.5104-4.3107-20.4282,4.1997-26.6192,8.5103-6.1909,20.4282-4.3108,26.6193,4.1995,6.1909,8.5104,4.3107,20.4283-4.1997,26.6192Z" style="fill: #898576;"/>
    </g>
  </g>
</svg>