<?xml version="1.0" encoding="UTF-8"?>
<svg id="uuid-4ae53383-b73b-455b-acc9-461a4d033777" data-name="Ebene 2" xmlns="http://www.w3.org/2000/svg" viewBox="0 0 359.5184 853.4486">
  <g id="uuid-2d5b9a0a-d01c-4dd1-8845-ce831db2c7c0" data-name="ŕđ 1">
    <g>
      <path d="M213.9884,341.8246h-62.0143C100.2348,406.8862,0,547.4061,0,659.6366c0,151.2635,72.1169,193.812,182.1118,193.812s177.4067-60.6999,177.4066-211.9642c0-110.3868-94.4668-238.4801-145.53-299.6598Z" style="fill: #827b64;"/>
      <path d="M211.9925.0856l-10.3739,1.6598c-3.2465.5193-5.6427,3.3077-5.6343,6.5955.0159,6.2334-.2992,16.7078-2.1724,26.8229-2.9277,15.8092-9.9539,21.0788-24.8851,38.6449-14.9313,17.5662-7.3192,33.0825-7.3192,33.0825h43.3298c-1.1498-29.8408,9.0755-26.6414,16.1021-52.4051,5.1258-18.7948,1.0589-39.6153-1.5161-49.5033-.8691-3.3369-4.126-5.4419-7.5309-4.8972Z" style="fill: #a08b6a;"/>
      <polygon points="204.9374 106.8913 161.6076 106.8912 151.9727 341.8247 151.9741 341.8246 213.9884 341.8246 213.9888 341.8247 204.9374 106.8913" style="fill: #5b5a59;"/>
      <path d="M208.0419,92.6106c3.7-1.1439,7.8113-2.1029,11.588-2.9524,2.3167-.4229,5.5053-1.0379,7.7341-1.7395,4.3442-.8795,7.9561.392,11.8355,3.4962,0,.0003.0344.8867.0344.8867-3.6278,3.3927-7.1361,4.937-11.5332,4.3932-2.264-.5267-5.5146-.897-7.845-1.1421-3.8338-.5601-7.9965-1.1975-11.7801-2.0557l-.0337-.8864h0Z" style="fill: #7f7e60;"/>
      <path d="M222.2907,62.7867c2.7886-1.2375,5.8936-2.2975,8.7768-3.2503,1.7811-.4872,4.1936-1.1829,5.8702-1.9392,3.441-1.126,6.7241.6219,9.3159,3.1805,0,.0002.074.8842.074.8842-2.1247,2.9534-5.0789,5.2256-8.6559,4.6869-2.8-.709-6.327-.8752-9.168-1.4128-2.0421-.3742-4.0832-.7342-6.1388-1.2654l-.0742-.8839h0Z" style="fill: #7f7e60;"/>
      <path d="M156.5855,93.5748c-3.6308,1.0014-7.652,1.8014-11.3487,2.5062-2.2644.3336-5.3795.8264-7.5663,1.4416-4.2708.7124-7.7071-.7056-11.3492-3.9476,0-.0002,0-.8873,0-.8873,3.6391-3.2414,7.0805-4.6599,11.349-3.9473,3.4561.9451,7.8409,1.3996,11.3491,2.1736,2.5222.5436,5.0443,1.0731,7.5662,1.7737l-.0002.8871h0Z" style="fill: #7f7e60;"/>
      <path d="M171.885,65.9603c-3.5365.6173-7.4167.9948-10.9868,1.3118-2.1773.0966-5.1685.2625-7.2991.6468-4.152.2602-7.2044-1.5204-10.2803-5.1028.0003-.0003.0972-.882.0972-.882,3.7788-2.8286,7.1503-3.902,11.1443-2.7448,1.9851.8345,4.8907,1.6521,6.9836,2.2188,3.4182,1.0886,7.1147,2.2963,10.4381,3.6704l-.097.8818h0Z" style="fill: #7f7e60;"/>
      <circle cx="179.7593" cy="549.5557" r="53.8692" transform="translate(-149.9602 74.5716) rotate(-16.6543)" style="fill: #5b5a59;"/>
      <path d="M133.9412,650.8533c0,13.7436-11.1415,24.8851-24.8852,24.8852-13.7438,0-24.8853-11.1415-24.8853-24.8853,0-13.7437,11.1416-24.8852,24.8852-24.8852s24.8853,11.1415,24.8853,24.8853Z" style="fill: #5b5a59;"/>
      <circle cx="250.1698" cy="650.8532" r="25.178" style="fill: #5b5a59;"/>
      <path d="M127.1856,758.7161h0c13.8045-.755,27.2239-4.8255,39.1215-11.867h0c2.0999-1.2428,4.7123-1.2332,6.8029.0252l7.3652,7.1795,8.0612-6.8008c2.1743-1.4722,5.0121-1.524,7.2388-.1323l2.568,1.6048c9.7987,6.1244,20.7307,10.212,32.1437,12.0189l2.3553.373c3.326.5265,5.1905,4.1242,3.7032,7.1455l-4.0307,8.1876h0c1.5533,7.1696-3.2069,14.1807-10.4438,15.3822l-1.0402.1726c-27.3119,4.534-55.1607,4.8174-82.5591.8401h0c-7.1726-1.0411-12.0617-7.8101-10.7955-14.9465l.1011-.5703-4.9247-11.6785c-1.3444-3.1883.8784-6.7451,4.3332-6.934Z" style="fill: #c1bfb4;"/>
    </g>
  </g>
</svg>