<?xml version="1.0" encoding="UTF-8"?>
<svg id="uuid-2bb2c9e1-1c54-43c9-9622-b7e322b894dd" data-name="Ebene 2" xmlns="http://www.w3.org/2000/svg" viewBox="0 0 270.219 646.5438">
  <g id="uuid-9112cffc-9910-409e-85c3-cde0f63dcd42" data-name="ŕđ 1">
    <g>
      <path d="M212.3041,519.6912l-11.9861-33.4288c-.7537.2912-1.5293.5268-2.3284.6974-14.0445,2.9998-29.6335-14.2486-34.819-38.5255-5.1854-24.2771,1.9965-46.3892,16.0411-49.3891,2.354-.5028,4.7516-.4341,7.1361.1385l10.6936-45.3256c2.4817-10.5185,2.7933-21.4326.9155-32.0757h0c-5.8442-33.1267-31.9002-58.9924-65.0689-64.5937l-.0206-.0036c-15.3043-2.5845-30.94-2.5021-46.216.2432h0c-30.8207,5.5392-55.521,28.651-63.0937,59.036l-.1464.5878c-3.1003,12.4403-3.1468,25.4457-.1356,37.9078l10.7519,44.4945c2.7141-.8138,5.4549-.9826,8.1395-.4092,14.0447,2.9999,21.2264,25.1121,16.041,49.3889-5.1854,24.2771-20.7745,41.5257-34.819,38.5259-.595-.1271-1.1765-.2914-1.7464-.4856l-12.8709,32.3148c-6.6317,16.65-9.5627,34.5431-8.5895,52.4388H.1823c1.986,36.5244,29.2506,66.6816,65.3904,72.3282h0c29.2106,4.564,59.0002,3.8942,87.9761-1.9782l3.2834-.6655c34.9681-7.0868,60.7169-36.9261,62.6088-72.5549h0c.878-16.5351-1.5482-33.0796-7.1369-48.6664Z" style="fill: #875f44;"/>
      <polygon points="93.9059 105.2369 89.3624 415.3306 130.2539 415.3307 118.8952 105.2368 93.9059 105.2369" style="fill: #564830;"/>
      <path d="M124.1326,11.1323l-7.2754-7.2755c-5.1426-5.1425-13.4803-5.1424-18.6227,0l-7.2754,7.2755c-5.1426,5.1425-5.1426,13.4801,0,18.6226l5.99,5.99h0l-3.0432,69.492h24.9893s-1.3773-68.8672-1.3773-68.8672l6.6147-6.6148c5.1424-5.1424,5.1426-13.4801,0-18.6226Z" style="fill: #825d43;"/>
      <path d="M91.4984,64.1666c-2.8033,1.3487-5.8748,2.4181-8.7878,3.3883-1.802.4625-4.1823,1.1255-5.8584,1.9491-2.8324,1.0989-5.4446-1.0952-7.3229-3.2005-.5121-.9141-2.0404-2.0605-1.4648-3.3363,1.8189-2.9919,5.0711-6.6261,8.7879-5.3378.9762.4026,1.9526.8897,2.9292,1.1397,1.4827.3708,4.4224,1.2725,5.8584,1.799,1.9528.7352,3.9056,1.4512,5.8582,2.3991.4948.2213.4914.9804.0002,1.1994h0Z" style="fill: #898877;"/>
      <path d="M90.8079,88.1905c-2.6787,1.3482-5.6099,2.4161-8.4009,3.3885-1.7283.464-4.0009,1.1268-5.6007,1.9492-3.6198,1.2928-6.6945-2.4214-8.401-5.3373-.1974-.3896-.181-.8371.0003-1.1998,1.2745-2.3299,3.2426-4.51,5.6005-5.3973,1.9574-.8716,3.7955.734,5.6005,1.1994,1.4194.3713,4.2297,1.2731,5.6007,1.7991,1.8667.7351,3.7336,1.451,5.6004,2.3991.4856.228.4822.9737.0002,1.1991h0Z" style="fill: #898877;"/>
      <path d="M121.8674,48.7899c2.7146-1.3482,5.686-2.417,8.5122-3.3884,1.7492-.4637,4.053-1.1264,5.6744-1.9492,3.6486-1.2917,6.7722,2.3993,8.5122,5.3373.1994.3889.1827.8376-.0003,1.1996-1.2964,2.3398-3.2944,4.5142-5.6745,5.3974-1.9816.8714-3.8442-.7325-5.6746-1.1994-1.4377-.3711-4.2851-1.2729-5.6746-1.7993-1.8915-.7349-3.783-1.4507-5.6748-2.3985-.4878-.2263-.4848-.9759,0-1.1995h0Z" style="fill: #898877;"/>
      <path d="M122.07,75.962c2.9228-1.3492,6.1298-2.4201,9.1602-3.3885,1.8731-.4609,4.3577-1.1243,6.1068-1.949,2.9217-1.0926,5.6473,1.0608,7.6333,3.2006.5281.912,2.1232,2.0455,1.5267,3.3363-1.9341,3.0613-5.3462,6.6207-9.16,5.3376-1.0179-.4027-2.0355-.8896-3.0534-1.1397-1.5437-.3702-4.6083-1.2718-6.1069-1.7993-2.0355-.7347-4.0711-1.4507-6.1067-2.3985-.5031-.2152-.4997-.987,0-1.1995h0Z" style="fill: #898877;"/>
      <path d="M143.4427,477.0781c-.9041.9041-2.1541,1.464-3.5338,1.4633h-64.1775c-2.7602.0006-4.9978-2.237-4.9969-4.9971-.0016-2.7593,2.2375-4.9984,4.9969-4.9969l64.1775-.0002c2.7607.0002,4.9969,2.2364,4.9971,4.9971.0007,1.3798-.5592,2.6297-1.4633,3.5338Z" style="fill: #565654;"/>
      <polygon points="89.3624 521.5351 130.2539 521.535 109.8081 628.8752 89.3624 521.5351" style="fill: #564830;"/>
      <path d="M242.1376,589.6875s12.6003-197.0493,12.8884-331.6935c.294-137.3816,2.446-190.241,2.446-190.241l12.4946-10.9802s.5678,199.5355,0,273.3673c-.568,73.8319-6.8153,210.7048-6.8153,210.7048l-2.2717,30.6686-18.742,18.174Z" style="fill: #3d3f2d;"/>
    </g>
  </g>
</svg>