<?xml version="1.0" encoding="UTF-8"?>
<svg id="uuid-609c8710-a053-4f81-b3f8-5dcd0c1bc21f" data-name="Ebene 2" xmlns="http://www.w3.org/2000/svg" viewBox="0 0 277.3244 739.6872">
  <g id="uuid-35927db9-1dcf-4dd3-be4a-7c2c1292973b" data-name="ŕđ 1">
    <g>
      <polygon points="141.5663 675.4523 141.5663 646.5195 119.813 646.5194 119.813 675.6867 141.5663 675.4523" style="fill: #685743;"/>
      <path d="M268.0907,494.9627l-15.1355-42.213c-.1388.0536-.8578-1.6856-1.9848-4.696-18.3414-48.9932-20.0756-102.6567-5.0664-152.7713l2.9137-9.7287c3.1338-13.2824,3.5271-27.0642,1.1561-40.5039h0c-7.38-41.8312-40.2826-74.4939-82.1669-81.5669l-.0262-.0046c-19.3256-3.2636-39.07-3.1597-58.3599.3071l-.0002.0002c-38.9195,6.9946-70.1103,36.1793-79.6725,74.5486l-.1851.7424c-3.915,15.709-3.9737,32.1318-.1711,47.8686,0,0,13.5643,62.0156,10.2542,93.773-3.3869,32.4951-28.5694,113.1054-28.5694,113.1054-8.3744,21.025-12.0754,43.62-10.8465,66.2179v.0002c2.5079,46.1218,36.9365,84.2034,82.5728,91.3337h.0001c36.8862,5.7632,74.5036,4.9174,111.0933-2.4981l4.1464-.8403c44.1565-8.949,76.6713-46.6292,79.0602-91.6199v-.0002c1.1086-20.8801-1.9551-41.7718-9.0123-61.4542Z" style="fill: #9b805c;"/>
      <rect x="-51.6446" y="276.0401" width="380.6136" height="97.7995" transform="translate(463.602 186.2776) rotate(90)" style="fill: #b79e80;"/>
      <path d="M59.9146,536.5416h0c0-11.761,9.534-21.295,21.295-21.295h114.9053c11.7607,0,21.2949,9.5342,21.2949,21.2949h0c0,11.761-9.5341,21.295-21.295,21.295h-114.9053c-11.7609.0002-21.295-9.534-21.2949-21.2949Z" style="fill: #685743;"/>
      <path d="M140.4681,669.0561l-62.6702,1.0964c-9.9269.1738-17.8833,8.2705-17.8834,18.199h0c.0001,3.8004,3.081,6.8813,6.8814,6.8814h3.1374c5.1089-.0001,9.7075-3.0979,11.6269-7.8325h0l48.0529,7.8324h0c.237,4.9773,4.3415,8.891,9.3244,8.8908l3.4576.0002c7.9054-.0002,14.3141-6.4088,14.3141-14.3142v-4.7942c0-8.9246-7.3178-16.1155-16.2411-15.9593Z" style="fill: #685743;"/>
      <path d="M83.4367,724.1085c0-4.2815-1.6664-8.1579-4.3627-10.9725-3.6768-3.838-5.8288-8.8826-5.8288-14.1975v-.3689h-9.6645v.3688c.0001,5.3149-2.1518,10.3596-5.8286,14.1976-2.6966,2.8146-4.3627,6.691-4.3628,10.9723,0,8.604,6.7264,15.5788,15.0236,15.5789,8.2975,0,15.0238-6.9748,15.0238-15.5787Z" style="fill: #9b805c;"/>
      <path d="M75.8921,119.2597V15.3733c0-8.4906,6.8828-15.3733,15.3732-15.3733h94.7937c8.4904,0,15.3733,6.8829,15.3733,15.3733v103.8865c0,8.4904-6.8828,15.3732-15.3732,15.3732h-94.7937c-8.4904,0-15.3733-6.8829-15.3733-15.3733Z" style="fill: #685743;"/>
      <path d="M75.8921,35.6138c-7.442,1.8151-15.6076,3.272-23.2034,4.3037-1.9336.2625-3.8672.7519-5.801,1.1685-3.9934.8505-7.8526-.1381-11.6016-1.7418-1.9337-.8816-3.8673-1.9679-5.8009-3.7305-.3397-.3094-.3639-.8357-.0545-1.1752,3.5241-3.1689,7.3549-4.7131,11.6561-5.588,3.9171-.8878,7.7685.7143,11.6018,1.2298,2.902.3755,8.7261,1.2983,11.6017,1.8446,3.8674.7532,7.7347,1.4873,11.6019,2.4591.622.1362.6257,1.0982,0,1.2298h0Z" style="fill: #898877;"/>
      <path d="M75.892,96.5698c-7.442,1.8153-15.6079,3.272-23.2035,4.3041-1.9334.2622-3.867.7516-5.8008,1.1683-3.9934.8505-7.8526-.1382-11.6015-1.742-1.9338-.8815-3.8674-1.9677-5.801-3.7304-.3396-.3093-.3639-.8357-.0544-1.1753,3.5241-3.1689,7.3546-4.7125,11.656-5.5878,3.9168-.8877,7.7686.7141,11.6018,1.2297,2.9019.3759,8.726,1.2987,11.6017,1.8446,3.8674.7533,7.7347,1.4874,11.6015,2.4592.6226.1359.6261,1.0981.0002,1.2296h0Z" style="fill: #898877;"/>
      <path d="M174.5238,489.1348c-.7945.7945-1.8924,1.2858-3.1054,1.2857l-66.4639.0013c-2.4248.0011-4.3912-1.9652-4.3913-4.3913.0001-2.426,1.9652-4.3911,4.3913-4.3912l66.4639-.0011c2.4261-.0002,4.3913,1.965,4.3912,4.3911,0,1.2131-.4912,2.3109-1.2858,3.1055Z" style="fill: #565654;"/>
      <path d="M174.5226,453.4531c-.7945.7945-1.8924,1.2858-3.1053,1.2858h-66.4628c-2.4255.0005-4.3918-1.9659-4.3912-4.3912,0-2.4262,1.9651-4.3913,4.3913-4.3913h66.4626c2.4262,0,4.3913,1.9651,4.3913,4.3913-.0002,1.213-.4913,2.3108-1.2859,3.1054Z" style="fill: #565654;"/>
      <path d="M174.5226,417.7702c-.7945.7945-1.8923,1.2858-3.1054,1.2858h-66.4627c-2.4255.0007-4.3918-1.9657-4.3912-4.3912,0-2.4262,1.9651-4.3913,4.3913-4.3913h66.4626c2.4262,0,4.3913,1.9651,4.3913,4.3913,0,1.2131-.4913,2.3108-1.2859,3.1054Z" style="fill: #565654;"/>
      <path d="M174.5232,382.0878c-.7946.7946-1.8923,1.2859-3.1054,1.2859h-66.4627c-2.4254.0006-4.3918-1.9657-4.3912-4.3913,0-2.4261,1.9651-4.3912,4.3912-4.3911h66.4627c2.4255-.0006,4.3918,1.9657,4.3913,4.3911,0,1.2131-.4914,2.311-1.2859,3.1054Z" style="fill: #565654;"/>
      <path d="M174.522,346.4061c-.7945.7945-1.8923,1.2859-3.1054,1.2859h-66.4626c-2.4256.0006-4.3919-1.9657-4.3913-4.3913,0-2.4261,1.9651-4.3912,4.3913-4.3912h66.4626c2.4254-.0005,4.3917,1.9658,4.3912,4.3912,0,1.2131-.4912,2.3108-1.2858,3.1054Z" style="fill: #565654;"/>
      <path d="M174.5226,310.7238c-.7946.7946-1.8923,1.2859-3.1054,1.2859h-66.4626c-2.4256.0006-4.3919-1.9657-4.3913-4.3913,0-2.4259,1.9652-4.3911,4.3912-4.3911l66.4627-.0002c2.4254-.0005,4.3918,1.9659,4.3913,4.3913,0,1.2131-.4914,2.3109-1.2859,3.1054Z" style="fill: #565654;"/>
      <path d="M174.5232,275.0415c-.7946.7946-1.8923,1.2859-3.1054,1.2859l-66.4632-.0007c-2.4256.0007-4.3919-1.9657-4.3913-4.3912,0-2.426,1.9652-4.3912,4.3912-4.3912l66.4633.0008c2.4255-.0008,4.3918,1.9655,4.3912,4.3911,0,1.213-.4913,2.3108-1.2858,3.1053Z" style="fill: #565654;"/>
      <path d="M174.5232,239.3588c-.7945.7945-1.8924,1.2857-3.1054,1.2856h-66.4627c-2.4254.0006-4.3918-1.9657-4.3913-4.3911.0001-2.4261,1.9652-4.3912,4.3913-4.3913h66.4627c2.4255-.0006,4.3919,1.9658,4.3912,4.3913,0,1.213-.4912,2.3109-1.2858,3.1055Z" style="fill: #565654;"/>
      <path d="M174.5227,203.6776c-.7946.7946-1.8924,1.2857-3.1055,1.2857l-66.4634-.0005c-2.4254.0005-4.3917-1.9658-4.3911-4.3911,0-2.4262,1.9651-4.3913,4.3913-4.3913l66.4632.0006c2.4256-.0006,4.3919,1.9657,4.3911,4.3912,0,1.2131-.4911,2.3109-1.2856,3.1054Z" style="fill: #565654;"/>
      <path d="M174.5226,167.9947c-.7945.7945-1.8924,1.2858-3.1053,1.2858h-66.4628c-2.4253.0006-4.3918-1.9658-4.3912-4.3912,0-2.4261,1.9651-4.3912,4.3913-4.3912h66.4626c2.4256-.0006,4.3919,1.9657,4.3913,4.3912-.0002,1.213-.4913,2.3108-1.2859,3.1054Z" style="fill: #565654;"/>
    </g>
  </g>
</svg>