<?xml version="1.0" encoding="UTF-8"?>
<svg id="uuid-dc19a52b-63e0-4354-b236-070bc5b15da0" data-name="Ebene 2" xmlns="http://www.w3.org/2000/svg" viewBox="0 0 537.9378 544.4663">
  <g id="uuid-a66eb598-6c37-4841-962a-16239bf560ef" data-name="ŕđ 1">
    <g>
      <rect x="334.8629" y="101.9956" width="23.1673" height="452.9273" transform="translate(293.9516 -146.0457) rotate(40.2136)" style="fill: #706d69;"/>
      <rect x="235.5846" y="2.7174" width="23.1675" height="452.9273" transform="translate(262.5977 -107.5355) rotate(49.7861)" style="fill: #706d69;"/>
      <path d="M246.0472,511.3242l-179.0669-179.0669h0c5.5165-13.5406,16.2603-24.2844,29.8009-29.8009h0l179.0669,179.0669h0c-6.2609,13.0297-16.7712,23.5398-29.8007,29.8009h-.0002Z" style="fill: #a38a6c;"/>
      <path d="M283.5591,465.7959l-171.0503-171.0503h0c5.5165-13.5406,16.2604-24.2845,29.801-29.801h0l171.0501,171.0503h0c-6.2609,13.0298-16.771,23.5399-29.8008,29.8008v.0002Z" style="fill: #a38a6c;"/>
      <path d="M321.0709,420.2674l-163.0337-163.0336h0c5.5165-13.5406,16.2603-24.2845,29.8009-29.801h0l163.0336,163.0336h0c-6.2609,13.0298-16.771,23.5399-29.8008,29.801h0Z" style="fill: #a38a6c;"/>
      <path d="M358.5827,374.739l-155.017-155.017h0c5.5165-13.5406,16.2603-24.2844,29.8008-29.8009h0l155.017,155.017h0c-6.261,13.0297-16.7712,23.5398-29.8009,29.8009h0Z" style="fill: #a38a6c;"/>
      <path d="M396.0945,329.2105l-147.0005-147.0003v-.0002c5.5166-13.5404,16.2604-24.2842,29.801-29.8007h0l147.0004,147.0003h0c-6.2611,13.0297-16.7712,23.5398-29.8009,29.8009h0Z" style="fill: #a38a6c;"/>
      <path d="M433.6063,283.6821l-138.9837-138.9838h0c5.5165-13.5405,16.2603-24.2843,29.8007-29.8008h.0002l138.9837,138.9837h0c-6.2611,13.0297-16.7712,23.5398-29.8009,29.8009h0Z" style="fill: #a38a6c;"/>
      <path d="M471.1181,238.1536l-130.9672-130.9671h0c5.5165-13.5405,16.2604-24.2843,29.801-29.8008v-.0002l130.9671,130.9672h0c-6.2611,13.0297-16.7712,23.5398-29.8009,29.8009h0Z" style="fill: #a38a6c;"/>
      <path d="M510.7681,195.7114l-128.149-128.149,19.9866-19.9868c9.5774-9.5773,25.1052-9.5773,34.6826,0l93.4665,93.4665c9.5773,9.5773,9.5773,25.1052,0,34.6826l-19.9867,19.9867Z" style="fill: #6d5538;"/>
      <path d="M159.3155,535.4244l-119.2126-119.2124c-12.0557-12.056-12.0557-31.6024,0-43.6581l21.7396-21.7396,162.8707,162.8707-21.7396,21.7394c-12.0559,12.0559-31.6023,12.0559-43.6581,0Z" style="fill: #6d5538;"/>
      <path d="M4.8515,312.9999h0c-3.08-3.0799-3.08-8.0735,0-11.1534L211.1923,95.5056l11.1537,11.1535L16.0051,312.9999c-3.0799,3.0801-8.0735,3.0801-11.1536,0Z" style="fill: #9b8675;"/>
      <path d="M230.8956,115.2089c-7.8019,7.8017-20.451,7.8017-28.2529,0-7.8017-7.8019-7.8017-20.4512,0-28.253,7.8019-7.8019,20.451-7.8019,28.2529,0,7.8019,7.8018,7.8019,20.4511,0,28.253Z" style="fill: #5e4a38;"/>
      <path d="M1.8643,213.4754h0c-2.8123-3.3261-2.3957-8.3024.9305-11.1145L225.6324,13.9556l10.184,12.0453L12.9788,214.4061c-3.3262,2.8122-8.3024,2.3955-11.1145-.9307Z" style="fill: #9b8675;"/>
      <path d="M243.623,35.2341c-8.4256,7.1237-21.0308,6.0684-28.1544-2.3573-7.1236-8.4256-6.0683-21.0306,2.3572-28.1544,8.4257-7.1237,21.0308-6.0683,28.1544,2.3574,7.1238,8.4255,6.0683,21.0307-2.3572,28.1543Z" style="fill: #5e4a38;"/>
    </g>
  </g>
</svg>